<svg width="16" height="10" viewBox="0 0 16 10" fill="none" xmlns="http://www.w3.org/2000/svg">
<path d="M13.3333 0.952637H2.66663C2.01207 0.952637 1.48145 1.48326 1.48145 2.13782V7.86227C1.48145 8.51683 2.01207 9.04745 2.66663 9.04745H13.3333C13.9879 9.04745 14.5185 8.51683 14.5185 7.86227V2.13782C14.5185 1.48326 13.9879 0.952637 13.3333 0.952637Z" stroke="#25DEB0" stroke-width="1.5" stroke-linecap="round" stroke-linejoin="round"/>
<path d="M7.99979 6.35115C8.74599 6.35115 9.3509 5.74624 9.3509 5.00004C9.3509 4.25384 8.74599 3.64893 7.99979 3.64893C7.25359 3.64893 6.64868 4.25384 6.64868 5.00004C6.64868 5.74624 7.25359 6.35115 7.99979 6.35115Z" stroke="#25DEB0" stroke-linecap="round" stroke-linejoin="round"/>
<path d="M11.822 0.952637C11.822 1.66774 12.1061 2.35355 12.6117 2.85921C13.1174 3.36486 13.8032 3.64893 14.5183 3.64893" stroke="#25DEB0" stroke-linecap="round" stroke-linejoin="round"/>
<path d="M1.48145 3.64893C2.19655 3.64893 2.88236 3.36486 3.38801 2.85921C3.89367 2.35355 4.17774 1.66774 4.17774 0.952637" stroke="#25DEB0" stroke-width="1.5" stroke-linecap="round" stroke-linejoin="round"/>
<path d="M11.822 9.04737C11.822 8.33227 12.1061 7.64646 12.6117 7.1408C13.1174 6.63515 13.8032 6.35107 14.5183 6.35107" stroke="#25DEB0" stroke-width="1.5" stroke-linecap="round" stroke-linejoin="round"/>
<path d="M1.48145 6.35107C2.19655 6.35107 2.88236 6.63515 3.38801 7.1408C3.89367 7.64646 4.17774 8.33227 4.17774 9.04737" stroke="#25DEB0" stroke-width="1.5" stroke-linecap="round" stroke-linejoin="round"/>
</svg>
