<svg width="21" height="22" viewBox="0 0 21 22" fill="none" xmlns="http://www.w3.org/2000/svg">
<path d="M12.2767 14.2509C12.448 14.4221 12.6723 14.5078 12.8967 14.5078C13.121 14.5078 13.3454 14.4221 13.5167 14.2509L16.1473 11.6202C16.2289 11.5386 16.2881 11.4439 16.3308 11.344C16.3322 11.3407 16.3361 11.3392 16.3374 11.3359L16.3376 11.3337C16.3968 11.1897 16.4022 11.0358 16.3815 10.8838C16.3767 10.8479 16.3709 10.8171 16.3617 10.7821C16.3238 10.6357 16.262 10.4949 16.1473 10.3802L13.5167 7.74957C13.1741 7.40704 12.6192 7.40704 12.2767 7.74957C11.9342 8.0921 11.9342 8.64701 12.2767 8.98954L13.4105 10.1233H6.75848C6.27379 10.1233 5.88159 10.5155 5.88159 11.0002C5.88159 11.4849 6.27379 11.8771 6.75848 11.8771H13.4105L12.2767 13.0109C11.9342 13.3534 11.9342 13.9083 12.2767 14.2509Z" fill="white"/>
<path d="M20.4411 13.6908C19.9924 13.5144 19.482 13.7387 19.3056 14.1892C17.9834 17.5786 14.779 19.7691 11.143 19.7691C6.30813 19.7691 2.37414 15.8351 2.37414 11.0002C2.37414 6.16531 6.30813 2.23131 11.143 2.23131C14.779 2.23131 17.9834 4.42181 19.3056 7.81119C19.482 8.26163 19.9941 8.48941 20.4411 8.30958C20.8932 8.13317 21.1159 7.62452 20.9395 7.17408C19.3518 3.10648 15.5069 0.477539 11.143 0.477539C5.34049 0.477539 0.620361 5.19766 0.620361 11.0002C0.620361 16.8027 5.34049 21.5228 11.143 21.5228C15.5069 21.5228 19.3518 18.8939 20.9395 14.8263C21.1159 14.3758 20.8932 13.8672 20.4411 13.6908Z" fill="white"/>
</svg>
