<svg width="48" height="49" viewBox="0 0 48 49" fill="none" xmlns="http://www.w3.org/2000/svg">
<path d="M24 34.6194C21.7914 34.619 19.596 34.28 17.49 33.6144C17.2879 33.5577 17.1 33.4592 16.9383 33.3253C16.7767 33.1914 16.6449 33.025 16.5516 32.837C16.4583 32.6489 16.4055 32.4434 16.3966 32.2337C16.3877 32.0239 16.423 31.8147 16.5 31.6194C16.6443 31.2609 16.9213 30.9718 17.2734 30.8125C17.6255 30.6533 18.0255 30.636 18.39 30.7644C22.0267 31.9118 25.9284 31.9118 29.565 30.7644C29.9295 30.636 30.3296 30.6533 30.6817 30.8125C31.0338 30.9718 31.3108 31.2609 31.455 31.6194C31.5326 31.8127 31.5691 32.02 31.5621 32.2282C31.5551 32.4363 31.5049 32.6407 31.4146 32.8284C31.3243 33.0161 31.1959 33.1829 31.0376 33.3182C30.8792 33.4535 30.6945 33.5544 30.495 33.6144C28.3939 34.2785 26.2036 34.6174 24 34.6194Z" fill="#25DEB0"/>
<path d="M41.25 40.5593H6.75C5.35761 40.5593 4.02226 40.0061 3.03769 39.0216C2.05312 38.037 1.5 36.7016 1.5 35.3093V13.7393C1.5 12.3469 2.05312 11.0115 3.03769 10.0269C4.02226 9.04238 5.35761 8.48926 6.75 8.48926H41.25C42.6424 8.48926 43.9777 9.04238 44.9623 10.0269C45.9469 11.0115 46.5 12.3469 46.5 13.7393V35.3093C46.5 36.7016 45.9469 38.037 44.9623 39.0216C43.9777 40.0061 42.6424 40.5593 41.25 40.5593ZM6.75 11.4893C6.15326 11.4893 5.58097 11.7263 5.15901 12.1483C4.73705 12.5702 4.5 13.1425 4.5 13.7393V35.3093C4.5 35.906 4.73705 36.4783 5.15901 36.9002C5.58097 37.3222 6.15326 37.5593 6.75 37.5593H41.25C41.8467 37.5593 42.419 37.3222 42.841 36.9002C43.2629 36.4783 43.5 35.906 43.5 35.3093V13.7393C43.5 13.1425 43.2629 12.5702 42.841 12.1483C42.419 11.7263 41.8467 11.4893 41.25 11.4893H6.75Z" fill="#25DEB0"/>
<path d="M24 22.6944C22.827 22.6958 21.6739 22.3907 20.655 21.8094L3.78003 12.8094L5.19003 10.1694L22.11 19.1694C22.6765 19.493 23.3176 19.6632 23.97 19.6632C24.6224 19.6632 25.2635 19.493 25.83 19.1694L42.78 10.1694L44.19 12.8094L27.27 21.8094C26.2753 22.3833 25.1484 22.6883 24 22.6944Z" fill="#25DEB0"/>
</svg>
