<svg width="16" height="16" viewBox="0 0 16 16" fill="none" xmlns="http://www.w3.org/2000/svg">
<path d="M10.3703 1.48145H5.62959C3.33863 1.48145 1.48145 3.33863 1.48145 5.62959V10.3703C1.48145 12.6613 3.33863 14.5185 5.62959 14.5185H10.3703C12.6613 14.5185 14.5185 12.6613 14.5185 10.3703V5.62959C14.5185 3.33863 12.6613 1.48145 10.3703 1.48145Z" stroke="#25DEB0" stroke-width="1.5" stroke-linecap="round" stroke-linejoin="round"/>
<path d="M8 4.95996V8.557" stroke="#25DEB0" stroke-width="1.5" stroke-linecap="round" stroke-linejoin="round"/>
<path d="M7.99991 11.0399C8.16355 11.0399 8.29621 10.9072 8.29621 10.7436C8.29621 10.5799 8.16355 10.4473 7.99991 10.4473C7.83627 10.4473 7.70361 10.5799 7.70361 10.7436C7.70361 10.9072 7.83627 11.0399 7.99991 11.0399Z" stroke="#25DEB0" stroke-width="1.5" stroke-linecap="round" stroke-linejoin="round"/>
</svg>
