<svg width="13" height="14" viewBox="0 0 13 14" fill="none" xmlns="http://www.w3.org/2000/svg">
<path d="M1 13V11.9724C0.999997 11.2133 1.30096 10.4853 1.83691 9.94775C2.37286 9.41024 3.10007 9.10717 3.85911 9.10498H4.5221" stroke="#25DEB0" stroke-width="1.5" stroke-linecap="round" stroke-linejoin="round"/>
<path d="M8.45044 9.10498H9.11342C9.87247 9.10717 10.5997 9.41024 11.1356 9.94775C11.6716 10.4853 11.9725 11.2133 11.9725 11.9724V13" stroke="#25DEB0" stroke-width="1.5" stroke-linecap="round" stroke-linejoin="round"/>
<path d="M6.48569 9.58563C8.85655 9.58563 10.7785 7.66367 10.7785 5.29281C10.7785 2.92196 8.85655 1 6.48569 1C4.11483 1 2.19287 2.92196 2.19287 5.29281C2.19287 7.66367 4.11483 9.58563 6.48569 9.58563Z" stroke="#25DEB0" stroke-width="1.5" stroke-linecap="round" stroke-linejoin="round"/>
</svg>
