<svg width="49" height="49" viewBox="0 0 49 49" fill="none" xmlns="http://www.w3.org/2000/svg">
<g clip-path="url(#clip0_1586_994)">
<path d="M41.3572 6.6333C41.5026 7.06966 41.5026 26.1242 41.5026 26.1242C41.5026 29.3242 38.8844 31.9424 35.6844 31.9424C34.0844 31.9424 32.6299 33.2515 32.6299 34.9969V39.0697L36.9935 42.5606V36.306H40.0481C43.2481 36.306 45.8662 33.6878 45.8662 30.4878V12.306C45.8662 9.54239 43.9753 7.21512 41.3572 6.6333Z" fill="#25DEB0" fill-opacity="0.3"/>
<path d="M45.8663 14.7787C45.139 14.7787 44.4118 15.5059 44.4118 16.2332C44.4118 16.2332 44.4118 16.2332 44.4118 16.3787V30.4877C44.4118 32.815 42.5208 34.8514 40.0481 34.8514H36.9936C36.5572 34.8514 36.2663 34.9968 35.9754 35.2877C35.6845 35.5787 35.539 35.8696 35.539 36.3059V39.5059L30.1572 35.1423C29.8663 34.9968 29.5754 34.8514 29.2845 34.8514H8.04812H7.90266C7.17539 34.8514 6.44812 35.4332 6.44812 36.3059C6.44812 37.0332 7.02994 37.7605 7.90266 37.7605H16.6299H16.7754H28.8481L36.1208 43.7241C36.4118 43.8696 36.7027 44.015 36.9936 44.015C37.2845 44.015 37.4299 44.015 37.5754 43.8696C38.0118 43.5787 38.4481 43.1423 38.4481 42.5605V37.7605H40.0481C44.1208 37.7605 47.3208 34.5605 47.3208 30.4877V16.2332C47.3208 15.5059 46.5936 14.7787 45.8663 14.7787ZM3.68448 30.4877V12.3059C3.68448 9.97866 5.57539 7.94229 8.04812 7.94229H40.0481C42.3754 7.94229 44.2663 9.8332 44.4118 12.015C44.4118 12.7423 45.139 13.4696 46.0118 13.3241C46.8845 13.3241 47.4663 12.5968 47.3208 11.8696C47.0299 8.08775 43.9754 5.0332 40.1936 5.0332H8.04812C3.97539 5.0332 0.775391 8.2332 0.775391 12.3059V30.4877C0.775391 32.3787 1.50266 34.2696 2.95721 35.7241C3.24812 36.015 3.53903 36.1605 3.97539 36.1605C4.41175 36.1605 4.70266 36.015 4.99357 35.7241C5.28448 35.4332 5.42994 35.1423 5.42994 34.7059C5.42994 34.2696 5.28448 33.9787 4.99357 33.6877C4.12085 32.815 3.68448 31.6514 3.68448 30.4877Z" fill="#25DEB0"/>
<path d="M11.5391 20.5968C11.5391 21.9058 12.7027 23.0695 14.0118 23.0695C15.3209 23.0695 16.4845 21.9058 16.4845 20.5968C16.4845 19.2877 15.3209 18.124 14.0118 18.124C12.5572 18.124 11.5391 19.1422 11.5391 20.5968ZM21.5754 20.5968C21.5754 21.9058 22.7391 23.0695 24.0482 23.0695C25.3572 23.0695 26.5209 21.9058 26.5209 20.5968C26.5209 19.2877 25.3572 18.124 24.0482 18.124C22.7391 18.124 21.5754 19.1422 21.5754 20.5968ZM31.6118 20.5968C31.6118 21.9058 32.7754 23.0695 34.0845 23.0695C35.3936 23.0695 36.5572 21.9058 36.5572 20.5968C36.5572 19.2877 35.3936 18.124 34.0845 18.124C32.7754 18.124 31.6118 19.1422 31.6118 20.5968Z" fill="#25DEB0"/>
</g>
<defs>
<clipPath id="clip0_1586_994">
<rect width="48" height="48" fill="white" transform="translate(0.0480957 0.523926)"/>
</clipPath>
</defs>
</svg>
