<svg width="16" height="14" viewBox="0 0 16 14" fill="none" xmlns="http://www.w3.org/2000/svg">
<path d="M12.1481 3.57471H3.85182C2.5427 3.57471 1.48145 4.63596 1.48145 5.94508V10.194C1.48145 11.5031 2.5427 12.5643 3.85182 12.5643H12.1481C13.4572 12.5643 14.5185 11.5031 14.5185 10.194V5.94508C14.5185 4.63596 13.4572 3.57471 12.1481 3.57471Z" stroke="#25DEB0" stroke-width="1.5" stroke-linecap="round" stroke-linejoin="round"/>
<path d="M1.48145 9.86814V2.78666C1.48145 2.42832 1.62379 2.08466 1.87718 1.83128C2.13056 1.5779 2.47422 1.43555 2.83256 1.43555H7.32441C7.68274 1.43555 8.0264 1.5779 8.27979 1.83128C8.53317 2.08466 8.67552 2.42832 8.67552 2.78666V3.57481" stroke="#25DEB0" stroke-width="1.5" stroke-linecap="round" stroke-linejoin="round"/>
</svg>
