<svg width="22" height="22" viewBox="0 0 22 22" fill="none" xmlns="http://www.w3.org/2000/svg">
<path d="M15.8125 15.8125C16.3595 15.8125 16.8841 15.5952 17.2709 15.2084C17.6577 14.8216 17.875 14.297 17.875 13.75V4.8125C18.1007 4.78993 18.3198 4.72312 18.5197 4.6159C18.7196 4.50867 18.8964 4.36312 19.04 4.18756C19.1837 4.012 19.2913 3.80986 19.3568 3.5927C19.4224 3.37553 19.4445 3.14759 19.4219 2.92188C19.3993 2.69617 19.3325 2.47711 19.2253 2.27722C19.1181 2.07733 18.9725 1.90052 18.797 1.75688C18.6214 1.61324 18.4193 1.50558 18.2021 1.44006C17.9849 1.37454 17.757 1.35243 17.5313 1.375H4.46878C4.01294 1.32942 3.55766 1.46678 3.2031 1.75688C2.84854 2.04697 2.62374 2.46604 2.57816 2.92188C2.53257 3.37772 2.66994 3.833 2.96003 4.18756C3.25013 4.54212 3.66919 4.76692 4.12503 4.8125V13.75C4.12503 14.297 4.34233 14.8216 4.72913 15.2084C5.11592 15.5952 5.64052 15.8125 6.18753 15.8125H10.3125V16.6719L6.00191 17.875C5.8532 17.9166 5.72282 18.007 5.63178 18.1317C5.54074 18.2565 5.49433 18.4082 5.50003 18.5625V20.625H6.87503V19.0781L10.3125 18.1019V20.625H11.6875V18.1019L15.125 19.0781V20.625H16.5V18.5625C16.5057 18.4082 16.4593 18.2565 16.3683 18.1317C16.2772 18.007 16.1469 17.9166 15.9982 17.875L11.6875 16.6719V15.8125H15.8125ZM4.46878 2.75H17.5313C17.6225 2.75 17.7099 2.78622 17.7744 2.85068C17.8388 2.91515 17.875 3.00258 17.875 3.09375C17.875 3.18492 17.8388 3.27235 17.7744 3.33682C17.7099 3.40129 17.6225 3.4375 17.5313 3.4375H4.46878C4.37761 3.4375 4.29018 3.40129 4.22572 3.33682C4.16125 3.27235 4.12503 3.18492 4.12503 3.09375C4.12503 3.00258 4.16125 2.91515 4.22572 2.85068C4.29018 2.78622 4.37761 2.75 4.46878 2.75ZM5.50003 13.75V4.8125H16.5V13.75C16.5 13.9323 16.4276 14.1072 16.2987 14.2361C16.1697 14.3651 15.9949 14.4375 15.8125 14.4375H6.18753C6.0052 14.4375 5.83033 14.3651 5.7014 14.2361C5.57247 14.1072 5.50003 13.9323 5.50003 13.75Z" fill="#37383F"/>
<path d="M12.2514 9.36376L10.0376 7.70001C9.89437 7.59338 9.71526 7.54667 9.53818 7.56977C9.36111 7.59287 9.19997 7.68396 9.08887 7.82376L6.33887 11.2613L7.41137 12.1206L9.74887 9.19876L11.9626 10.8625C12.105 10.9699 12.2836 11.0178 12.4606 10.9959C12.6377 10.9741 12.7993 10.8844 12.9114 10.7456L15.6614 7.30814L14.5889 6.44876L12.2514 9.36376Z" fill="#25DEB0"/>
</svg>
