<svg width="24" height="24" viewBox="0 0 24 24" fill="none" xmlns="http://www.w3.org/2000/svg">
<path d="M16.0865 18.3117V18.3751C16.0865 19.3365 15.7087 20.2585 15.0361 20.9383C14.3635 21.6181 13.4512 22 12.5 22C11.5489 22 10.6366 21.6181 9.96403 20.9383C9.29143 20.2585 8.91357 19.3365 8.91357 18.3751V18.3117" stroke="white" stroke-linecap="round" stroke-linejoin="round"/>
<path d="M20.9999 12.9288V16.9524C20.9953 17.3084 20.8546 17.6488 20.6072 17.9022C20.3599 18.1556 20.025 18.3024 19.6729 18.3117H5.32699C4.97487 18.3024 4.64001 18.1556 4.39261 17.9022C4.14522 17.6488 4.00451 17.3084 4 16.9524V12.7838C3.99984 11.6434 4.22436 10.5143 4.66046 9.46243C5.09657 8.41058 5.73553 7.45701 6.54008 6.65735C7.34463 5.8577 8.29866 5.22795 9.34653 4.80485C10.3944 4.38174 11.5152 4.17375 12.6434 4.193C14.8894 4.2569 17.0215 5.20684 18.5833 6.83953C20.1451 8.47221 21.0125 10.6579 20.9999 12.9288V12.9288Z" stroke="white" stroke-width="1.5" stroke-miterlimit="10"/>
<path d="M16.6234 11.6239C16.6234 10.6217 16.2295 9.66052 15.5283 8.95184C14.8271 8.24316 13.8761 7.84503 12.8845 7.84503" stroke="white" stroke-width="1.5" stroke-linecap="round" stroke-linejoin="round"/>
<path d="M12.6162 4.19302V2" stroke="white" stroke-width="1.5" stroke-linecap="round" stroke-linejoin="round"/>
</svg>
