<svg width="347" height="255" viewBox="0 0 347 255" fill="none" xmlns="http://www.w3.org/2000/svg">
<g filter="url(#filter0_d_4_3136)">
<rect x="10" y="6" width="327" height="235" rx="20" fill="#21242D"/>
</g>
<line x1="10" y1="45.5" x2="336" y2="45.5" stroke="#5C6163" stroke-opacity="0.2" stroke-dasharray="5 5"/>
<line x1="10" y1="77.5" x2="336" y2="77.5" stroke="#5C6163" stroke-opacity="0.2" stroke-dasharray="5 5"/>
<line x1="10" y1="109.5" x2="336" y2="109.5" stroke="#5C6163" stroke-opacity="0.2" stroke-dasharray="5 5"/>
<line x1="10" y1="141.5" x2="336" y2="141.5" stroke="#5C6163" stroke-opacity="0.2" stroke-dasharray="5 5"/>
<line x1="10" y1="173.5" x2="336" y2="173.5" stroke="#5C6163" stroke-opacity="0.2" stroke-dasharray="5 5"/>
<line x1="10" y1="205.5" x2="336" y2="205.5" stroke="#5C6163" stroke-opacity="0.2" stroke-dasharray="5 5"/>
<path d="M254 22L254 223" stroke="url(#paint0_linear_4_3136)"/>
<g clip-path="url(#clip0_4_3136)" filter="url(#filter1_d_4_3136)">
<path d="M10 106.043L21.6782 109.093C27.6106 110.642 32.0029 115.646 32.77 121.73L37.3674 158.189C37.8633 162.122 41.208 165.071 45.1719 165.071V165.071C48.4406 165.071 51.3687 163.05 52.5274 159.993L53.2633 158.052C57.1281 147.858 71.9202 149.061 74.0868 159.746L82.1877 199.698C83.2115 204.747 90.2789 205.136 91.8498 200.229L107.702 150.72C109.181 146.098 114.617 144.106 118.733 146.677V146.677C122.404 148.97 127.249 147.659 129.264 143.829L137.886 127.435C140.287 122.869 146.871 123.009 149.076 127.673V127.673C151.736 133.3 160.089 132.01 160.927 125.842L161.823 119.252C162.808 112.008 172.784 110.815 175.45 117.622V117.622C177.733 123.451 185.897 123.678 188.5 117.985L194.608 104.623C196.37 100.77 200.218 98.2981 204.455 98.2981V98.2981C207.891 98.2981 211.124 99.9297 213.165 102.695L215.324 105.62C221.261 113.662 233.859 111.301 236.48 101.655L250.645 49.5264C251.693 45.6707 257.241 45.9114 257.951 49.8433L263.789 82.1773C265.971 94.2623 283.052 94.9312 286.172 83.0539V83.0539C286.594 81.4484 288.82 81.312 289.435 82.854L299.565 108.269C303.152 117.267 315.884 117.281 319.491 108.291L322.428 100.971C323.135 99.2079 324.197 97.6086 325.547 96.2722L336 85.9286" stroke="#00C566" stroke-width="2" stroke-linecap="round" stroke-linejoin="round"/>
</g>
<g filter="url(#filter2_d_4_3136)">
<rect x="165" y="31" width="70" height="24" rx="8" fill="#494D58" shape-rendering="crispEdges"/>
<path d="M177.37 47V45.24H173.58V44.59L177.37 39.55H178.07V44.59H178.98V45.24H178.07V47H177.37ZM174.19 44.88L174.1 44.59H177.37V40.24L177.62 40.31L174.19 44.88ZM183.669 47V45.24H179.879V44.59L183.669 39.55H184.369V44.59H185.279V45.24H184.369V47H183.669ZM180.489 44.88L180.399 44.59H183.669V40.24L183.919 40.31L180.489 44.88ZM186.748 47V45.9H187.548V47H186.748ZM190.029 47L192.619 43.61L192.769 43.52C192.669 43.68 192.552 43.8067 192.419 43.9C192.286 43.9933 192.139 44.06 191.979 44.1C191.819 44.14 191.642 44.16 191.449 44.16C191.016 44.16 190.626 44.06 190.279 43.86C189.932 43.6533 189.656 43.3733 189.449 43.02C189.249 42.66 189.149 42.25 189.149 41.79C189.149 41.3367 189.252 40.9333 189.459 40.58C189.672 40.2267 189.959 39.9467 190.319 39.74C190.686 39.5333 191.096 39.43 191.549 39.43C192.016 39.43 192.429 39.5367 192.789 39.75C193.149 39.9567 193.432 40.2467 193.639 40.62C193.846 40.9867 193.949 41.41 193.949 41.89C193.949 42.1567 193.916 42.42 193.849 42.68C193.789 42.94 193.696 43.1967 193.569 43.45C193.442 43.7033 193.282 43.9567 193.089 44.21L190.989 47H190.029ZM191.549 43.44C191.862 43.44 192.139 43.37 192.379 43.23C192.619 43.0833 192.806 42.8867 192.939 42.64C193.079 42.3867 193.149 42.1033 193.149 41.79C193.149 41.47 193.079 41.1867 192.939 40.94C192.799 40.6867 192.609 40.49 192.369 40.35C192.129 40.2033 191.856 40.13 191.549 40.13C191.242 40.13 190.969 40.2033 190.729 40.35C190.489 40.49 190.299 40.6867 190.159 40.94C190.019 41.1867 189.949 41.47 189.949 41.79C189.949 42.1033 190.016 42.3867 190.149 42.64C190.289 42.8867 190.479 43.0833 190.719 43.23C190.966 43.37 191.242 43.44 191.549 43.44ZM195.126 47V46.5L197.206 44.21C197.613 43.7633 197.943 43.3933 198.196 43.1C198.456 42.8067 198.649 42.54 198.776 42.3C198.903 42.06 198.966 41.8 198.966 41.52C198.966 41.0733 198.836 40.73 198.576 40.49C198.316 40.25 197.969 40.13 197.536 40.13C197.089 40.13 196.713 40.2567 196.406 40.51C196.106 40.7633 195.903 41.1167 195.796 41.57L195.066 41.41C195.153 41.0033 195.309 40.6533 195.536 40.36C195.763 40.0667 196.046 39.84 196.386 39.68C196.726 39.5133 197.106 39.43 197.526 39.43C197.973 39.43 198.363 39.52 198.696 39.7C199.029 39.88 199.289 40.1267 199.476 40.44C199.669 40.7533 199.766 41.1133 199.766 41.52C199.766 41.8 199.706 42.07 199.586 42.33C199.473 42.59 199.299 42.87 199.066 43.17C198.833 43.47 198.533 43.82 198.166 44.22L196.276 46.3H199.966V47H195.126ZM203.542 47.12C203.075 47.12 202.662 47.0167 202.302 46.81C201.942 46.5967 201.659 46.3067 201.452 45.94C201.245 45.5667 201.142 45.14 201.142 44.66C201.142 44.3933 201.172 44.13 201.232 43.87C201.299 43.61 201.395 43.3533 201.522 43.1C201.655 42.8467 201.815 42.5933 202.002 42.34L204.102 39.55H205.062L202.472 42.94L202.322 43.03C202.422 42.8633 202.539 42.7367 202.672 42.65C202.805 42.5567 202.952 42.49 203.112 42.45C203.279 42.41 203.455 42.39 203.642 42.39C204.075 42.39 204.465 42.4933 204.812 42.7C205.159 42.9 205.432 43.1767 205.632 43.53C205.839 43.8833 205.942 44.2933 205.942 44.76C205.942 45.2067 205.835 45.61 205.622 45.97C205.415 46.3233 205.132 46.6033 204.772 46.81C204.412 47.0167 204.002 47.12 203.542 47.12ZM203.542 46.42C203.849 46.42 204.122 46.35 204.362 46.21C204.602 46.0633 204.792 45.8633 204.932 45.61C205.072 45.3567 205.142 45.0733 205.142 44.76C205.142 44.44 205.072 44.1567 204.932 43.91C204.799 43.6633 204.612 43.47 204.372 43.33C204.132 43.1833 203.855 43.11 203.542 43.11C203.235 43.11 202.959 43.1833 202.712 43.33C202.472 43.47 202.282 43.6633 202.142 43.91C202.009 44.1567 201.942 44.44 201.942 44.76C201.942 45.0733 202.012 45.3567 202.152 45.61C202.292 45.8633 202.482 46.0633 202.722 46.21C202.962 46.35 203.235 46.42 203.542 46.42ZM207.309 48.3V47.95C207.509 47.8967 207.655 47.7933 207.749 47.64C207.842 47.4867 207.889 47.2733 207.889 47H207.509V45.9H208.309V46.74C208.309 47.1733 208.225 47.52 208.059 47.78C207.892 48.0467 207.642 48.22 207.309 48.3ZM210.819 47V40.25H209.419V39.55H211.619V47H210.819ZM213.3 47V46.5L215.38 44.21C215.786 43.7633 216.116 43.3933 216.37 43.1C216.63 42.8067 216.823 42.54 216.95 42.3C217.076 42.06 217.14 41.8 217.14 41.52C217.14 41.0733 217.01 40.73 216.75 40.49C216.49 40.25 216.143 40.13 215.71 40.13C215.263 40.13 214.886 40.2567 214.58 40.51C214.28 40.7633 214.076 41.1167 213.97 41.57L213.24 41.41C213.326 41.0033 213.483 40.6533 213.71 40.36C213.936 40.0667 214.22 39.84 214.56 39.68C214.9 39.5133 215.28 39.43 215.7 39.43C216.146 39.43 216.536 39.52 216.87 39.7C217.203 39.88 217.463 40.1267 217.65 40.44C217.843 40.7533 217.94 41.1133 217.94 41.52C217.94 41.8 217.88 42.07 217.76 42.33C217.646 42.59 217.473 42.87 217.24 43.17C217.006 43.47 216.706 43.82 216.34 44.22L214.45 46.3H218.14V47H213.3ZM223.805 47.12C223.332 47.12 222.902 47.03 222.515 46.85C222.128 46.67 221.802 46.43 221.535 46.13C221.268 45.8233 221.078 45.4867 220.965 45.12L221.685 44.85C221.858 45.3567 222.128 45.7433 222.495 46.01C222.862 46.27 223.298 46.4 223.805 46.4C224.125 46.4 224.405 46.35 224.645 46.25C224.892 46.1433 225.082 45.9967 225.215 45.81C225.348 45.6233 225.415 45.4067 225.415 45.16C225.415 44.7933 225.315 44.51 225.115 44.31C224.915 44.11 224.628 43.9567 224.255 43.85L222.915 43.45C222.388 43.2967 221.982 43.04 221.695 42.68C221.415 42.32 221.275 41.91 221.275 41.45C221.275 41.0567 221.372 40.71 221.565 40.41C221.758 40.1033 222.022 39.8633 222.355 39.69C222.695 39.5167 223.078 39.43 223.505 39.43C223.952 39.43 224.352 39.5133 224.705 39.68C225.065 39.84 225.368 40.0533 225.615 40.32C225.862 40.5867 226.038 40.8833 226.145 41.21L225.445 41.49C225.285 41.05 225.035 40.7167 224.695 40.49C224.362 40.2633 223.968 40.15 223.515 40.15C223.228 40.15 222.975 40.2 222.755 40.3C222.542 40.4 222.375 40.5433 222.255 40.73C222.135 40.9167 222.075 41.1367 222.075 41.39C222.075 41.6967 222.172 41.9733 222.365 42.22C222.558 42.46 222.855 42.64 223.255 42.76L224.435 43.11C225.022 43.2833 225.465 43.5333 225.765 43.86C226.065 44.1867 226.215 44.5967 226.215 45.09C226.215 45.49 226.112 45.8433 225.905 46.15C225.705 46.45 225.422 46.6867 225.055 46.86C224.695 47.0333 224.278 47.12 223.805 47.12ZM223.375 48V38.55H224.075V48H223.375Z" fill="white"/>
</g>
<circle cx="254" cy="46" r="4" fill="white"/>
<defs>
<filter id="filter0_d_4_3136" x="0" y="0" width="347" height="255" filterUnits="userSpaceOnUse" color-interpolation-filters="sRGB">
<feFlood flood-opacity="0" result="BackgroundImageFix"/>
<feColorMatrix in="SourceAlpha" type="matrix" values="0 0 0 0 0 0 0 0 0 0 0 0 0 0 0 0 0 0 127 0" result="hardAlpha"/>
<feOffset dy="4"/>
<feGaussianBlur stdDeviation="5"/>
<feComposite in2="hardAlpha" operator="out"/>
<feColorMatrix type="matrix" values="0 0 0 0 0 0 0 0 0 0 0 0 0 0 0 0 0 0 0.1 0"/>
<feBlend mode="normal" in2="BackgroundImageFix" result="effect1_dropShadow_4_3136"/>
<feBlend mode="normal" in="SourceGraphic" in2="effect1_dropShadow_4_3136" result="shape"/>
</filter>
<filter id="filter1_d_4_3136" x="0" y="16" width="347" height="221" filterUnits="userSpaceOnUse" color-interpolation-filters="sRGB">
<feFlood flood-opacity="0" result="BackgroundImageFix"/>
<feColorMatrix in="SourceAlpha" type="matrix" values="0 0 0 0 0 0 0 0 0 0 0 0 0 0 0 0 0 0 127 0" result="hardAlpha"/>
<feOffset dy="4"/>
<feGaussianBlur stdDeviation="5"/>
<feComposite in2="hardAlpha" operator="out"/>
<feColorMatrix type="matrix" values="0 0 0 0 0 0 0 0 0 0 0 0 0 0 0 0 0 0 0.25 0"/>
<feBlend mode="normal" in2="BackgroundImageFix" result="effect1_dropShadow_4_3136"/>
<feBlend mode="normal" in="SourceGraphic" in2="effect1_dropShadow_4_3136" result="shape"/>
</filter>
<filter id="filter2_d_4_3136" x="155" y="25" width="90" height="44" filterUnits="userSpaceOnUse" color-interpolation-filters="sRGB">
<feFlood flood-opacity="0" result="BackgroundImageFix"/>
<feColorMatrix in="SourceAlpha" type="matrix" values="0 0 0 0 0 0 0 0 0 0 0 0 0 0 0 0 0 0 127 0" result="hardAlpha"/>
<feOffset dy="4"/>
<feGaussianBlur stdDeviation="5"/>
<feComposite in2="hardAlpha" operator="out"/>
<feColorMatrix type="matrix" values="0 0 0 0 0 0 0 0 0 0 0 0 0 0 0 0 0 0 0.05 0"/>
<feBlend mode="normal" in2="BackgroundImageFix" result="effect1_dropShadow_4_3136"/>
<feBlend mode="normal" in="SourceGraphic" in2="effect1_dropShadow_4_3136" result="shape"/>
</filter>
<linearGradient id="paint0_linear_4_3136" x1="254.5" y1="22" x2="254.5" y2="223" gradientUnits="userSpaceOnUse">
<stop stop-color="#A7AEBF" stop-opacity="0"/>
<stop offset="0.537562" stop-color="#494D58"/>
<stop offset="1" stop-color="#A7AEBF" stop-opacity="0"/>
</linearGradient>
<clipPath id="clip0_4_3136">
<rect width="327" height="201" fill="white" transform="matrix(-1 0 0 1 337 22)"/>
</clipPath>
</defs>
</svg>
