<svg width="99" height="100" viewBox="0 0 99 100" fill="none" xmlns="http://www.w3.org/2000/svg">
<path d="M55.2882 44.5082H12.6831C12.0697 44.5082 11.4813 44.2645 11.0476 43.8307C10.6138 43.3969 10.3701 42.8086 10.3701 42.1952C10.3701 41.5817 10.6138 40.9934 11.0476 40.5597C11.4813 40.1259 12.0697 39.8822 12.6831 39.8822H55.2882C55.9016 39.8822 56.4899 40.1259 56.9237 40.5597C57.3575 40.9934 57.6012 41.5817 57.6012 42.1952C57.6012 42.8086 57.3575 43.3969 56.9237 43.8307C56.4899 44.2645 55.9016 44.5082 55.2882 44.5082Z" fill="#010712"/>
<path d="M26.3843 58.2056C26.0805 58.2058 25.7797 58.146 25.499 58.0299C25.2182 57.9137 24.9632 57.7434 24.7483 57.5287L11.0477 43.8297C10.6264 43.3935 10.3933 42.8092 10.3985 42.2027C10.4038 41.5963 10.647 41.0162 11.0759 40.5873C11.5047 40.1585 12.0849 39.9152 12.6913 39.9099C13.2978 39.9047 13.882 40.1378 14.3183 40.5591L28.0188 54.2612C28.3419 54.5847 28.5618 54.9966 28.6509 55.445C28.74 55.8934 28.6942 56.3582 28.5193 56.7806C28.3444 57.203 28.0483 57.5641 27.6683 57.8183C27.2883 58.0724 26.8415 58.2083 26.3843 58.2087V58.2056Z" fill="#010712"/>
<path d="M19.0889 38.1012C18.6314 38.1011 18.1842 37.9653 17.8039 37.7111C17.4235 37.4568 17.1272 37.0955 16.9522 36.6728C16.7772 36.2501 16.7316 35.785 16.8209 35.3363C16.9103 34.8876 17.1308 34.4756 17.4543 34.1522L24.7479 26.8586C25.1842 26.4372 25.7684 26.2041 26.3749 26.2094C26.9814 26.2146 27.5615 26.4579 27.9903 26.8867C28.4192 27.3156 28.6624 27.8957 28.6677 28.5022C28.673 29.1086 28.4398 29.6929 28.0185 30.1291L20.7249 37.4243C20.51 37.639 20.2549 37.8093 19.9742 37.9255C19.6935 38.0416 19.3926 38.1013 19.0889 38.1012Z" fill="#FED947"/>
<path d="M86.128 60.8008H43.5229C42.9095 60.8008 42.3212 60.5571 41.8874 60.1233C41.4537 59.6895 41.21 59.1012 41.21 58.4878C41.21 57.8743 41.4537 57.286 41.8874 56.8523C42.3212 56.4185 42.9095 56.1748 43.5229 56.1748H86.128C86.7415 56.1748 87.3298 56.4185 87.7635 56.8523C88.1973 57.286 88.441 57.8743 88.441 58.4878C88.441 59.1012 88.1973 59.6895 87.7635 60.1233C87.3298 60.5571 86.7415 60.8008 86.128 60.8008Z" fill="#010712"/>
<path d="M86.1291 60.8008C85.5161 60.8006 84.9282 60.5572 84.4946 60.1238L70.794 46.4217C70.5731 46.2084 70.3969 45.9532 70.2757 45.671C70.1545 45.3888 70.0906 45.0853 70.088 44.7781C70.0853 44.471 70.1438 44.1665 70.2601 43.8822C70.3764 43.5979 70.5482 43.3397 70.7653 43.1225C70.9825 42.9054 71.2408 42.7336 71.525 42.6173C71.8093 42.501 72.1139 42.4425 72.421 42.4452C72.7281 42.4478 73.0316 42.5116 73.3138 42.6329C73.596 42.7541 73.8512 42.9303 74.0646 43.1512L87.7651 56.8533C88.0883 57.1768 88.3083 57.5889 88.3973 58.0375C88.4863 58.486 88.4404 58.9509 88.2653 59.3734C88.0902 59.7958 87.7938 60.1569 87.4136 60.411C87.0334 60.665 86.5864 60.8007 86.1291 60.8008Z" fill="#010712"/>
<path d="M72.4277 74.5028C71.9702 74.5027 71.5231 74.3669 71.1427 74.1127C70.7624 73.8584 70.466 73.4971 70.2911 73.0744C70.1161 72.6517 70.0704 72.1866 70.1598 71.7379C70.2492 71.2892 70.4696 70.8772 70.7932 70.5538L78.0868 63.2586C78.5209 62.8249 79.1095 62.5814 79.7232 62.5817C80.3368 62.582 80.9252 62.8261 81.3589 63.2602C81.7926 63.6943 82.0361 64.2829 82.0358 64.8965C82.0355 65.5102 81.7915 66.0986 81.3574 66.5323L74.0638 73.8259C73.8489 74.0406 73.5938 74.2109 73.3131 74.3271C73.0324 74.4432 72.7315 74.5029 72.4277 74.5028Z" fill="#FED947"/>
</svg>
