<svg width="99" height="99" viewBox="0 0 99 99" fill="none" xmlns="http://www.w3.org/2000/svg">
<g clip-path="url(#clip0_168_6130)">
<path d="M91.5203 92.2258H7.28928C5.75568 92.2258 4.2849 91.6166 3.20048 90.5322C2.11606 89.4478 1.50684 87.977 1.50684 86.4434V39.7983L46.0126 7.56076C46.9993 6.84605 48.1865 6.46124 49.4048 6.46124C50.6231 6.46124 51.8103 6.84605 52.797 7.56076L97.3027 39.7983V86.4434C97.3027 87.977 96.6935 89.4478 95.6091 90.5322C94.5247 91.6166 93.0539 92.2258 91.5203 92.2258Z" fill="#010712"/>
<path d="M52.7964 7.56076C51.8097 6.84605 50.6225 6.46124 49.4042 6.46124C48.1859 6.46124 46.9987 6.84605 46.012 7.56076L45.0674 8.24502L83.2901 35.9314C84.9432 37.1288 86.2888 38.7009 87.2168 40.5189C88.1447 42.3369 88.6285 44.349 88.6285 46.3901V86.4434C88.6285 87.977 88.0193 89.4478 86.9349 90.5322C85.8504 91.6166 84.3796 92.2258 82.846 92.2258H91.5197C93.0533 92.2258 94.5241 91.6166 95.6085 90.5322C96.6929 89.4478 97.3022 87.977 97.3022 86.4434V39.7983L52.7964 7.56076Z" fill="#0A1222"/>
<path d="M30.4192 28.2334H68.3906C69.9242 28.2334 71.395 28.8426 72.4794 29.927C73.5638 31.0115 74.173 32.4822 74.173 34.0158V89.3346H24.6367V34.0158C24.6367 32.4822 25.2459 31.0115 26.3304 29.927C27.4148 28.8426 28.8856 28.2334 30.4192 28.2334Z" fill="white"/>
<path d="M68.3914 28.2334H59.7178C61.2514 28.2334 62.7222 28.8426 63.8066 29.927C64.891 31.0115 65.5002 32.4822 65.5002 34.0158V89.3346H74.1739V34.0158C74.1739 32.4822 73.5647 31.0115 72.4803 29.927C71.3958 28.8426 69.925 28.2334 68.3914 28.2334Z" fill="#E1E1E3"/>
<path d="M55.3929 75.062H43.4171C41.9625 75.0619 40.5675 74.4841 39.539 73.4555C38.5104 72.4269 37.9326 71.0319 37.9326 69.5773C37.9326 68.2741 38.2869 66.9953 38.9575 65.8779C39.6282 64.7605 40.5901 63.8464 41.7402 63.2334L49.405 59.1485L57.0698 63.2334C58.2199 63.8464 59.1818 64.7605 59.8524 65.8779C60.5231 66.9953 60.8774 68.2741 60.8774 69.5773C60.8773 71.0319 60.2995 72.4269 59.271 73.4554C58.2424 74.4839 56.8475 75.0617 55.3929 75.0618V75.062Z" fill="#EB304A"/>
<path d="M57.0687 63.2334L49.4039 59.1485L46.5127 60.6893L51.2863 63.2334C52.4364 63.8464 53.3983 64.7604 54.069 65.8779C54.7397 66.9953 55.094 68.2741 55.094 69.5773C55.094 71.0319 54.5161 72.4269 53.4876 73.4554C52.459 74.484 51.064 75.0618 49.6094 75.0618H55.3918C56.8464 75.0618 58.2414 74.484 59.27 73.4554C60.2986 72.4269 60.8764 71.0319 60.8765 69.5773C60.8765 68.2741 60.5222 66.9953 59.8515 65.8779C59.1808 64.7604 58.2189 63.8464 57.0687 63.2334Z" fill="#E4222E"/>
<path d="M46.3757 56.5114H52.5583C52.672 56.5114 52.781 56.5565 52.8613 56.6368C52.9417 56.7172 52.9868 56.8262 52.9868 56.9398V60.0735C52.9868 60.5357 52.8958 60.9934 52.7189 61.4205C52.542 61.8475 52.2827 62.2355 51.9559 62.5623C51.629 62.8891 51.241 63.1484 50.814 63.3253C50.3869 63.5021 49.9293 63.5931 49.467 63.5931C49.0048 63.5931 48.5471 63.5021 48.1201 63.3253C47.6931 63.1484 47.305 62.8891 46.9782 62.5623C46.6514 62.2355 46.3921 61.8475 46.2152 61.4205C46.0383 60.9934 45.9473 60.5357 45.9473 60.0735V56.9398C45.9473 56.8262 45.9924 56.7172 46.0728 56.6368C46.1531 56.5565 46.2621 56.5114 46.3757 56.5114Z" fill="#FBBF7D"/>
<path d="M56.3304 49.4322V51.8339C56.3304 53.6706 55.6007 55.4321 54.302 56.7309C53.0032 58.0297 51.2417 58.7593 49.4049 58.7593C47.5682 58.7593 45.8067 58.0297 44.5079 56.7309C43.2091 55.4321 42.4795 53.6706 42.4795 51.8339V49.4322C42.4795 47.5955 43.2091 45.834 44.5079 44.5352C45.8067 43.2364 47.5682 42.5068 49.4049 42.5068C51.2417 42.5068 53.0032 43.2364 54.302 44.5352C55.6007 45.834 56.3304 47.5955 56.3304 49.4322Z" fill="#FDD8AE"/>
<path d="M54.3014 44.5345C53.4845 43.7181 52.4764 43.1188 51.3689 42.7913C50.2614 42.4637 49.0895 42.4183 47.96 42.6591C49.5106 42.9904 50.9006 43.8437 51.8979 45.0764C52.8952 46.3091 53.4395 47.8466 53.4398 49.4322V51.8339C53.4394 53.4195 52.8951 54.957 51.8978 56.1896C50.9005 57.4223 49.5105 58.2756 47.96 58.6071C48.9694 58.8223 50.0142 58.8092 51.0179 58.5688C52.0216 58.3284 52.9589 57.8667 53.7613 57.2175C54.5637 56.5683 55.2108 55.748 55.6554 54.8165C56.1 53.8851 56.3308 52.866 56.331 51.8339V49.4322C56.3323 48.5224 56.1537 47.6212 55.8054 46.7807C55.457 45.9401 54.9459 45.1767 54.3014 44.5345Z" fill="#FBBF7D"/>
<path d="M56.3304 49.4322V50.1088C54.3976 50.8587 52.2816 50.9993 50.2665 50.5116C49.3425 50.2763 48.459 49.904 47.6451 49.4072C46.0469 50.2001 44.2437 50.4827 42.4795 50.2167V49.4322C42.4795 47.5955 43.2091 45.834 44.5079 44.5352C45.8067 43.2364 47.5682 42.5068 49.4049 42.5068C51.2417 42.5068 53.0032 43.2364 54.302 44.5352C55.6007 45.834 56.3304 47.5955 56.3304 49.4322Z" fill="#787681"/>
<path d="M54.3009 44.5346C53.2311 43.4647 51.8402 42.7748 50.3412 42.5703C48.8421 42.3658 47.3173 42.6581 46 43.4023C46.171 43.3891 46.3424 43.3822 46.5139 43.3815C48.3505 43.3818 50.1119 44.1115 51.4106 45.4102C52.7093 46.7089 53.4391 48.4703 53.4393 50.307V50.7678C54.4289 50.6829 55.4019 50.4611 56.3305 50.1088V49.4323C56.3319 48.5224 56.1532 47.6213 55.8049 46.7807C55.4566 45.9401 54.9454 45.1768 54.3009 44.5346Z" fill="#57565C"/>
<path d="M97.3027 39.7986V86.4437C97.3015 87.9769 96.6918 89.4469 95.6077 90.5311C94.5235 91.6152 93.0535 92.2248 91.5203 92.2261H7.28928C5.75601 92.225 4.28585 91.6155 3.20166 90.5313C2.11747 89.4471 1.50791 87.9769 1.50684 86.4437V39.7986L32.0921 61.9531L46.0124 72.0357C46.999 72.7508 48.1863 73.1358 49.4048 73.1358C50.6233 73.1358 51.8106 72.7508 52.7972 72.0357L67.0547 61.7083L97.3027 39.7986Z" fill="url(#paint0_linear_168_6130)"/>
<path d="M97.3027 39.7986V86.4437C97.3043 87.8784 96.7702 89.2621 95.8051 90.3237L95.5873 90.2755L67.3978 62.0861L67.0547 61.7083L97.3027 39.7986ZM32.0921 61.9531L31.9803 62.0861L3.79091 90.2755L3.36879 90.6918C2.78083 90.1515 2.31168 89.4949 1.99114 88.7635C1.6706 88.0322 1.50567 87.2422 1.50684 86.4437V39.7986L32.0921 61.9531Z" fill="#25DEB0"/>
<path d="M97.3038 39.7986V86.4437C97.3038 86.5439 97.3018 86.6422 97.2961 86.7405C97.2922 86.8272 97.2864 86.912 97.2768 86.9969C97.2732 87.0511 97.2668 87.1052 97.2575 87.1588C97.2533 87.2137 97.2462 87.2684 97.2363 87.3226C97.2248 87.3997 97.2132 87.4749 97.1958 87.55C97.1885 87.5995 97.1782 87.6484 97.165 87.6965C97.1554 87.7546 97.1418 87.8119 97.1245 87.8681C97.1072 87.9432 97.086 88.0184 97.0628 88.0936C97.0474 88.1476 97.032 88.2015 97.0127 88.2555C97.0012 88.2921 96.9896 88.3268 96.9761 88.3615C96.9626 88.4039 96.9472 88.4463 96.9298 88.4868C96.9102 88.5444 96.8877 88.601 96.8624 88.6564C96.8546 88.6787 96.8456 88.7006 96.8354 88.722C96.8138 88.7778 96.7893 88.8325 96.7622 88.8858C96.7429 88.9282 96.7236 88.9706 96.7005 89.013C96.6928 89.0303 96.6851 89.0477 96.6754 89.065C96.6407 89.1344 96.6041 89.2019 96.5656 89.2694C96.5656 89.2713 96.5656 89.2713 96.5636 89.2732C96.5231 89.3445 96.4827 89.4139 96.4403 89.4814C96.4306 89.4968 96.421 89.5122 96.4114 89.5257C96.3728 89.5893 96.3323 89.651 96.2899 89.7108C96.1434 89.9263 95.9817 90.1311 95.8061 90.3237C95.8042 90.3256 95.8023 90.3295 95.8003 90.3314C95.7367 90.4027 95.6712 90.4721 95.6018 90.5376C95.5324 90.607 95.4611 90.6745 95.3879 90.74C95.3146 90.8075 95.2414 90.8711 95.1643 90.9328C95.0949 90.9906 95.0236 91.0465 94.9503 91.0985C94.8829 91.1487 94.8135 91.1968 94.7441 91.2431C94.6708 91.2951 94.5957 91.3414 94.5186 91.3877C94.4627 91.4243 94.4048 91.4571 94.3451 91.4898C94.2988 91.5168 94.2526 91.5419 94.2044 91.565C94.1743 91.582 94.1435 91.5974 94.1119 91.6112C94.0711 91.6355 94.0285 91.6568 93.9847 91.6749C93.9133 91.7096 93.842 91.7423 93.7707 91.7712L93.7688 91.7732C93.684 91.8079 93.5972 91.8425 93.5086 91.8753C93.5023 91.8784 93.4959 91.881 93.4893 91.883C93.4103 91.91 93.3293 91.9389 93.2484 91.964C93.2329 91.9678 93.2175 91.9736 93.2021 91.9775C93.125 92.0006 93.046 92.0237 92.965 92.043C92.8763 92.0661 92.7858 92.0873 92.6932 92.1066C92.6894 92.1085 92.6836 92.1085 92.6797 92.1105C92.5892 92.1278 92.4947 92.1452 92.4022 92.1587C92.3328 92.1702 92.2615 92.1799 92.1921 92.1856C92.1783 92.1896 92.164 92.1915 92.1497 92.1914C92.1131 92.1972 92.0745 92.1991 92.0379 92.203C91.9646 92.2107 91.8914 92.2146 91.8182 92.2184C91.7199 92.2242 91.6216 92.2261 91.5213 92.2261H82.8477C83.607 92.2262 84.359 92.0766 85.0606 91.7861C85.7621 91.4955 86.3996 91.0696 86.9366 90.5326C87.4735 89.9956 87.8995 89.3582 88.19 88.6566C88.4806 87.955 88.6302 87.203 88.6301 86.4437V46.3906C88.6301 46.2884 88.6282 46.1863 88.6263 46.0841L97.3038 39.7986Z" fill="#EAB234"/>
<path d="M97.3038 39.7986V86.4437C97.3038 86.5439 97.3018 86.6422 97.2961 86.7405C97.2922 86.8272 97.2864 86.912 97.2768 86.9969C97.2732 87.0511 97.2668 87.1052 97.2575 87.1588C97.2533 87.2137 97.2462 87.2684 97.2363 87.3226C97.2248 87.3997 97.2132 87.4749 97.1958 87.55C97.1885 87.5995 97.1782 87.6484 97.165 87.6965C97.1554 87.7546 97.1418 87.8119 97.1245 87.8681C97.1072 87.9432 97.086 88.0184 97.0628 88.0936C97.0474 88.1476 97.032 88.2015 97.0127 88.2555C97.0012 88.2921 96.9896 88.3268 96.9761 88.3615C96.9626 88.4039 96.9472 88.4463 96.9298 88.4868C96.9102 88.5444 96.8877 88.601 96.8624 88.6564C96.8546 88.6787 96.8456 88.7006 96.8354 88.722C96.8138 88.7778 96.7893 88.8325 96.7622 88.8858C96.7429 88.9282 96.7236 88.9706 96.7005 89.013C96.6928 89.0303 96.6851 89.0477 96.6754 89.065C96.6407 89.1344 96.6041 89.2019 96.5656 89.2694C96.5656 89.2713 96.5656 89.2713 96.5636 89.2732C96.5231 89.3445 96.4827 89.4139 96.4403 89.4814C96.4306 89.4968 96.421 89.5122 96.4114 89.5257C96.3728 89.5893 96.3323 89.651 96.2899 89.7108C96.1422 89.9254 95.9806 90.1301 95.8061 90.3237C95.8042 90.3256 95.8023 90.3295 95.8003 90.3314C95.7348 90.4027 95.6693 90.4702 95.6018 90.5376C95.5324 90.607 95.4611 90.6745 95.3879 90.74C95.3146 90.8075 95.2414 90.8711 95.1643 90.9328C95.0949 90.9906 95.0236 91.0465 94.9503 91.0985C94.8829 91.1487 94.8135 91.1968 94.7441 91.2431C94.6708 91.2951 94.5957 91.3414 94.5186 91.3877C94.4627 91.4243 94.4048 91.4571 94.3451 91.4898C94.2988 91.5168 94.2526 91.5419 94.2044 91.565C94.1743 91.582 94.1435 91.5974 94.1119 91.6112C94.0711 91.6355 94.0285 91.6568 93.9847 91.6749C93.9133 91.7096 93.842 91.7423 93.7707 91.7712L93.7688 91.7732C93.684 91.8079 93.5972 91.8425 93.5086 91.8753C93.5023 91.8784 93.4959 91.881 93.4893 91.883C93.4103 91.91 93.3293 91.9389 93.2484 91.964C93.2329 91.9678 93.2175 91.9736 93.2021 91.9775C93.125 92.0006 93.046 92.0237 92.965 92.043C92.8763 92.0661 92.7858 92.0873 92.6932 92.1066C92.6894 92.1085 92.6836 92.1085 92.6797 92.1105C92.5892 92.1278 92.4947 92.1452 92.4022 92.1587C92.3328 92.1702 92.2615 92.1799 92.1921 92.1856C92.1783 92.1896 92.164 92.1915 92.1497 92.1914C92.1131 92.1972 92.0745 92.1991 92.0379 92.203C91.9646 92.2107 91.8914 92.2146 91.8182 92.2184C91.7199 92.2242 91.6216 92.2261 91.5213 92.2261H82.8477C83.607 92.2262 84.359 92.0766 85.0606 91.7861C85.7621 91.4955 86.3996 91.0696 86.9366 90.5326C87.4735 89.9956 87.8995 89.3582 88.19 88.6566C88.4806 87.955 88.6302 87.203 88.6301 86.4437V46.3906C88.6301 46.2884 88.6282 46.1863 88.6263 46.0841L97.3038 39.7986Z" fill="#25DEB0"/>
<path d="M95.5883 90.2755L95.8061 90.3237C95.8042 90.3256 95.8023 90.3295 95.8003 90.3314C95.7348 90.4027 95.6693 90.4702 95.6018 90.5377C95.5324 90.6071 95.4611 90.6745 95.3879 90.7401C95.3146 90.8075 95.2414 90.8711 95.1643 90.9328C95.0949 90.9906 95.0236 91.0465 94.9503 91.0986C94.8829 91.1487 94.8135 91.1969 94.7441 91.2431C94.6708 91.2952 94.5957 91.3414 94.5186 91.3877C94.4627 91.4243 94.4048 91.4571 94.3451 91.4898C94.2988 91.5168 94.2526 91.5419 94.2044 91.565C94.1743 91.582 94.1435 91.5974 94.1119 91.6113C94.0711 91.6355 94.0285 91.6568 93.9847 91.6749C93.9133 91.7096 93.842 91.7423 93.7707 91.7713L93.7688 91.7732C93.684 91.8079 93.5972 91.8426 93.5086 91.8753C93.5023 91.8784 93.4959 91.881 93.4893 91.8831C93.4103 91.91 93.3293 91.9389 93.2484 91.964C93.2329 91.9679 93.2175 91.9736 93.2021 91.9775C93.125 92.0006 93.046 92.0238 92.965 92.043C92.8763 92.0662 92.7858 92.0874 92.6932 92.1066C92.6894 92.1086 92.6836 92.1086 92.6797 92.1105C92.5892 92.1278 92.4947 92.1452 92.4022 92.1587C92.3328 92.1702 92.2615 92.1799 92.1921 92.1857C92.1783 92.1896 92.164 92.1916 92.1497 92.1914C92.1131 92.1972 92.0745 92.1992 92.0379 92.203C91.9646 92.2107 91.8914 92.2146 91.8182 92.2184C91.7199 92.2242 91.6216 92.2261 91.5213 92.2261H82.8477C83.607 92.2262 84.359 92.0767 85.0606 91.7861C85.7621 91.4955 86.3996 91.0696 86.9366 90.5326C87.4735 89.9957 87.8995 89.3582 88.19 88.6566C88.4806 87.955 88.6302 87.2031 88.6301 86.4437V83.3173L95.5883 90.2755Z" fill="#25DEB0"/>
</g>
<defs>
<linearGradient id="paint0_linear_168_6130" x1="49.4048" y1="39.7986" x2="49.4048" y2="92.2261" gradientUnits="userSpaceOnUse">
<stop stop-color="#25DEB0"/>
<stop offset="1" stop-color="#0CC899"/>
</linearGradient>
<clipPath id="clip0_168_6130">
<rect width="98.6871" height="98.6871" fill="white" transform="translate(0.0615234)"/>
</clipPath>
</defs>
</svg>
