<svg width="99" height="100" viewBox="0 0 99 100" fill="none" xmlns="http://www.w3.org/2000/svg">
<path d="M97.3037 43.7455V87.4396C97.3037 87.5283 97.3018 87.615 97.296 87.7018C97.2973 87.7191 97.2966 87.7366 97.2941 87.7538C97.2902 87.8367 97.2844 87.9196 97.2767 88.0024V88.0044C97.2729 88.0333 97.271 88.0603 97.2671 88.0873C97.2594 88.1644 97.2497 88.2434 97.2363 88.3205C97.2221 88.418 97.2047 88.5151 97.1842 88.6115C97.1649 88.704 97.1437 88.7966 97.1206 88.8891C97.0975 88.9797 97.0724 89.0703 97.0435 89.1589C97.0011 89.2939 96.9529 89.4288 96.9028 89.5599C96.8527 89.6909 96.7949 89.8181 96.7332 89.9454C96.6927 90.0282 96.6522 90.1111 96.6079 90.1921C96.606 90.194 96.606 90.1959 96.604 90.1979C96.5159 90.3608 96.4194 90.519 96.3149 90.672C96.259 90.7568 96.1993 90.8416 96.1357 90.9226C96.0971 90.9765 96.0547 91.0286 96.0123 91.0806C95.9949 91.1038 95.9757 91.1269 95.9564 91.1481C95.9063 91.2098 95.8542 91.2676 95.8003 91.3274C95.7425 91.391 95.6827 91.4546 95.621 91.5162C95.5497 91.5876 95.4745 91.6589 95.3994 91.7283C95.3666 91.7572 95.3338 91.7861 95.3011 91.8131C95.2336 91.8728 95.1642 91.9287 95.0929 91.9846C95.0466 92.0212 94.9984 92.0579 94.9522 92.0926C94.904 92.1273 94.8558 92.1619 94.8076 92.1947C94.7575 92.2275 94.7093 92.2603 94.6592 92.293C94.6033 92.3296 94.5455 92.3663 94.4877 92.401C94.4298 92.4357 94.372 92.4703 94.3123 92.5031C94.2525 92.5359 94.1928 92.5667 94.133 92.5976C94.0867 92.6226 94.0405 92.6458 93.9923 92.667C93.921 92.7036 93.8458 92.7363 93.7706 92.7672C93.6974 92.798 93.6241 92.8269 93.549 92.8558C93.5124 92.8693 93.4777 92.8828 93.441 92.8944C93.3909 92.9137 93.3408 92.9291 93.2907 92.9445C93.2686 92.9527 93.2461 92.9598 93.2232 92.9657C93.0561 93.0184 92.8862 93.0622 92.7144 93.0968C92.6962 93.1027 92.6775 93.1065 92.6585 93.1083C92.5737 93.1276 92.4889 93.143 92.4021 93.1546C92.3231 93.1681 92.2421 93.1777 92.1631 93.1874C92.1554 93.1874 92.1496 93.1893 92.1419 93.1893C92.1111 93.1932 92.0802 93.1951 92.0494 93.197C91.9819 93.2047 91.9145 93.2086 91.847 93.2124C91.831 93.214 91.8149 93.2147 91.7988 93.2144C91.7082 93.2201 91.6138 93.2221 91.5213 93.2221H7.29026C7.20353 93.2221 7.11679 93.2201 7.03198 93.2163C7.0127 93.2163 6.99343 93.2144 6.97415 93.2124C6.90091 93.2105 6.82767 93.2047 6.75442 93.197C6.74478 93.197 6.73707 93.1951 6.72936 93.1951C6.68696 93.1912 6.64455 93.1874 6.60408 93.1816C6.53854 93.1739 6.47301 93.1662 6.4094 93.1546C6.31688 93.1411 6.22629 93.1257 6.1357 93.1064C6.12975 93.1061 6.12389 93.1048 6.11835 93.1026C6.02583 93.0833 5.93331 93.0621 5.84079 93.039C5.7502 93.0158 5.65961 92.9908 5.57095 92.9619C5.48614 92.9349 5.40133 92.9079 5.31845 92.877L5.27219 92.8597C5.19316 92.8308 5.11606 92.7999 5.04089 92.7672C4.86952 92.6948 4.70164 92.6144 4.53782 92.5262C4.52625 92.5205 4.51661 92.5147 4.50505 92.5089C4.35085 92.4241 4.20243 92.3316 4.05787 92.2333C3.99234 92.1889 3.9268 92.1446 3.8632 92.0964C3.83428 92.0752 3.80537 92.054 3.77646 92.0309C3.73791 92.002 3.70129 91.9731 3.66467 91.9422C3.63021 91.9174 3.59738 91.8903 3.56636 91.8613C3.5624 91.8598 3.55902 91.8571 3.55673 91.8536C3.50468 91.8092 3.45264 91.7649 3.40253 91.7186C3.34278 91.6647 3.28302 91.6088 3.2252 91.549C3.21364 91.5394 3.20207 91.5278 3.19051 91.5162C3.13654 91.4623 3.08449 91.4083 3.03438 91.3524C2.88201 91.1889 2.74036 91.0157 2.61033 90.8339C2.57371 90.7838 2.53902 90.7337 2.50432 90.6836C2.49852 90.6763 2.49336 90.6686 2.4889 90.6604C2.43879 90.5872 2.3906 90.512 2.34627 90.4369C2.30965 90.379 2.27495 90.3193 2.24026 90.2576C2.22098 90.2248 2.20171 90.1901 2.18436 90.1535C2.14774 90.0841 2.11111 90.0167 2.07835 89.9454C2.03594 89.8586 1.99547 89.77 1.95884 89.6794C1.92608 89.6023 1.89331 89.5232 1.8644 89.4423C1.83356 89.3613 1.80657 89.2784 1.77959 89.1936C1.76995 89.1647 1.76031 89.1339 1.7526 89.103C1.72947 89.0317 1.70827 88.9585 1.69092 88.8833C1.66779 88.8024 1.64852 88.7175 1.63117 88.6327C1.62685 88.6163 1.62363 88.5995 1.62153 88.5826C1.60611 88.5055 1.59069 88.4265 1.57913 88.3475C1.57547 88.3309 1.5729 88.3142 1.57142 88.2973C1.55985 88.2183 1.55022 88.1412 1.54058 88.0622C1.53865 88.0352 1.5348 88.0082 1.53287 87.9793C1.52516 87.908 1.52131 87.8348 1.51745 87.7615C1.51584 87.7442 1.5152 87.7268 1.51552 87.7095C1.50974 87.6208 1.50781 87.5302 1.50781 87.4396V43.7455C1.50757 42.8317 1.72408 41.9309 2.13956 41.117C2.55504 40.3032 3.15765 39.5994 3.89789 39.0637L46.0134 8.55738C47 7.84231 48.1873 7.45728 49.4058 7.45728C50.6242 7.45728 51.8116 7.84231 52.7981 8.55738L94.9136 39.0637C95.6539 39.5994 96.2565 40.3032 96.672 41.117C97.0874 41.9309 97.304 42.8317 97.3037 43.7455Z" fill="#010712"/>
<path d="M96.7213 41.2167C96.3053 40.361 95.6842 39.6214 94.9134 39.0637L52.7979 8.55738C51.8113 7.84231 50.624 7.45728 49.4055 7.45728C48.187 7.45728 46.9997 7.84231 46.0131 8.55738L43.623 10.2887L83.3485 39.0637C84.0887 39.5994 84.6913 40.3032 85.1068 41.117C85.5223 41.9309 85.7388 42.8317 85.7385 43.7455V87.4396C85.7385 87.5283 85.7366 87.615 85.7308 87.7018C85.7321 87.7191 85.7315 87.7366 85.7289 87.7538C85.7251 87.8367 85.7193 87.9196 85.7116 88.0024V88.0044C85.7077 88.0333 85.7058 88.0603 85.7019 88.0873C85.6942 88.1644 85.6846 88.2434 85.6711 88.3205C85.6569 88.418 85.6395 88.5151 85.619 88.6115C85.5998 88.704 85.5786 88.7966 85.5554 88.8891C85.5323 88.9797 85.5072 89.0703 85.4783 89.1589C85.4359 89.2939 85.3877 89.4288 85.3376 89.5599C85.2875 89.6909 85.2297 89.8181 85.168 89.9454C85.1275 90.0282 85.0871 90.1111 85.0427 90.1921C85.0408 90.194 85.0408 90.1959 85.0389 90.1979C84.9507 90.3608 84.8542 90.519 84.7497 90.672C84.6938 90.7568 84.6341 90.8416 84.5705 90.9226C84.5319 90.9765 84.4895 91.0286 84.4471 91.0806C84.4298 91.1038 84.4105 91.1269 84.3912 91.1481C84.3411 91.2098 84.2891 91.2676 84.2351 91.3274C84.1773 91.391 84.1175 91.4546 84.0559 91.5162C83.9845 91.5876 83.9094 91.6589 83.8342 91.7283C83.8014 91.7572 83.7687 91.7861 83.7359 91.8131C83.6684 91.8728 83.599 91.9287 83.5277 91.9846C83.4815 92.0212 83.4333 92.0579 83.387 92.0926C83.3388 92.1273 83.2906 92.1619 83.2425 92.1947C83.1923 92.2275 83.1442 92.2603 83.094 92.293C83.0381 92.3296 82.9803 92.3663 82.9225 92.401C82.8647 92.4357 82.8068 92.4703 82.7471 92.5031C82.6873 92.5359 82.6276 92.5667 82.5678 92.5976C82.5216 92.6226 82.4753 92.6458 82.4271 92.667C82.3558 92.7036 82.2806 92.7363 82.2055 92.7672C82.1322 92.798 82.059 92.8269 81.9838 92.8558C81.9472 92.8693 81.9125 92.8828 81.8759 92.8944C81.8258 92.9137 81.7756 92.9291 81.7255 92.9445C81.7034 92.9527 81.6809 92.9598 81.6581 92.9657C81.4909 93.0184 81.321 93.0622 81.1492 93.0968C81.1311 93.1027 81.1123 93.1065 81.0933 93.1083C81.0085 93.1276 80.9237 93.143 80.837 93.1546C80.7579 93.1681 80.677 93.1777 80.5979 93.1874C80.5902 93.1874 80.5845 93.1893 80.5767 93.1893C80.5459 93.1932 80.5151 93.1951 80.4842 93.197C80.4168 93.2047 80.3493 93.2086 80.2818 93.2124C80.2658 93.214 80.2497 93.2147 80.2337 93.2144C80.1431 93.2201 80.0486 93.2221 79.9561 93.2221H91.521C91.6135 93.2221 91.708 93.2201 91.7986 93.2144C91.8146 93.2147 91.8307 93.214 91.8467 93.2124C91.9142 93.2086 91.9817 93.2047 92.0491 93.197C92.08 93.1951 92.1108 93.1932 92.1416 93.1893C92.1494 93.1893 92.1551 93.1874 92.1628 93.1874C92.2419 93.1777 92.3228 93.1681 92.4019 93.1546C92.4886 93.143 92.5734 93.1276 92.6582 93.1083C92.6772 93.1065 92.696 93.1027 92.7141 93.0968C92.8859 93.0622 93.0558 93.0184 93.223 92.9657C93.2458 92.9598 93.2683 92.9527 93.2904 92.9445C93.3405 92.9291 93.3907 92.9137 93.4408 92.8944C93.4774 92.8828 93.5121 92.8693 93.5487 92.8558C93.6239 92.8269 93.6971 92.798 93.7704 92.7672C93.8455 92.7363 93.9207 92.7036 93.992 92.667C94.0402 92.6458 94.0865 92.6226 94.1327 92.5976C94.1925 92.5667 94.2522 92.5359 94.312 92.5031C94.3717 92.4703 94.4296 92.4357 94.4874 92.401C94.5452 92.3663 94.603 92.3296 94.6589 92.293C94.709 92.2603 94.7572 92.2275 94.8074 92.1947C94.8555 92.1619 94.9037 92.1273 94.9519 92.0926C94.9982 92.0579 95.0464 92.0212 95.0926 91.9846C95.1639 91.9287 95.2333 91.8728 95.3008 91.8131C95.3336 91.7861 95.3663 91.7572 95.3991 91.7283C95.4743 91.6589 95.5494 91.5876 95.6207 91.5162C95.6824 91.4546 95.7422 91.391 95.8 91.3274C95.854 91.2676 95.906 91.2098 95.9561 91.1481C95.9754 91.1269 95.9947 91.1038 96.012 91.0806C96.0544 91.0286 96.0968 90.9765 96.1354 90.9226C96.199 90.8416 96.2587 90.7568 96.3146 90.672C96.4191 90.519 96.5156 90.3608 96.6038 90.1979C96.6057 90.1959 96.6057 90.194 96.6076 90.1921C96.652 90.1111 96.6924 90.0282 96.7329 89.9454C96.7946 89.8181 96.8524 89.6909 96.9025 89.5599C96.9526 89.4288 97.0008 89.2939 97.0432 89.1589C97.0721 89.0703 97.0972 88.9797 97.1203 88.8891C97.1435 88.7966 97.1647 88.704 97.1839 88.6115C97.2044 88.5151 97.2218 88.418 97.236 88.3205C97.2495 88.2434 97.2591 88.1644 97.2668 88.0873C97.2707 88.0603 97.2726 88.0333 97.2765 88.0044V88.0024C97.2842 87.9196 97.29 87.8367 97.2938 87.7538C97.2964 87.7366 97.297 87.7191 97.2957 87.7018C97.3015 87.615 97.3034 87.5283 97.3034 87.4396V43.7455C97.3035 42.8693 97.1045 42.0046 96.7213 41.2167Z" fill="#0A1222"/>
<path d="M49.4053 75.8397C59.9759 75.8397 68.545 67.2706 68.545 56.7C68.545 46.1294 59.9759 37.5603 49.4053 37.5603C38.8348 37.5603 30.2656 46.1294 30.2656 56.7C30.2656 67.2706 38.8348 75.8397 49.4053 75.8397Z" fill="#FED947"/>
<path d="M49.4049 37.5603C48.4371 37.5601 47.4706 37.6327 46.5137 37.7775C51.0366 38.4691 55.1622 40.7579 58.143 44.2291C61.1239 47.7004 62.7627 52.1245 62.7627 56.7C62.7627 61.2755 61.1239 65.6996 58.143 69.1709C55.1622 72.6422 51.0366 74.9309 46.5137 75.6225C49.1193 76.0207 51.779 75.8765 54.3263 75.1989C56.8735 74.5213 59.2534 73.3249 61.3167 71.6847C63.38 70.0444 65.0823 67.9957 66.3169 65.6669C67.5515 63.3381 68.2919 60.7794 68.4915 58.1511C68.6912 55.5229 68.3458 52.8817 67.4771 50.3931C66.6084 47.9045 65.2351 45.6222 63.4432 43.6891C61.6514 41.756 59.4795 40.2139 57.0639 39.1593C54.6482 38.1047 52.0407 37.5602 49.4049 37.5603Z" fill="#FECC30"/>
<path d="M49.4055 77.2854C45.3341 77.2854 41.3541 76.078 37.9689 73.8161C34.5837 71.5541 31.9453 68.3391 30.3872 64.5776C28.8292 60.8161 28.4216 56.6771 29.2159 52.684C30.0102 48.6908 31.9708 45.0229 34.8497 42.144C37.7286 39.2651 41.3966 37.3046 45.3897 36.5103C49.3829 35.716 53.5219 36.1237 57.2833 37.6817C61.0448 39.2398 64.2598 41.8783 66.5217 45.2635C68.7837 48.6487 69.991 52.6287 69.991 56.7001C69.9848 62.1578 67.814 67.3902 63.9548 71.2494C60.0956 75.1085 54.8632 77.2793 49.4055 77.2854ZM49.4055 39.006C45.9059 39.006 42.4849 40.0438 39.5752 41.9881C36.6654 43.9323 34.3976 46.6958 33.0584 49.929C31.7192 53.1622 31.3688 56.7198 32.0516 60.1521C32.7343 63.5845 34.4195 66.7372 36.8941 69.2118C39.3687 71.6863 42.5215 73.3715 45.9538 74.0542C49.3861 74.7369 52.9438 74.3865 56.1769 73.0473C59.4101 71.7081 62.1735 69.4402 64.1178 66.5304C66.062 63.6206 67.0997 60.1996 67.0997 56.7001C67.0944 52.0089 65.2285 47.5114 61.9113 44.1943C58.5942 40.8771 54.0966 39.0112 49.4055 39.006Z" fill="#F8BE32"/>
<path d="M54.7059 55.3508H44.1048C43.7214 55.3508 43.3537 55.1985 43.0826 54.9274C42.8115 54.6563 42.6592 54.2886 42.6592 53.9052C42.6592 53.5218 42.8115 53.1541 43.0826 52.883C43.3537 52.6119 43.7214 52.4596 44.1048 52.4596H54.7059C55.0893 52.4596 55.457 52.6119 55.7282 52.883C55.9993 53.1541 56.1516 53.5218 56.1516 53.9052C56.1516 54.2886 55.9993 54.6563 55.7282 54.9274C55.457 55.1985 55.0893 55.3508 54.7059 55.3508ZM54.7059 61.1333H44.1048C43.7214 61.1333 43.3537 60.981 43.0826 60.7099C42.8115 60.4388 42.6592 60.0711 42.6592 59.6877C42.6592 59.3043 42.8115 58.9366 43.0826 58.6655C43.3537 58.3943 43.7214 58.242 44.1048 58.242H54.7059C55.0893 58.242 55.457 58.3943 55.7282 58.6655C55.9993 58.9366 56.1516 59.3043 56.1516 59.6877C56.1516 60.0711 55.9993 60.4388 55.7282 60.7099C55.457 60.981 55.0893 61.1333 54.7059 61.1333Z" fill="white"/>
<path d="M97.3037 43.7455V87.4396C97.3037 87.5283 97.3018 87.615 97.296 87.7018C97.2973 87.7191 97.2966 87.7366 97.2941 87.7538C97.2902 87.8367 97.2844 87.9196 97.2767 88.0025V88.0044C97.2729 88.0333 97.271 88.0603 97.2671 88.0873C97.2594 88.1644 97.2497 88.2434 97.2363 88.3205C97.2221 88.4181 97.2047 88.5151 97.1842 88.6115C97.1649 88.7041 97.1437 88.7966 97.1206 88.8891C97.0975 88.9797 97.0724 89.0703 97.0435 89.159C97.003 89.2939 96.9548 89.4288 96.9028 89.5599C96.8527 89.6909 96.7949 89.8182 96.7332 89.9454C96.6927 90.0283 96.6522 90.1111 96.6079 90.1921C96.606 90.194 96.606 90.1959 96.604 90.1979C96.5159 90.3608 96.4194 90.5191 96.3149 90.672C96.259 90.7568 96.1993 90.8416 96.1357 90.9226C96.0971 90.9766 96.0547 91.0286 96.0123 91.0807C95.9949 91.1038 95.9757 91.1269 95.9564 91.1481C95.9063 91.2098 95.8542 91.2676 95.8003 91.3274C95.7425 91.391 95.6827 91.4546 95.621 91.5163C95.5497 91.5876 95.4745 91.6589 95.3994 91.7283C95.3666 91.7572 95.3338 91.7861 95.3011 91.8131C95.2336 91.8728 95.1642 91.9287 95.0929 91.9846C95.0466 92.0213 94.9984 92.0579 94.9522 92.0926C94.904 92.1273 94.8558 92.162 94.8076 92.1947C94.7575 92.2275 94.7093 92.2603 94.6592 92.293C94.6033 92.3297 94.5455 92.3663 94.4877 92.401C94.4298 92.4357 94.372 92.4704 94.3123 92.5031C94.2525 92.5359 94.1928 92.5667 94.133 92.5976C94.0867 92.6226 94.0405 92.6458 93.9923 92.667C93.921 92.7036 93.8458 92.7364 93.7706 92.7672C93.6974 92.798 93.6241 92.827 93.549 92.8559C93.5124 92.8694 93.4777 92.8828 93.441 92.8944C93.3909 92.9137 93.3408 92.9291 93.2907 92.9445C93.2686 92.9527 93.2461 92.9598 93.2232 92.9657C93.0561 93.0184 92.8862 93.0622 92.7144 93.0968C92.6962 93.1027 92.6775 93.1066 92.6585 93.1084C92.5737 93.1276 92.4889 93.1431 92.4021 93.1546C92.3231 93.1681 92.2421 93.1778 92.1631 93.1874C92.1554 93.1874 92.1496 93.1893 92.1419 93.1893C92.1111 93.1932 92.0802 93.1951 92.0494 93.197C91.9819 93.2047 91.9145 93.2086 91.847 93.2125C91.831 93.2141 91.8149 93.2147 91.7988 93.2144C91.7082 93.2202 91.6138 93.2221 91.5213 93.2221H7.29026C7.20352 93.2221 7.11679 93.2202 7.03198 93.2163C7.0127 93.2163 6.99343 93.2144 6.97415 93.2125C6.90091 93.2105 6.82767 93.2047 6.75442 93.197C6.74478 93.197 6.73707 93.1951 6.72936 93.1951C6.68696 93.1912 6.64455 93.1874 6.60408 93.1816C6.53854 93.1739 6.47301 93.1662 6.4094 93.1546C6.31688 93.1411 6.22629 93.1257 6.1357 93.1064C6.12975 93.1061 6.12389 93.1048 6.11835 93.1026C6.02583 93.0833 5.93331 93.0621 5.84079 93.039C5.7502 93.0158 5.65961 92.9908 5.57095 92.9619C5.48614 92.9349 5.40133 92.9079 5.31845 92.8771L5.27219 92.8597C5.19316 92.8308 5.11606 92.8 5.04089 92.7672C4.86952 92.6948 4.70164 92.6144 4.53782 92.5263C4.52625 92.5205 4.51661 92.5147 4.50505 92.5089C4.35085 92.4241 4.20243 92.3316 4.05787 92.2333C3.99234 92.189 3.9268 92.1446 3.8632 92.0964C3.83428 92.0752 3.80537 92.054 3.77646 92.0309C3.73791 92.002 3.70129 91.9731 3.66467 91.9422C3.63021 91.9174 3.59738 91.8903 3.56636 91.8613C3.5624 91.8598 3.55902 91.8571 3.55673 91.8536C3.50468 91.8092 3.45264 91.7649 3.40253 91.7187C3.34278 91.6647 3.28302 91.6088 3.2252 91.549C3.21363 91.5394 3.20207 91.5278 3.19051 91.5163C3.13654 91.4623 3.08449 91.4083 3.03438 91.3524C2.88201 91.1889 2.74036 91.0157 2.61033 90.8339C2.57371 90.7838 2.53902 90.7337 2.50432 90.6836C2.49852 90.6763 2.49336 90.6686 2.4889 90.6605C2.43879 90.5872 2.3906 90.512 2.34627 90.4369C2.30965 90.3791 2.27495 90.3193 2.24026 90.2576C2.22098 90.2249 2.20171 90.1902 2.18436 90.1535C2.14774 90.0841 2.11111 90.0167 2.07835 89.9454C2.03594 89.8586 1.99547 89.77 1.95884 89.6794C1.92608 89.6023 1.89331 89.5232 1.8644 89.4423C1.83356 89.3613 1.80657 89.2785 1.77959 89.1936C1.76995 89.1647 1.76031 89.1339 1.7526 89.1031C1.72947 89.0317 1.70827 88.9585 1.69092 88.8833C1.66779 88.8024 1.64852 88.7176 1.63117 88.6328C1.62685 88.6163 1.62363 88.5995 1.62153 88.5826C1.60611 88.5055 1.59069 88.4265 1.57913 88.3475C1.57547 88.331 1.5729 88.3142 1.57142 88.2974C1.55985 88.2183 1.55022 88.1412 1.54058 88.0622C1.53865 88.0352 1.5348 88.0082 1.53287 87.9793C1.52516 87.908 1.5213 87.8348 1.51745 87.7615C1.51584 87.7442 1.5152 87.7269 1.51552 87.7095C1.50974 87.6208 1.50781 87.5302 1.50781 87.4396V43.7455C1.50772 42.8694 1.70677 42.0046 2.08991 41.2167L33.2612 63.7952L34.9708 65.0327L46.0134 73.0317C47 73.7468 48.1873 74.1318 49.4058 74.1318C50.6242 74.1318 51.8116 73.7468 52.7981 73.0317L63.8407 65.0327L65.7219 63.6699L96.7216 41.2167C97.1048 42.0046 97.3038 42.8694 97.3037 43.7455Z" fill="#17373B"/>
<path d="M96.7227 41.2167L88.6311 47.0774V87.4396C88.6311 87.5283 88.6292 87.615 88.6234 87.7018C88.6247 87.7191 88.624 87.7366 88.6214 87.7538C88.6176 87.8367 88.6118 87.9196 88.6041 88.0025V88.0044C88.6002 88.0333 88.5983 88.0603 88.5945 88.0873C88.5867 88.1644 88.5771 88.2434 88.5636 88.3205C88.5494 88.4181 88.5321 88.5151 88.5116 88.6115C88.4923 88.7041 88.4711 88.7966 88.448 88.8891C88.4248 88.9797 88.3998 89.0703 88.3709 89.159C88.3304 89.2939 88.2822 89.4288 88.2302 89.5599C88.1801 89.6909 88.1222 89.8182 88.0605 89.9454C88.0201 90.0283 87.9796 90.1111 87.9353 90.1921C87.9333 90.194 87.9333 90.1959 87.9314 90.1979C87.8433 90.3608 87.7468 90.5191 87.6423 90.672C87.5864 90.7568 87.5266 90.8416 87.463 90.9226C87.4245 90.9766 87.3821 91.0286 87.3397 91.0807C87.3223 91.1038 87.303 91.1269 87.2838 91.1481C87.2337 91.2098 87.1816 91.2676 87.1276 91.3274C87.0698 91.391 87.0101 91.4546 86.9484 91.5163C86.8771 91.5876 86.8019 91.6589 86.7267 91.7283C86.694 91.7572 86.6612 91.7861 86.6284 91.8131C86.561 91.8728 86.4916 91.9287 86.4203 91.9846C86.374 92.0213 86.3258 92.0579 86.2796 92.0926C86.2314 92.1273 86.1832 92.162 86.135 92.1947C86.0849 92.2275 86.0367 92.2603 85.9866 92.293C85.9307 92.3297 85.8729 92.3663 85.815 92.401C85.7572 92.4357 85.6994 92.4704 85.6396 92.5031C85.5799 92.5359 85.5201 92.5667 85.4604 92.5976C85.4141 92.6226 85.3679 92.6458 85.3197 92.667C85.2484 92.7036 85.1732 92.7364 85.098 92.7672C85.0248 92.798 84.9515 92.827 84.8763 92.8559C84.8397 92.8694 84.805 92.8828 84.7684 92.8944C84.7183 92.9137 84.6682 92.9291 84.6181 92.9445C84.596 92.9527 84.5734 92.9598 84.5506 92.9657C84.3834 93.0184 84.2136 93.0622 84.0417 93.0968C84.0236 93.1027 84.0048 93.1066 83.9858 93.1084C83.901 93.1276 83.8162 93.1431 83.7295 93.1546C83.6505 93.1681 83.5695 93.1778 83.4905 93.1874C83.4828 93.1874 83.477 93.1893 83.4693 93.1893C83.4384 93.1932 83.4076 93.1951 83.3768 93.197C83.3093 93.2047 83.2418 93.2086 83.1744 93.2125C83.1584 93.2141 83.1423 93.2147 83.1262 93.2144C83.0356 93.2202 82.9412 93.2221 82.8486 93.2221H91.5223C91.6148 93.2221 91.7093 93.2202 91.7999 93.2144C91.816 93.2147 91.832 93.2141 91.8481 93.2125C91.9155 93.2086 91.983 93.2047 92.0504 93.197C92.0813 93.1951 92.1121 93.1932 92.143 93.1893C92.1507 93.1893 92.1564 93.1874 92.1642 93.1874C92.2432 93.1778 92.3241 93.1681 92.4032 93.1546C92.4899 93.1431 92.5747 93.1276 92.6595 93.1084C92.6785 93.1066 92.6973 93.1027 92.7154 93.0968C92.8872 93.0622 93.0571 93.0184 93.2243 92.9657C93.2471 92.9598 93.2696 92.9527 93.2917 92.9445C93.3418 92.9291 93.392 92.9137 93.4421 92.8944C93.4787 92.8828 93.5134 92.8694 93.55 92.8559C93.6252 92.827 93.6984 92.798 93.7717 92.7672C93.8469 92.7364 93.922 92.7036 93.9933 92.667C94.0415 92.6458 94.0878 92.6226 94.134 92.5976C94.1938 92.5667 94.2536 92.5359 94.3133 92.5031C94.3731 92.4704 94.4309 92.4357 94.4887 92.401C94.5465 92.3663 94.6044 92.3297 94.6602 92.293C94.7104 92.2603 94.7585 92.2275 94.8087 92.1947C94.8568 92.162 94.905 92.1273 94.9532 92.0926C94.9995 92.0579 95.0477 92.0213 95.0939 91.9846C95.1652 91.9287 95.2346 91.8728 95.3021 91.8131C95.3349 91.7861 95.3676 91.7572 95.4004 91.7283C95.4756 91.6589 95.5507 91.5876 95.6221 91.5163C95.6837 91.4546 95.7435 91.391 95.8013 91.3274C95.8553 91.2676 95.9073 91.2098 95.9574 91.1481C95.9767 91.1269 95.996 91.1038 96.0133 91.0807C96.0557 91.0286 96.0982 90.9766 96.1367 90.9226C96.2003 90.8416 96.2601 90.7568 96.316 90.672C96.4204 90.5191 96.5169 90.3608 96.6051 90.1979C96.607 90.1959 96.607 90.194 96.6089 90.1921C96.6533 90.1111 96.6937 90.0283 96.7342 89.9454C96.7959 89.8182 96.8537 89.6909 96.9038 89.5599C96.9559 89.4288 97.0041 89.2939 97.0445 89.159C97.0735 89.0703 97.0985 88.9797 97.1216 88.8891C97.1448 88.7966 97.166 88.7041 97.1853 88.6115C97.2057 88.5151 97.2231 88.4181 97.2373 88.3205C97.2508 88.2434 97.2604 88.1644 97.2681 88.0873C97.272 88.0603 97.2739 88.0333 97.2778 88.0044V88.0025C97.2855 87.9196 97.2913 87.8367 97.2951 87.7538C97.2977 87.7366 97.2983 87.7191 97.297 87.7018C97.3028 87.615 97.3048 87.5283 97.3048 87.4396V43.7455C97.3048 42.8694 97.1058 42.0046 96.7227 41.2167Z" fill="#144A47"/>
<path d="M94.659 92.293C93.7258 92.9017 92.6352 93.2246 91.5211 93.2221H7.2901C6.31632 93.2237 5.35805 92.9783 4.50488 92.5089L31.9811 65.0327L33.261 63.7952L34.9707 65.0327L46.0132 73.0317C46.9998 73.7468 48.1871 74.1318 49.4056 74.1318C50.6241 74.1318 51.8114 73.7468 52.798 73.0317L63.8405 65.0327L65.7217 63.6699L67.3987 65.0327L94.659 92.293Z" fill="#25DEB0"/>
</svg>
