<svg width="24" height="24" viewBox="0 0 24 24" fill="none" xmlns="http://www.w3.org/2000/svg">
<path d="M17.9261 10.8741C17.9144 12.0469 17.6088 13.198 17.0373 14.2222C16.3871 15.4101 15.4103 16.3869 14.2224 17.037C12.8662 17.7654 11.3083 18.0284 9.78803 17.7856C8.2678 17.5428 6.86929 16.8077 5.80731 15.6932C4.74533 14.5786 4.07858 13.1462 3.90949 11.6161C3.74039 10.0859 4.07829 8.54251 4.87128 7.22297C5.66428 5.90342 6.86852 4.88068 8.29906 4.31182C9.7296 3.74296 11.3073 3.65944 12.7899 4.07409C14.2725 4.48873 15.578 5.37861 16.5059 6.60706C17.4338 7.8355 17.9327 9.33458 17.9261 10.8741Z" stroke="white" stroke-width="1.5" stroke-miterlimit="10" stroke-linecap="square"/>
<path d="M19.5706 19.5704C19.3888 19.7538 19.1724 19.8994 18.934 19.9987C18.6956 20.0981 18.4399 20.1493 18.1817 20.1493C17.9234 20.1493 17.6677 20.0981 17.4293 19.9987C17.1909 19.8994 16.9746 19.7538 16.7928 19.5704L14.2224 17.037C15.4103 16.3869 16.3871 15.4101 17.0372 14.2222L19.5706 16.763C19.7585 16.9452 19.9079 17.1634 20.01 17.4046C20.112 17.6457 20.1646 17.9048 20.1646 18.1667C20.1646 18.4285 20.112 18.6876 20.01 18.9288C19.9079 19.1699 19.7585 19.3881 19.5706 19.5704V19.5704Z" stroke="white" stroke-width="1.5" stroke-linecap="round" stroke-linejoin="round"/>
<path d="M7.4668 10.563C7.4668 9.74177 7.79301 8.95421 8.37368 8.37354C8.95435 7.79288 9.7419 7.46666 10.5631 7.46666" stroke="white" stroke-width="1.5" stroke-linecap="round" stroke-linejoin="round"/>
</svg>
