<svg width="20" height="20" viewBox="0 0 20 20" fill="none" xmlns="http://www.w3.org/2000/svg">
<path fill-rule="evenodd" clip-rule="evenodd" d="M18.8921 8.32656C18.4928 8.07981 18.0483 8.02957 17.6562 8.06816V7.65625C17.6562 3.44535 14.2104 0 10 0C5.7891 0 2.34375 3.44586 2.34375 7.65625V8.06816C1.95172 8.02953 1.50719 8.07981 1.10793 8.32656C0.372734 8.78094 0 9.73824 0 11.1719C0 12.6079 0.373437 13.5703 1.10996 14.0323C1.47582 14.2619 1.90309 14.3416 2.34375 14.3037V14.7266C2.34375 15.0502 2.60609 15.3125 2.92969 15.3125H5.27344C5.59703 15.3125 5.85938 15.0502 5.85938 14.7266V7.65625C5.85938 7.33266 5.59703 7.07031 5.27344 7.07031H3.54238C3.83957 3.7684 6.62203 1.17188 10 1.17188C13.378 1.17188 16.1604 3.7684 16.4576 7.07031H14.7266C14.403 7.07031 14.1406 7.33266 14.1406 7.65625V14.7266C14.1406 15.0502 14.403 15.3125 14.7266 15.3125H16.4844V15.8984C16.4844 16.8677 15.6958 17.6562 14.7266 17.6562H12.8289C12.587 16.9743 11.9357 16.4844 11.1719 16.4844H10C9.03074 16.4844 8.24219 17.2729 8.24219 18.2422C8.24219 19.2114 9.03074 20 10 20H11.1719C11.9357 20 12.587 19.5101 12.8289 18.8281H14.7266C16.342 18.8281 17.6562 17.5139 17.6562 15.8984V14.3037C18.097 14.3416 18.5243 14.2618 18.89 14.0323C19.6266 13.5703 20 12.6079 20 11.1719C20 9.73824 19.6273 8.78094 18.8921 8.32656ZM4.6875 8.24219V14.1406H3.51562V8.24219H4.6875ZM11.1719 18.8281C11.495 18.8281 11.7578 18.5653 11.7578 18.2422C11.7578 17.9191 11.495 17.6562 11.1719 17.6562H10C9.67691 17.6562 9.41406 17.9191 9.41406 18.2422C9.41406 18.5653 9.67691 18.8281 10 18.8281H11.1719ZM15.3125 14.1406H16.4844V8.24219H15.3125V14.1406ZM2.34375 13.1059C2.1568 13.1384 1.92313 13.1406 1.73273 13.0215C1.37105 12.7952 1.17188 12.1336 1.17188 11.1586C1.17188 10.1929 1.3666 9.539 1.72016 9.31731C1.91133 9.19743 2.15219 9.20596 2.34375 9.24367V13.1059ZM17.6562 13.1057C17.8458 13.1385 18.0821 13.1409 18.2714 13.0202C18.6304 12.7916 18.8281 12.1306 18.8281 11.1593C18.8281 10.1932 18.6334 9.53908 18.2798 9.31735C18.0886 9.19742 17.8478 9.20595 17.6562 9.24368V13.1057Z" fill="#25DEB0"/>
</svg>
