<svg width="24" height="24" viewBox="0 0 24 24" fill="none" xmlns="http://www.w3.org/2000/svg">
<path d="M2.93042 17.4416C2.93042 19.4452 4.55464 21.0695 6.55824 21.0695H17.4417C19.4452 21.0695 21.0695 19.4452 21.0695 17.4416V6.55817C21.0695 4.55463 19.4452 2.93036 17.4417 2.93036H6.55822C4.55464 2.93036 2.93042 4.55463 2.93042 6.55817V17.4416Z" stroke="#25DEB0" stroke-width="1.5" stroke-linejoin="round"/>
<path d="M10.3986 8.42978C10.5402 7.86294 11.0495 7.46533 11.6337 7.46533C12.337 7.46533 12.907 8.03536 12.907 8.7386V10.6397C12.907 10.8901 13.11 11.0931 13.3605 11.0931H14.847C15.968 11.0931 16.8205 12.0996 16.6363 13.2053L16.3339 15.0192C16.1881 15.8938 15.4314 16.5349 14.5447 16.5349H11.5466C10.5448 16.5349 9.73267 15.7228 9.73267 14.721V11.3164C9.73267 11.1681 9.75086 11.0204 9.78682 10.8765L10.3986 8.42978Z" stroke="#37383F" stroke-linejoin="round"/>
<path d="M9.73257 11.5464C9.73257 10.795 9.12349 10.1859 8.37215 10.1859C7.6208 10.1859 7.01172 10.795 7.01172 11.5464V15.1742C7.01172 15.9256 7.6208 16.5346 8.37215 16.5346C9.12349 16.5346 9.73257 15.9256 9.73257 15.1741V11.5464Z" stroke="#25DEB0" stroke-width="0.7" stroke-linejoin="round"/>
</svg>
