<svg width="41" height="40" viewBox="0 0 41 40" fill="none" xmlns="http://www.w3.org/2000/svg">
<path d="M13.7984 17.4466L20.0183 11.2324L26.2414 17.4498L29.8605 13.8338L20.0183 3.99986L10.1794 13.8306L13.7984 17.4466ZM4.00439 19.9994L7.62369 16.3832L11.2428 19.9992L7.62348 23.6152L4.00439 19.9994ZM13.7984 22.5532L20.0183 28.7674L26.2412 22.5501L29.8623 26.1642L29.8605 26.1661L20.0183 35.9999L10.179 26.1694L10.1739 26.1644L13.7984 22.5532ZM28.7944 20.0014L32.4137 16.3852L36.0327 20.0011L32.4135 23.6172L28.7944 20.0014Z" fill="#FFB800"/>
<path d="M23.6894 19.999H23.6911L20.0185 16.3298L17.3045 19.0414L16.9925 19.3531L16.3494 19.9959L16.3442 20.0008L16.3494 20.0061L20.0185 23.6721L23.6911 20.0029L23.6928 20.0008L23.6894 19.999Z" fill="#FFB800"/>
</svg>
