<svg width="18" height="24" viewBox="0 0 18 24" fill="none" xmlns="http://www.w3.org/2000/svg">
<path fill-rule="evenodd" clip-rule="evenodd" d="M17.9388 9.43544C18.297 7.04003 16.4733 5.75241 13.9796 4.89344L14.7886 1.64865L12.8133 1.15648L12.0258 4.31584C11.5065 4.18633 10.9733 4.06429 10.4433 3.94332L11.2365 0.763108L9.26256 0.270935L8.45312 3.51467C8.02341 3.41683 7.60136 3.32014 7.19189 3.21826L7.19418 3.20805L4.47033 2.52786L3.9449 4.6375C3.9449 4.6375 5.41034 4.97342 5.37945 4.99409C6.1793 5.19372 6.32395 5.7232 6.29993 6.14288L5.3784 9.83946C5.43348 9.85345 5.50492 9.87368 5.58375 9.90536L5.52632 9.89102C5.4776 9.87883 5.42696 9.86616 5.37497 9.85371L4.0833 15.0321C3.98555 15.2751 3.73744 15.6398 3.17822 15.5013C3.19802 15.53 1.74261 15.143 1.74261 15.143L0.761963 17.404L3.33237 18.0448C3.61377 18.1154 3.89186 18.1878 4.16712 18.2596L4.16739 18.2597L4.16764 18.2597C4.35995 18.3099 4.55088 18.3596 4.74061 18.4081L3.92326 21.6902L5.89617 22.1823L6.70561 18.9352C7.24459 19.0815 7.76765 19.2164 8.27971 19.3437L7.473 22.5755L9.44829 23.0677L10.2656 19.7918C13.6337 20.4293 16.1663 20.1723 17.2323 17.1258C18.0912 14.673 17.1895 13.2583 15.4175 12.3357C16.7082 12.038 17.6803 11.1892 17.9395 9.43571L17.9389 9.43527L17.9388 9.43544ZM13.4257 15.7637C12.8656 18.014 9.34323 17.0837 7.73162 16.658L7.73157 16.658C7.58662 16.6197 7.45712 16.5855 7.34663 16.5581L8.43128 12.21C8.56594 12.2436 8.73049 12.2805 8.91691 12.3224L8.91697 12.3224C10.584 12.6965 13.9995 13.463 13.4258 15.7637H13.4257ZM9.25138 10.3043C10.595 10.6629 13.5261 11.4452 14.0366 9.39989H14.0367C14.558 7.30808 11.7095 6.67742 10.3182 6.3694C10.1617 6.33475 10.0237 6.30418 9.91091 6.27608L8.92753 10.2195C9.02038 10.2427 9.12933 10.2718 9.25138 10.3043Z" fill="white"/>
</svg>
