<svg width="40" height="40" viewBox="0 0 40 40" fill="none" xmlns="http://www.w3.org/2000/svg">
<path opacity="0.9" d="M20 36.0001C25.5228 36.0001 30 31.523 30 26.0001C30 20.4773 25.5228 16.0001 20 16.0001C14.4772 16.0001 10 20.4773 10 26.0001C10 31.523 14.4772 36.0001 20 36.0001Z" fill="url(#paint0_linear_168_5053)"/>
<path d="M20 23.9999C25.5228 23.9999 30 19.5227 30 13.9999C30 8.47703 25.5228 3.99988 20 3.99988C14.4772 3.99988 10 8.47703 10 13.9999C10 19.5227 14.4772 23.9999 20 23.9999Z" fill="url(#paint1_linear_168_5053)"/>
<defs>
<linearGradient id="paint0_linear_168_5053" x1="16" y1="17.0001" x2="26" y2="36.0001" gradientUnits="userSpaceOnUse">
<stop stop-color="#FFB800"/>
<stop offset="0.9999" stop-color="#FFE600" stop-opacity="0.040625"/>
<stop offset="1" stop-color="white" stop-opacity="0.04"/>
</linearGradient>
<linearGradient id="paint1_linear_168_5053" x1="26" y1="21.9999" x2="12" y2="4.99988" gradientUnits="userSpaceOnUse">
<stop stop-color="#FFC700" stop-opacity="0.1"/>
<stop offset="1" stop-color="#FFF500" stop-opacity="0.05"/>
</linearGradient>
</defs>
</svg>
