<svg width="41" height="40" viewBox="0 0 41 40" fill="none" xmlns="http://www.w3.org/2000/svg">
<g clip-path="url(#clip0_168_4955)">
<mask id="mask0_168_4955" style="mask-type:luminance" maskUnits="userSpaceOnUse" x="0" y="0" width="40" height="40">
<path d="M40 40H0V0H40V40Z" fill="white"/>
</mask>
<g mask="url(#mask0_168_4955)">
<path fill-rule="evenodd" clip-rule="evenodd" d="M16.0831 7.91669H8.49988C8.17771 7.91669 7.9165 8.17777 7.9165 8.50006V16.0833C7.9165 16.4055 8.17771 16.6667 8.49988 16.6667H16.0831C16.4054 16.6667 16.6665 16.4055 16.6665 16.0833V8.50006C16.6665 8.17777 16.4054 7.91669 16.0831 7.91669ZM33.5831 7.91669H25.9999C25.6777 7.91669 25.4165 8.17777 25.4165 8.50006V16.0833C25.4165 16.4055 25.6777 16.6667 25.9999 16.6667H33.5831C33.9054 16.6667 34.1665 16.4055 34.1665 16.0833V8.50006C34.1665 8.17777 33.9054 7.91669 33.5831 7.91669ZM91.8332 7.91669H99.4165C99.7386 7.91669 99.9998 8.17777 99.9998 8.50006V16.0833C99.9998 16.4055 99.7386 16.6667 99.4165 16.6667H91.8332C91.5111 16.6667 91.2498 16.4055 91.2498 16.0833V8.50006C91.2498 8.17777 91.5111 7.91669 91.8332 7.91669ZM16.0831 25.4167H8.49988C8.17771 25.4167 7.9165 25.6778 7.9165 26.0001V33.5833C7.9165 33.9055 8.17771 34.1667 8.49988 34.1667H16.0831C16.4054 34.1667 16.6665 33.9055 16.6665 33.5833V26.0001C16.6665 25.6778 16.4054 25.4167 16.0831 25.4167ZM25.9999 25.4167H33.5831C33.9054 25.4167 34.1665 25.6778 34.1665 26.0001V33.5833C34.1665 33.9055 33.9054 34.1667 33.5831 34.1667H25.9999C25.6777 34.1667 25.4165 33.9055 25.4165 33.5833V26.0001C25.4165 25.6778 25.6777 25.4167 25.9999 25.4167ZM99.4165 25.4167H91.8332C91.5111 25.4167 91.2498 25.6778 91.2498 26.0001V33.5833C91.2498 33.9055 91.5111 34.1667 91.8332 34.1667H99.4165C99.7386 34.1667 99.9998 33.9055 99.9998 33.5833V26.0001C99.9998 25.6778 99.7386 25.4167 99.4165 25.4167ZM17.2499 16.6667H24.8331C25.1554 16.6667 25.4165 16.9278 25.4165 17.2501V24.8333C25.4165 25.1555 25.1554 25.4167 24.8331 25.4167H17.2499C16.9277 25.4167 16.6665 25.1555 16.6665 24.8333V17.2501C16.6665 16.9278 16.9277 16.6667 17.2499 16.6667Z" fill="#F1F6FF" fill-opacity="0.6"/>
</g>
</g>
<defs>
<clipPath id="clip0_168_4955">
<rect width="40" height="40" fill="white"/>
</clipPath>
</defs>
</svg>
