<svg width="24" height="24" viewBox="0 0 24 24" fill="none" xmlns="http://www.w3.org/2000/svg">
<path d="M23.641 14.9029C22.0383 21.3315 15.5271 25.2438 9.09772 23.6407C2.67102 22.0381 -1.24132 15.5265 0.362068 9.09837C1.96405 2.66903 8.47521 -1.24361 14.9026 0.359081C21.3315 1.96177 25.2436 8.47405 23.6408 14.903L23.6409 14.9029H23.641Z" fill="#F7931A"/>
<path fill-rule="evenodd" clip-rule="evenodd" d="M17.2928 10.2903C17.5316 8.69334 16.3158 7.83492 14.6533 7.26227L15.1926 5.09908L13.8758 4.77096L13.3508 6.8772C13.0046 6.79086 12.6491 6.70951 12.2958 6.62886L12.8246 4.50872L11.5086 4.1806L10.969 6.34309C10.6825 6.27787 10.4012 6.21341 10.1282 6.14548L10.1297 6.13868L8.3138 5.68522L7.96351 7.09165C7.96351 7.09165 8.94047 7.31559 8.91988 7.32937C9.45311 7.46246 9.54954 7.81545 9.53353 8.09523L8.91918 10.5596C8.95589 10.5689 9.00352 10.5824 9.05608 10.6035L9.01781 10.594L9.01777 10.594C8.9853 10.5859 8.95154 10.5774 8.91689 10.5691L8.05578 14.0214C7.99061 14.1834 7.8252 14.4265 7.45239 14.3342C7.46559 14.3533 6.49532 14.0953 6.49532 14.0953L5.84155 15.6026L7.55516 16.0298C7.74281 16.0769 7.92825 16.1252 8.1118 16.1731L8.11182 16.1731C8.24009 16.2065 8.36744 16.2397 8.49399 16.2721L7.94908 18.4601L9.26436 18.7882L9.80399 16.6234C10.1633 16.721 10.512 16.8109 10.8534 16.8958L10.3156 19.0503L11.6324 19.3784L12.1773 17.1945C14.4227 17.6195 16.1111 17.4482 16.8218 15.4172C17.3944 13.782 16.7932 12.8388 15.6119 12.2238C16.4723 12.0253 17.1204 11.4594 17.2932 10.2905L17.2928 10.2902L17.2928 10.2903ZM14.284 14.5091C13.9107 16.0093 11.5624 15.3891 10.488 15.1053C10.3913 15.0798 10.305 15.057 10.2313 15.0387L10.9544 12.14C11.0442 12.1624 11.1539 12.187 11.2782 12.2149C12.3896 12.4643 14.6666 12.9753 14.2841 14.5091H14.284ZM11.5012 10.8695C12.3969 11.1086 14.351 11.6301 14.6913 10.2666H14.6914C15.0389 8.87203 13.1399 8.45159 12.2124 8.24625C12.1081 8.22315 12.016 8.20277 11.9409 8.18403L11.2853 10.813C11.3472 10.8284 11.4198 10.8478 11.5012 10.8695Z" fill="white"/>
</svg>
