<svg width="24" height="24" viewBox="0 0 24 24" fill="none" xmlns="http://www.w3.org/2000/svg">
<path d="M19.0293 12.5704C19.0279 14.0688 18.5822 15.5331 17.7486 16.7783C16.9151 18.0235 15.7311 18.9936 14.3463 19.566C12.9615 20.1384 11.4381 20.2874 9.96867 19.9942C8.49921 19.701 7.14968 18.9787 6.09065 17.9186C5.03162 16.8586 4.31064 15.5083 4.01885 14.0386C3.72706 12.5688 3.87755 11.0456 4.45131 9.66135C5.02508 8.27712 5.99634 7.09407 7.24234 6.26174C8.48834 5.42941 9.95313 4.98517 11.4516 4.98517V12.5704H19.0293Z" stroke="#787A8D" stroke-width="1.5" stroke-linecap="round" stroke-linejoin="round"/>
<path d="M20.148 9.31113H14.6221V3.85187C15.9554 4.16726 17.1762 4.84343 18.1508 5.80633C19.1255 6.76924 20.1684 7.98176 20.5 9.31113H20.148Z" stroke="#787A8D" stroke-width="1.5" stroke-linecap="round" stroke-linejoin="round"/>
</svg>
