<svg width="36" height="36" viewBox="0 0 36 36" fill="none" xmlns="http://www.w3.org/2000/svg">
<circle cx="18" cy="18" r="18" fill="#988430"/>
<circle cx="18.0001" cy="18" r="17.4234" fill="#7A6A2A"/>
<circle cx="17.9999" cy="18" r="17.0563" fill="#BA9F33"/>
<path fill-rule="evenodd" clip-rule="evenodd" d="M7.86972 16.0777C7.76776 15.9846 7.66005 15.8912 7.56098 15.7981C7.46191 15.705 7.36015 15.6117 7.2582 15.5186L6.95522 15.2306C6.90568 15.181 6.85327 15.1374 6.80373 15.0877C6.7542 15.0441 6.69602 14.9946 6.64648 14.9508C6.24444 14.5693 5.84008 14.1878 5.4436 13.8061C5.85429 14.1819 6.25634 14.5549 6.66703 14.9362L6.80968 15.0791C6.85922 15.1284 6.91164 15.1722 6.96117 15.2217L7.26396 15.5013C7.36591 15.5944 7.46498 15.6877 7.56693 15.7893C7.66888 15.8909 7.76796 15.9844 7.86991 16.0773L7.86972 16.0777ZM2.53384 16.0201C2.53384 16.0201 3.99592 16.1714 4.70958 16.2733C5.37064 16.3666 7.43867 16.684 7.43867 16.684L2.53384 16.0201ZM2.53388 16.0201C2.94457 16.055 3.35526 16.0986 3.76595 16.1424C3.97561 16.1627 4.17664 16.186 4.37766 16.2063L4.6862 16.2414C4.78816 16.2558 4.88723 16.2704 4.98918 16.285L6.2126 16.4801L6.82412 16.5821C7.02515 16.617 7.22617 16.655 7.43584 16.69C7.23481 16.6696 7.02515 16.6404 6.82412 16.6112L6.2126 16.5239L4.98918 16.3434C4.88723 16.3288 4.78816 16.3083 4.6862 16.2939L4.37747 16.2583C4.17644 16.238 3.96678 16.2088 3.76576 16.1854C3.35507 16.136 2.94438 16.0834 2.53369 16.0195L2.53388 16.0201ZM7.29317 17.0649C7.29317 17.0649 5.73202 17.4612 5.20479 17.6127C4.68639 17.7554 3.11641 18.2331 3.11641 18.2331L7.29298 17.0651L7.29317 17.0649Z" fill="#CFB66C"/>
<path fill-rule="evenodd" clip-rule="evenodd" d="M7.29328 17.065C6.94672 17.1669 6.60208 17.266 6.25053 17.3593L5.20778 17.6389C4.86122 17.7408 4.51658 17.8399 4.17098 17.9418L3.65258 18.0845C3.48074 18.134 3.30602 18.1776 3.12842 18.2273C3.30007 18.1697 3.47498 18.1108 3.64682 18.0613L4.16522 17.8954C4.51178 17.7875 4.85642 17.6855 5.20202 17.5778C5.55434 17.4904 5.90109 17.3971 6.25341 17.3127C6.58826 17.2282 6.94077 17.1439 7.29328 17.0652V17.065ZM3.3354 19.1942C3.50705 19.1301 5.48772 18.207 5.94794 17.9914C6.17834 17.8835 6.84804 17.6458 6.84804 17.6458L3.3354 19.1942Z" fill="#CFB66C"/>
<path fill-rule="evenodd" clip-rule="evenodd" d="M3.33515 19.1942C3.48645 19.1366 3.6293 19.0662 3.77483 18.9992L4.20587 18.7981L5.07102 18.3817C5.35902 18.2448 5.63896 18.0937 5.93598 17.965C6.08747 17.9011 6.23896 17.8487 6.39026 17.7992L6.62066 17.7264C6.69918 17.706 6.77214 17.6826 6.85106 17.6623C6.56306 17.7992 6.25989 17.9157 5.9715 18.0495C5.6835 18.1924 5.38898 18.3089 5.09176 18.437L4.21221 18.8242C3.91691 18.9439 3.62891 19.0719 3.33496 19.1942H3.33515ZM3.52729 20.0006C3.52729 20.0006 5.32134 18.9492 5.93881 18.6113C6.26214 18.4308 7.30777 17.9123 7.30777 17.9123L3.52729 20.0006Z" fill="#CFB66C"/>
<path fill-rule="evenodd" clip-rule="evenodd" d="M3.5271 20.001C3.82988 19.8146 4.13862 19.6253 4.44736 19.4331L4.90816 19.1534C5.0654 19.0602 5.21689 18.9729 5.37721 18.8798C5.53446 18.7864 5.68595 18.6933 5.84608 18.606C5.9223 18.5589 6.00218 18.518 6.08492 18.4837L6.32953 18.3614C6.65286 18.2041 6.97619 18.0438 7.31699 17.9069C7.00825 18.1022 6.69068 18.2682 6.37331 18.4399C6.21606 18.5272 6.05574 18.606 5.89849 18.6933C5.74124 18.7807 5.58976 18.874 5.42944 18.9585C5.27219 19.0516 5.1207 19.139 4.96057 19.2234L4.48576 19.4826L3.52748 20.001H3.5271ZM7.29287 18.1427C7.29287 18.1427 6.17735 18.999 5.8162 19.2728C5.45505 19.5466 4.39194 20.3155 4.39194 20.3155L7.29287 18.1427Z" fill="#CFB66C"/>
<path fill-rule="evenodd" clip-rule="evenodd" d="M13.6953 25.0485L13.1245 23.9679L13.4565 22.6164L15.8244 21.7019L14.8166 19.6341L15.3147 17.5457L16.2497 15.6756L19.1391 15.2214L21.2622 13.1971L25.8468 13.5437L26.7467 18.4456L25.0137 24.6175L24.0265 27.8127L20.0244 27.9642L18.1662 26.6769L15.9905 25.7679L13.6953 25.0485Z" fill="#E2CC85"/>
<path fill-rule="evenodd" clip-rule="evenodd" d="M20.7148 25.0136C20.7148 25.0136 20.1612 25.267 19.2172 25.2086C18.9439 24.8417 17.0305 24.6699 17.0305 24.6699C17.0305 24.6699 16.7916 24.5971 16.3692 24.7718C15.9441 24.9446 15.5421 24.9233 15.1663 25.0165C14.7906 25.1096 14.4175 24.6204 14.1295 24.5184C13.8415 24.4107 13.4597 24.1515 13.4597 24.1515L12.6533 24.0728L11.0339 23.3883L8.46132 20.8253L7.76225 21.9197L7.54663 23.2741L8.32442 24.879L10.4186 26.7867L14.502 27.8235L16.9224 27.1104L19.9544 25.8288L20.7148 25.0134V25.0136Z" fill="#F1D789"/>
<path fill-rule="evenodd" clip-rule="evenodd" d="M6.20676 15.9554L6.72516 14.3856L7.34282 13.3718L9.33194 13.2057L8.73482 14.9476L7.07191 17.9069L7.76215 20.5486L6.53892 21.1601L6.16298 20.5835L5.8602 19.2612L5.83984 17.7757L6.20676 15.9554Z" fill="#F4ECB4"/>
<path fill-rule="evenodd" clip-rule="evenodd" d="M8.43793 24.9059L8.05643 24.3729C8.05643 24.3729 7.95448 24.1194 8.01285 23.8981C8.07045 23.6738 8.06219 23.6592 8.0332 23.5747C8.00421 23.4902 7.75941 23.199 7.774 22.9484C7.7884 22.695 7.75365 22.6105 7.93989 22.4097C8.13496 22.2146 8.07678 21.8767 8.07678 21.8767L8.33022 22.0339L8.38782 21.9466C8.38782 21.9466 8.48094 22.0193 8.48094 22.133C8.50129 21.9758 8.41681 21.2475 8.60901 21.0816C8.8012 20.9157 9.142 21.8592 9.142 21.8592L8.93233 20.4902L8.39339 19.0865L7.43512 17.8049L7.37752 16.3922V16.2699C7.37752 16.2699 6.93765 16.9457 6.81534 17.4795C6.72798 17.8464 6.93765 18.292 6.89406 18.8193C6.85893 19.3436 6.81534 19.3027 6.94341 19.5105C7.07147 19.7182 7.38328 20.1454 7.26097 20.4542C7.15326 20.7193 6.78616 20.5329 6.78616 20.5329C6.78616 20.5329 6.71339 20.7483 6.61432 20.827C6.57937 20.699 6.54155 20.6174 6.47166 20.539C6.46571 20.5886 6.45131 20.6556 6.45131 20.6556C6.45131 20.6556 6.38718 20.4545 6.32305 20.2011C6.23589 19.8634 6.14257 19.4177 6.0581 19.1789C6.02315 19.3158 5.93579 19.7322 5.93579 19.7322L5.98533 20.3731L6.22417 21.2527L6.45457 21.8287L6.67883 22.5335L6.87371 23.007L7.03096 23.3681L7.16785 24.1809L7.82891 24.8798L8.18142 25.0372L8.43755 24.9061L8.43793 24.9059Z" fill="#F3E19D"/>
<path fill-rule="evenodd" clip-rule="evenodd" d="M6.55339 14.6738C6.55339 14.6738 6.07857 15.4802 5.94187 16.2931C5.80517 17.1061 5.68267 17.9651 5.76907 19.0718C5.85643 20.1875 6.02251 20.8718 6.15652 21.3612C6.38692 22.1739 6.98366 23.304 6.98366 23.304L7.00401 23.2602C6.90371 23.0701 6.82365 22.87 6.76516 22.6631C6.68644 22.3544 6.65726 21.9875 6.58449 21.8214C6.52036 21.6555 6.41265 21.5126 6.36024 21.3087C6.3107 21.1137 6.30264 20.8049 6.15057 20.5749C6.08645 20.4816 6.00773 20.237 5.98449 19.9924C5.95531 19.6253 5.99909 19.2146 5.96414 18.8769C5.90001 18.3147 5.85643 17.9332 5.91461 17.6389C5.97278 17.3445 6.27595 16.5089 6.46238 15.8448C6.58468 15.4195 6.51172 15.0613 6.73598 14.6913C6.96024 14.3244 7.09732 14.001 7.14667 13.7768C7.20427 13.5729 6.55262 14.6738 6.55262 14.6738H6.55339Z" fill="#F2E8B0"/>
<path fill-rule="evenodd" clip-rule="evenodd" d="M8.80495 14.3505C8.80495 14.3505 8.56034 14.4234 8.44379 14.5515C8.32725 14.6738 8.27771 14.7757 8.12047 14.9825C7.96322 15.1893 7.95439 15.3583 7.82613 15.6175C7.69807 15.8709 7.41544 16.2524 7.3805 16.3893C7.34555 16.5262 7.28738 17.1669 7.21461 17.4699C7.15048 17.7729 7.28738 18.1457 7.28738 18.1457L7.45327 18.1106C7.45327 18.1106 7.45327 18.3262 7.61935 18.4719C7.78523 18.6146 7.81442 17.9883 7.81442 17.9883L8.43477 15.8941L9.36962 15.2592L9.47157 14.7466L8.80456 14.3505H8.80495Z" fill="#F5EEC0"/>
<path fill-rule="evenodd" clip-rule="evenodd" d="M9.25923 15.3001C9.25923 15.3001 8.81935 15.3291 8.60393 15.4865C8.51657 15.5505 8.48163 15.6029 8.38851 15.6816C8.21667 15.8243 8.04175 15.9554 7.95747 16.1424C7.86415 16.3287 7.7622 16.6113 7.69231 17.1443C7.66313 17.3685 7.66313 17.5753 7.64278 17.756C7.61359 18.0006 7.57001 18.1957 7.59324 18.332C7.62243 18.6115 7.91081 18.7573 7.93884 19.0746L8.53596 18.7719L9.09814 16.5552L10.2924 15.8064L9.61654 15.0492L9.25846 15.2988L9.25923 15.3001Z" fill="#E6DB9D"/>
<path fill-rule="evenodd" clip-rule="evenodd" d="M6.10908 30.2264C6.11157 30.2045 6.11407 30.1826 6.11657 30.1601C6.20373 29.4113 6.21852 28.8438 6.28245 28.4884C6.37557 27.9846 6.4397 27.7972 6.42511 27.6086C6.40476 27.3059 6.38153 27.0845 6.41071 26.8514C6.45429 26.5427 6.75727 26.1757 6.74863 25.9223C6.74268 25.7213 6.64073 25.5903 6.55337 25.468C6.46601 25.3457 6.39612 25.2438 6.39612 25.2438C6.39612 25.2438 6.99324 24.8331 6.98748 23.1786C6.99967 23.1821 7.01141 23.187 7.02242 23.1932L7.31657 24.029L7.51759 24.2736L8.28943 25.7124L9.28265 26.6767L10.7505 27.6639L11.6709 28.6656L11.7641 31.3365L10.5612 32.8977L10.3642 33.2544C8.79914 32.4687 7.36399 31.4474 6.10889 30.2262L6.10908 30.2264Z" fill="#E5CB7A"/>
<path fill-rule="evenodd" clip-rule="evenodd" d="M9.78345 32.7815C9.78345 32.7815 9.8038 32.4495 10.0776 32.2339C10.1214 32.3067 10.1504 32.3768 10.1417 32.429C10.1913 32.3418 10.5378 31.7825 11.3214 31.6368C12.1049 31.4941 12.2942 30.9233 12.2942 30.9233L13.9571 29.4117L15.8591 27.6612L18.1717 26.8485L19.2525 26.5834C19.2525 26.5834 19.2729 26.6621 19.2322 26.8368C19.433 26.8224 19.8786 26.7204 20.3417 26.5572C20.5282 26.4845 20.7031 26.4553 20.7962 26.5515C20.9331 26.6795 20.9534 26.9825 20.9621 27.163C21.1863 27.1135 21.4455 26.898 21.6533 26.9184C21.9854 26.9533 22.2796 27.3437 22.6175 27.3437C23.0631 27.3437 23.264 27.0699 23.5758 26.8543C23.7622 26.7262 24.03 26.5663 24.1815 26.4582C24.5427 26.193 28.3641 25.0251 28.3641 25.0251L29.7038 25.1124L29.9194 26.5513L29.8042 30.3126C29.79 30.3262 29.7758 30.3404 29.7614 30.354L23.6697 33.5357L15.2255 34.8301C13.334 34.5211 11.5086 33.8932 9.82722 32.9733L9.78402 32.7813L9.78345 32.7815Z" fill="#D8C173"/>
<path fill-rule="evenodd" clip-rule="evenodd" d="M6.62109 30.7048C6.74109 30.4539 6.849 30.244 6.86801 30.1689C6.88298 30.3202 6.91044 30.6522 6.96573 31.0051C6.84964 30.9064 6.73476 30.8063 6.62109 30.7046V30.7048Z" fill="#F1D789"/>
<path fill-rule="evenodd" clip-rule="evenodd" d="M12.7897 34.2445L13.8818 33.9408L13.9749 33.97C13.9749 33.97 14.0244 33.9992 14.0244 34.098C14.1613 34.0195 14.2779 34.0339 14.3623 33.9817C14.4059 34.0748 14.4495 34.3835 14.6419 34.4214C14.8427 34.4651 15.0583 34.334 15.2768 34.1681C15.4923 33.9963 15.7376 33.7807 15.9233 33.6933C15.9914 33.8186 16.0518 33.9479 16.104 34.0806C16.3486 33.8855 16.7739 33.0933 17.3796 33.1077C17.5547 32.6939 17.8472 32.3406 18.221 32.0913C18.7831 31.7097 19.1355 31.6806 19.5753 31.7155C19.75 31.4886 19.9653 31.296 20.2103 31.1476C20.2831 31.1768 20.4841 31.2991 20.7346 31.1825C20.9881 31.0662 21.2734 30.6146 21.6491 30.5564C21.8516 30.5285 22.0575 30.5718 22.2317 30.6787C22.2317 30.6787 23.3261 29.5922 24.0812 29.231C24.052 29.1437 23.9938 28.8146 24.8791 28.0863C24.9287 28.1301 24.8937 28.2524 24.9287 28.2591C24.9431 28.2591 25.1591 28.166 25.4325 27.9561C25.7704 27.7029 26.1751 27.4377 26.4198 27.365C26.8806 27.2281 27.3694 27.5076 27.3694 27.5076C27.411 27.4785 27.4573 27.4568 27.5063 27.4435C27.6226 27.4232 27.7071 27.4086 27.7712 27.3859C27.7655 27.5374 27.85 27.7966 27.7712 28.0209C27.8624 28.0721 27.959 28.1132 28.0592 28.1432C28.0099 28.2509 27.902 28.5247 27.7215 28.6558C27.8728 28.7286 27.8932 28.813 28.1088 28.8862C28.0214 29.0085 27.8784 29.2184 27.8146 29.347C27.7505 29.4839 27.5203 30.0518 27.4183 30.2673C27.3106 30.4829 27.1651 30.879 27.095 30.9585C27.0249 31.0379 26.7717 31.3749 26.5766 31.5408C26.7494 31.4767 27.4564 31.2612 27.7563 31.1796C27.667 31.3106 27.2144 31.982 26.7794 32.6277C22.5653 35.1535 17.468 35.7436 12.7883 34.2474L12.7897 34.2445Z" fill="#E0CD81"/>
<path fill-rule="evenodd" clip-rule="evenodd" d="M9.33117 15.2214C9.33117 15.2214 9.07792 15.2214 9.02838 15.2563C8.97885 15.2913 9.28182 15.3642 9.37494 15.3992C9.46806 15.4341 9.66909 15.5942 9.7215 15.7225C9.77104 15.8448 11.5419 16.5583 11.5419 16.5583L12.7943 16.4941L13.2261 15.8976L12.4047 15.1782L12.9807 13.4801L12.2177 13.6024L10.3828 14.6968L9.4623 15.0493L9.33117 15.2214Z" fill="#DFC57C"/>
<path fill-rule="evenodd" clip-rule="evenodd" d="M12.0817 15.7836C12.1186 15.8432 12.1844 15.8787 12.2545 15.8767C12.5137 15.8767 12.7524 15.9408 12.8514 16.0717C13.0175 16.2816 13.4778 16.9515 13.4778 16.9515L14.5787 17.3476L14.6497 16.0512L13.4468 15.2154L12.0779 15.7192V15.7834H12.081L12.0817 15.7836Z" fill="#E5CC7C"/>
<path fill-rule="evenodd" clip-rule="evenodd" d="M11.8657 16.2641C11.8657 16.2641 12.0665 16.2787 12.3199 16.1854C12.5734 16.0921 12.9898 15.8913 13.1705 15.97C13.4237 16.0777 13.3713 16.4156 13.6453 16.7188C13.8112 16.9052 14.1142 16.8995 14.286 17.1005C14.4579 17.3015 15.049 17.2082 15.049 17.2082L15.2733 18.4178L14.3734 19.5713L14.079 21.0042H12.8621L11.7505 20.5632L11.2029 19.2384L11.4767 17.8986L11.8657 16.2641Z" fill="#D2C281"/>
<path fill-rule="evenodd" clip-rule="evenodd" d="M14.2194 16.3223C14.2496 16.3316 14.2809 16.3365 14.3125 16.3369C14.2775 16.3661 14.2046 16.43 14.2338 16.5961C14.263 16.7622 14.3561 16.9719 14.2775 17.0999C14.3402 17.1685 14.387 17.25 14.4144 17.3388C14.464 17.4816 14.4786 17.6126 14.8017 17.6331C14.7551 17.6618 14.7121 17.696 14.6736 17.7351C14.6736 17.7351 14.8979 17.9301 15.0116 18.1106C15.1279 18.1056 15.4367 18.0096 15.4367 18.0096L15.5008 18.0534L15.6377 17.9958C15.6377 17.9958 15.5096 17.9463 15.6027 17.6346C15.6901 17.3608 15.7688 17.3754 15.7755 17.3551C15.7823 17.3347 15.8397 17.0464 15.8397 16.9298C15.8832 16.7785 15.9182 16.3183 15.9182 16.3183L15.8251 15.3018L15.3009 14.9843L14.8747 14.5728L14.4726 15.3301L14.2079 15.5941L14.1875 16.2494L14.2194 16.3223Z" fill="#E2C270"/>
<path fill-rule="evenodd" clip-rule="evenodd" d="M15.4807 15.4719C15.4807 15.4719 15.5738 15.7369 15.609 15.9408C15.6214 15.9012 15.6282 15.86 15.6293 15.8185C15.6293 15.8185 15.7021 16.2205 15.7165 16.3866C15.7457 16.3807 15.7741 16.372 15.7806 16.401C15.7871 16.43 15.8536 16.7535 15.8382 16.934C15.9595 16.7339 16.1273 16.5661 16.3274 16.4448C16.444 16.3718 16.5809 16.2933 16.7237 16.2874C16.948 16.2816 17.111 16.4302 17.379 16.4302C18.0255 16.4302 18.6111 15.9554 19.0421 15.8099C19.3595 15.7019 19.6333 15.6234 19.8255 15.4485C19.9188 15.37 20.0849 15.1953 20.2362 14.9359C20.4372 14.5903 20.6469 14.2894 20.8567 14.2516C20.7618 14.269 20.6652 14.2758 20.5687 14.2719C20.5687 14.2719 20.6328 14.2078 20.7415 14.1204C20.8502 14.0331 20.9804 13.9254 21.1666 13.9254C21.4988 13.9254 21.6646 13.9747 21.8511 13.9747C22.0375 13.969 22.1452 13.9254 22.1452 13.9254C22.1452 13.9254 22.3405 14.0623 22.7802 14.0623C23.22 14.068 23.5142 14.1059 23.7444 14.1264C23.9746 14.1469 24.7462 14.0623 24.9676 14.0688C25.112 14.0744 25.2537 14.109 25.3843 14.1707L24.6706 12.0971L22.107 9.85651L20.5808 10.9371L18.233 13.2847L15.9613 14.1264L15.4865 14.6594V15.4719H15.4807Z" fill="#CCB360"/>
<path fill-rule="evenodd" clip-rule="evenodd" d="M20.5778 14.2835C20.5778 14.2835 20.6419 14.2195 20.7494 14.1322C20.8569 14.0448 20.9885 13.9369 21.1747 13.9369C21.5067 13.9369 21.6727 13.9864 21.8592 13.9864C22.0456 13.9807 22.1533 13.9369 22.1533 13.9369C22.1533 13.9369 22.3488 14.0736 22.7883 14.0736C23.2281 14.0794 23.5223 14.1172 23.7525 14.1375C23.9827 14.1579 24.7543 14.0736 24.9757 14.0799C25.12 14.0854 25.2617 14.1201 25.3922 14.1819L25.0688 13.2469L24.6933 12.5334L23.6213 11.3595C23.6213 11.3595 22.3349 10.6022 22.3252 10.5965C22.3194 10.5907 21.8795 10.4742 21.8795 10.4742L20.7145 11.179L19.6573 13.9141L19.637 14.4901L20.3213 14.8134C20.4931 14.5254 20.6826 14.295 20.8602 14.2658C20.6999 14.2833 20.5776 14.2833 20.5776 14.2833L20.5778 14.2835Z" fill="#D5B457"/>
<path fill-rule="evenodd" clip-rule="evenodd" d="M20.5632 14.4787C20.4612 14.4845 20.377 14.4641 20.3535 14.3914C20.2662 14.1468 20.1963 14.1118 20.1231 14.1118C20.05 14.1118 19.9513 14.2691 19.8927 14.2835C19.8342 14.2979 19.7647 14.103 19.7647 14.103L19.7005 14.0738C19.7005 14.0738 19.3248 14.3184 19.0598 14.6068C18.7949 14.8952 18.3608 15.3846 18.1657 15.4717C17.9706 15.5589 17.3005 15.5883 17.0713 15.6378C16.842 15.6874 16.5878 15.8534 16.5529 15.8913C16.5179 15.9291 16.655 15.9698 16.6754 16.0076C16.6957 16.0426 16.4509 16.028 16.4306 16.0652C16.4162 16.0944 16.4882 16.2603 16.5239 16.3448C16.5864 16.3137 16.655 16.2968 16.7247 16.2952C16.949 16.2895 17.1122 16.4381 17.38 16.4381C18.0267 16.4381 18.6121 15.9633 19.0431 15.8175C19.3607 15.7098 19.6345 15.6311 19.8267 15.4564C19.9198 15.3779 20.0859 15.2029 20.2374 14.9437C20.348 14.7661 20.4559 14.6001 20.5638 14.4778L20.5632 14.4787Z" fill="#D2B257"/>
<path fill-rule="evenodd" clip-rule="evenodd" d="M11.2895 28.8933C11.2895 28.8933 11.2319 28.6777 10.6982 28.1215C10.5467 27.9642 10.4536 27.8335 10.3516 27.74C10.0982 27.5009 9.94958 27.437 9.7691 27.3001C9.373 27.0059 8.94196 27.0059 8.60999 26.6448C8.27802 26.2836 7.89114 25.5936 7.62234 24.8884C7.35738 24.1835 7.28442 23.9593 7.28442 23.9389C7.28442 23.9186 7.35738 23.7817 7.4505 23.802C7.54362 23.8224 7.54362 24.0029 7.56705 24.0467C7.61344 24.1181 7.66606 24.1853 7.7243 24.2475C7.86119 24.4049 8.05626 24.5931 8.15534 24.8738C8.13498 24.6349 8.05338 24.37 8.05338 24.37C8.05338 24.37 8.56602 24.6933 9.00282 25.031C9.4427 25.369 9.62318 25.4855 9.75162 25.7009C9.88007 25.9163 10.1827 26.4845 10.3276 26.6506C10.4726 26.8166 12.4588 27.4427 12.4588 27.4427L13.4037 28.1472L13.8727 29.1754L13.5056 29.7514L12.8008 29.9028L11.6561 29.3902L11.2895 28.8931V28.8933Z" fill="#D2B159"/>
<path fill-rule="evenodd" clip-rule="evenodd" d="M8.74658 25.3515C8.74658 25.3515 8.98543 25.733 9.56796 26.0941C10.0923 26.4117 10.9223 26.7001 11.6623 26.8719C12.0874 26.9739 12.5127 27.0524 12.8942 27.0584C13.9223 27.0728 14.63 26.7788 15.5069 26.6826C15.9817 26.6331 16.5642 26.5953 17.17 26.4522C17.9476 26.2658 18.4078 26.0559 19.0341 25.761C19.4884 25.5513 19.905 25.3941 20.2428 25.1931C20.7176 24.9135 21.0642 24.6019 21.4662 24.5088C21.4167 24.6457 21.3642 24.8903 20.9682 25.1437C21.1778 25.1378 21.4662 25.1234 21.4662 25.1234C21.4662 25.1234 21.1866 25.2893 20.6944 25.6621C20.3914 25.8925 19.9895 26.2825 19.5788 26.5417C19.3137 26.7078 19.0253 26.8297 18.836 26.9291C18.3752 27.1826 18.1893 27.3106 17.8866 27.6203C17.9943 27.6146 18.0031 27.6203 18.0031 27.6203C18.0031 27.6203 17.6214 27.6699 17.3478 27.8154C17.2902 27.8154 17.1904 27.7951 17.0156 27.8446C16.8787 27.8882 16.6981 27.9874 16.5118 28.0397C16.2467 28.1184 16.1595 28.0834 16.1595 28.0834L16.2031 28.1708C16.2031 28.1708 15.8575 28.1649 15.7423 28.1766C15.7626 28.1823 15.7569 28.1912 15.7569 28.1912C15.7367 28.1945 15.7172 28.2014 15.6993 28.2115C15.6439 28.2474 15.5829 28.274 15.5188 28.29C15.4839 28.2958 15.4547 28.2958 15.4109 28.3046C15.4255 28.3396 15.5392 28.535 15.5916 28.6502C15.548 28.6794 14.8925 29.1746 14.8925 29.1746C14.9128 29.2066 14.9295 29.2408 14.942 29.2765C14.9624 29.3405 14.9712 29.4338 14.9916 29.4774C15.0409 29.5647 15.0701 29.5793 15.0701 29.5793C15.0701 29.5793 14.9916 29.5939 14.8545 29.6289C14.7381 29.658 14.5953 29.7074 14.3937 29.7366C14.3318 29.7446 14.2696 29.7495 14.2073 29.7512C14.2364 29.8153 14.3645 30.0599 14.1285 30.3423C13.8926 30.6248 13.8198 30.6658 13.747 30.8463C13.7104 30.8186 13.6714 30.7942 13.6305 30.7734C13.552 30.7384 13.4441 30.6862 13.4062 30.6161C13.3842 30.7095 13.355 30.801 13.3189 30.8899C13.2461 31.085 13.1384 31.2774 13.118 31.4229C13.0393 31.3355 12.8938 31.1637 12.6928 31.1986C12.4917 31.2336 12.3316 31.5074 12.2967 31.5861C12.2967 31.5366 12.2617 31.4987 12.2531 31.5569C12.2471 31.621 12.1365 32.2907 11.5191 32.8326C11.5133 32.6957 11.5133 32.3927 11.4987 32.2938C11.4411 32.3514 11.3706 32.4365 10.9511 32.6171C10.5404 32.7976 10.6055 32.9783 10.6055 32.9783C10.6055 32.9783 10.5706 32.6903 10.792 32.3869C11.0162 32.0841 11.1531 31.9413 11.1531 31.9181C11.1495 31.8944 11.1394 31.8722 11.1239 31.8539C11.0947 31.8248 11.0366 31.7898 11.0366 31.7666C11.0715 31.7522 11.4181 31.5861 11.3977 31.2422C11.3774 30.9337 11.2464 30.7734 11.1531 30.6599C11.1387 30.6453 11.2902 30.5376 11.2697 30.5026C11.2551 30.4823 11.0688 30.3452 11.0454 30.2722C11.0509 30.2287 11.0607 30.1858 11.0746 30.1442C11.0949 30.0801 11.1095 30.0363 11.1038 29.9927C11.0892 29.9199 11.0105 29.7189 10.9872 29.6985C11.0076 29.7043 11.1531 29.6985 11.1531 29.6985C11.1531 29.6985 11.0368 29.5121 11.0162 29.4248C10.9957 29.3374 10.9521 29.1072 10.9289 29.0636C10.9784 29.0694 11.1007 29.078 11.1007 29.0636C11.1066 29.0198 10.993 28.9471 11.0431 28.8908C11.078 28.8966 11.145 28.9257 11.209 29.0073C11.174 28.914 11.1159 28.7336 10.9934 28.6608C11.051 28.6404 11.2468 28.5878 11.4186 28.6898C11.5905 28.7917 11.649 28.9344 11.649 28.9344C11.649 28.9344 11.751 29.0131 11.9084 29.1297C12.0889 29.2723 12.3189 29.4753 12.686 29.6189C12.7648 29.6626 12.9656 29.6626 13.1113 29.6335C13.1748 29.6183 13.2356 29.5938 13.2918 29.5607C13.3121 29.5487 13.3336 29.539 13.3559 29.5315C13.3246 29.4687 13.2886 29.4083 13.2482 29.3508C13.2977 29.3508 13.3559 29.3568 13.3559 29.3568C13.3559 29.3568 13.3909 29.2781 13.2336 29.1264C13.2686 29.0914 13.3123 29.0688 13.3123 29.0098C13.2628 29.0041 13.1754 28.9313 13.1551 28.9021C13.1841 28.8818 13.2279 28.8148 13.2774 28.7944C13.2336 28.7595 13.1259 28.6137 13.0764 28.5993C13.1237 28.5818 13.1695 28.5603 13.2133 28.5352C13.2133 28.5352 12.9687 28.4711 12.8899 28.4187C12.8112 28.3611 12.6949 28.2614 12.625 28.2322C12.552 28.2031 12.424 28.1887 12.3715 28.1303C12.4209 28.1449 12.4996 28.1303 12.558 28.1303C12.6016 28.1303 12.6221 28.1361 12.6365 28.1361C12.6307 28.1157 12.6307 28.0719 12.7444 28.0575C12.7991 28.0493 12.8521 28.0326 12.9017 28.008C12.9017 28.008 12.7938 28.0022 12.6713 27.8857C12.5488 27.7691 12.447 27.676 12.3771 27.6614C12.3043 27.6468 12.1674 27.711 12.083 27.705C11.9664 27.6906 11.9169 27.6322 11.9169 27.6322C11.9169 27.6322 11.5296 27.6672 10.6704 27.143C9.92757 26.6886 9.60425 26.2867 9.60425 26.2867C9.53473 26.2615 9.46753 26.2303 9.40341 26.1934C9.12386 26.0479 8.73641 25.7449 8.74812 25.3486L8.74658 25.3515Z" fill="#C2A44D"/>
<path fill-rule="evenodd" clip-rule="evenodd" d="M19.4621 7.86989C19.5295 7.89178 19.5894 7.93217 19.6349 7.98644C19.7718 8.14369 19.8592 8.44071 19.5475 8.75828C19.6699 8.80186 19.7203 8.81588 19.8271 8.80186C19.7194 8.93012 19.4748 9.20391 19.4602 9.44276C19.4456 9.63783 19.5679 9.6962 19.5679 9.6962C19.5679 9.6962 19.3815 9.91162 19.3728 10.2722C19.4609 10.1729 19.5572 10.0813 19.6608 9.99841C19.8764 9.82657 20.1735 9.63149 20.3745 9.50919C20.3718 9.56045 20.3787 9.61177 20.3948 9.66049C20.3948 9.66049 20.7704 9.35175 21.086 9.48884C21.2287 9.55297 21.1646 9.7538 21.1646 9.7538C21.1646 9.7538 21.3598 9.68103 21.4967 9.81793C21.6336 9.95482 21.8272 10.3079 21.9264 10.4448C21.97 10.5089 22.0837 10.6312 22.2 10.8205C22.359 11.0856 22.4917 11.3655 22.5963 11.6563C22.6021 11.5048 22.6399 11.2691 23.0711 11.4175C23.5022 11.569 23.9914 11.8865 24.4021 12.5119C24.8128 13.1372 24.9145 13.8432 25.1213 14.112C25.331 14.3712 25.5466 14.8022 25.5612 14.9829C25.5758 15.1636 25.4971 15.7459 25.9281 17.3217C26.0504 16.8325 26.2368 15.7459 26.2368 15.7459L26.3388 14.7877L26.4553 11.8226L23.3591 9.25037L20.9388 7.49396L19.363 7.64545L19.4619 7.8697L19.4621 7.86989Z" fill="#CAA13E"/>
<path fill-rule="evenodd" clip-rule="evenodd" d="M25.2146 12.2824C25.2146 12.2824 25.1708 11.9944 24.4427 11.5048C23.7145 11.0214 23.1465 11.0214 22.6224 10.6107C22.2203 10.2874 21.801 9.54452 21.528 9.29991C21.2628 9.05819 21.2192 8.35911 21.2192 8.35911L22.1134 7.61031L23.4432 5.6882L24.5673 4.45038L25.1061 5.19918L25.8549 6.07873L26.2713 7.84379L26.4228 10.4273L25.2132 12.2826L25.2146 12.2824Z" fill="#B59544"/>
<path fill-rule="evenodd" clip-rule="evenodd" d="M26.1148 15.3792C26.1368 14.9874 26.0885 14.5948 25.972 14.2201C25.78 13.623 25.3604 12.5627 25.1656 12.1657C25.0868 11.7258 25.1452 11.6909 25.2297 11.6413C25.3142 11.5918 25.6317 11.4109 25.8057 10.7764C25.9796 10.1418 26.5193 10.1211 26.5193 10.1211L26.8513 9.87646L27.3553 11.1375L27.795 12.2765L27.9319 13.1474L28.0338 13.89L27.795 15.46L26.6155 16.526L26.1146 15.3792H26.1148Z" fill="#C89D3A"/>
<path fill-rule="evenodd" clip-rule="evenodd" d="M9.65552 32.8779V32.8456C9.68003 32.8303 9.70167 32.8108 9.71945 32.788C9.73981 32.7588 9.75459 32.7239 9.76899 32.7153C9.79817 32.7007 9.93507 32.6577 10.0078 32.6715C10.0806 32.6853 10.273 32.7646 10.3749 32.7588C10.5846 32.7531 10.8292 32.5928 11.2167 32.6657C11.7992 32.7734 11.9361 33.1695 12.274 33.3938C12.5044 33.5512 12.7429 33.4811 12.7778 33.4811H12.8563C12.8709 33.4811 12.9787 33.3588 13.037 33.3648C13.1536 33.3706 13.1651 33.4667 13.2379 33.4725C13.4097 33.4929 13.7419 33.3851 13.9079 33.4289C14.0079 33.4602 14.0862 33.5385 14.1176 33.6384C14.1525 33.7461 14.1234 33.883 14.0389 33.9617C13.8584 34.1276 13.6866 34.2851 13.6516 34.4225C13.6961 34.4564 13.7387 34.4926 13.7795 34.5308C12.3384 34.1636 10.9518 33.6085 9.65552 32.8796V32.8779Z" fill="#CEB052"/>
<path fill-rule="evenodd" clip-rule="evenodd" d="M25.165 27.0584C25.165 27.0584 25.6193 26.4526 25.7768 26.1525C25.934 25.8432 25.2787 21.9264 25.2787 21.9264L26.5952 17.6129L26.5601 16.209C26.5601 16.209 26.6242 14.9128 26.7757 14.3506C26.9564 14.674 27.5186 15.0643 27.6409 15.2711C27.6985 14.8748 27.8941 14.039 27.8651 13.1478C27.9728 13.3137 28.232 14.9827 28.232 14.9827L28.4912 16.1069L28.8292 17.3011L29.2049 18.5624L29.4292 19.4333L29.5572 19.6429L29.6651 20.0098L29.7671 20.4061L30.0612 21.3352L30.234 22.0982L30.3709 23.4818C30.4007 23.5877 30.4221 23.6958 30.4351 23.8051C30.4408 23.9566 30.4147 24.044 30.4147 24.0703C30.4147 24.0966 30.4642 24.4022 30.4439 24.6324C30.4147 24.8628 30.4147 25.0431 30.234 25.2084C30.0534 25.3738 29.9399 26.3618 29.9399 26.3618L29.6166 26.1464C29.6166 26.1464 29.6807 25.852 29.5292 25.5842C29.3777 25.3163 29.0836 25.2609 28.9175 25.3046C28.7516 25.3396 28.4196 25.3918 28.3117 25.4851C28.2098 25.5782 27.9594 25.8666 27.7292 25.9978C27.4412 26.1706 26.972 26.1842 26.7216 26.2424C26.4681 26.3 26.1886 26.4728 25.8943 26.6734C25.6635 26.8228 25.4198 26.9513 25.1662 27.0574L25.165 27.0584Z" fill="#CCA847"/>
<path fill-rule="evenodd" clip-rule="evenodd" d="M25.165 33.4224C25.165 33.4224 25.1842 33.4349 25.2213 33.4552C27.2906 32.4858 29.1447 31.1115 30.6741 29.4136C30.6574 28.8242 30.6357 28.22 30.6119 27.9961C30.5625 27.5213 30.5975 27.0378 30.5829 26.7583C30.5683 26.4787 30.4111 25.3398 30.3383 25.0456C30.2596 24.7515 30.1079 24.6058 30.0848 24.6058C30.0645 24.6117 29.942 25.1593 29.942 25.297C29.942 25.4346 29.9128 25.766 29.9128 25.8505C29.8925 25.8446 29.8838 25.7929 29.8838 25.7718C29.8546 25.8446 29.8197 25.9728 29.8051 25.9874C29.7905 26.002 29.8255 25.8651 29.8051 25.8359C29.7848 25.8067 29.7475 25.8213 29.7556 25.7486C29.759 25.7054 29.7658 25.6626 29.7759 25.6205C29.7759 25.6205 29.6886 25.7486 29.6246 26.0748C29.5605 26.3981 29.5605 26.4069 29.5373 26.4359C29.5169 26.4711 29.4004 26.5874 29.3944 26.6312C29.3887 26.7097 29.5023 26.7884 29.511 26.832C29.5167 26.905 29.409 27.2427 29.3741 27.408C29.3391 27.5733 29.3537 27.8972 29.3165 28.0633C29.2873 28.2148 29.2589 28.3022 29.1592 28.3661C29.232 28.3807 29.3019 28.401 29.3019 28.401C29.3019 28.401 29.4038 28.8321 29.1446 29.1992C29.0515 29.3272 29.0283 29.3856 28.9292 29.5022C28.7339 29.7176 28.5824 29.963 28.5679 30.1225C28.5578 30.0754 28.551 30.0277 28.5475 29.9797C28.5475 29.9797 28.2447 30.3322 28.1165 30.5332C27.9506 30.7924 27.7204 30.7778 27.6557 30.8419C27.591 30.9061 27.5769 31.0224 27.5981 31.1157C27.5405 31.1301 27.4322 31.1507 27.3592 31.3749C27.3243 31.4913 27.2369 31.6053 27.1 31.6837C26.9631 31.762 26.797 31.7856 26.7126 31.806C26.7853 31.8263 26.8145 31.8263 26.8495 31.8496C26.8059 31.9223 26.6048 32.036 26.3806 32.1817C26.1563 32.3186 26.0484 32.5194 25.9931 32.6506C25.9355 32.7729 25.8505 32.8516 25.7136 32.8662C25.7712 32.9011 25.8564 32.9825 25.9 33.0088C25.8359 33.0234 25.7272 33.0234 25.5331 33.1895C25.3292 33.3585 25.2593 33.408 25.166 33.4226L25.165 33.4224Z" fill="#C39D3C"/>
<path fill-rule="evenodd" clip-rule="evenodd" d="M21.1123 34.7722C21.2238 34.694 21.3446 34.6299 21.4719 34.5815C21.9262 34.401 22.4068 34.3661 22.5961 34.3079C22.7767 34.2503 22.9194 34.1708 23.1436 34.1272C23.1377 34.1783 23.1327 34.2263 23.1273 34.2716C22.4662 34.4795 21.7929 34.6466 21.1113 34.7722H21.1123Z" fill="#D2BA6B"/>
<path fill-rule="evenodd" clip-rule="evenodd" d="M29.4912 22.8234C29.4912 22.8234 29.3981 23.3272 29.232 23.6448C29.066 23.9624 28.8864 24.4021 28.8864 24.4021C28.8875 24.303 28.8992 24.2043 28.9214 24.1077C28.7117 24.23 28.202 24.5244 28.0574 24.6553C27.9205 24.7776 27.6903 24.9932 27.6321 25.0952C27.769 24.6933 27.9117 24.3322 27.9351 24.1661C27.7254 24.3176 26.7466 25.1244 26.237 25.6573L24.6496 26.9418C24.4664 27.0407 24.2777 27.129 24.0845 27.2064C23.8109 27.3228 23.4876 27.4218 23.2487 27.5151C23.3129 27.3433 23.4146 27.1916 23.5575 27.0461C23.709 26.9034 24.1632 26.4111 24.2331 26.1821C24.2973 25.9432 24.3118 25.8006 24.2274 25.5996C24.1486 25.6199 23.9682 25.6287 23.8459 25.6637C23.7236 25.6986 23.5924 25.8296 23.5924 25.8296C23.5924 25.8296 23.6855 25.2966 23.8866 24.7928C23.7351 24.7985 23.4759 24.8421 23.4759 24.8421C23.4759 24.8421 23.837 24.2364 24.4551 23.8141C24.2658 23.8544 24.0806 23.9119 23.9017 23.9858C23.5406 24.1373 23.1445 24.3615 22.8503 24.4838C23.0162 24.2534 24.1813 22.5907 24.8746 21.0411C25.5658 19.4945 25.824 19.0984 25.9755 18.2684C26.0541 17.8577 26.0331 17.2508 26.0541 16.7073C26.0744 16.1683 26.1414 15.6849 26.0978 15.3615C26.2783 15.5858 26.9542 16.2179 26.9774 17.6306C26.9977 19.0431 26.3309 20.951 25.623 21.979C25.7958 22.0285 26.2436 22.0869 26.7036 21.2878C27.1636 20.4887 27.1581 20.2656 27.3241 19.9334C27.3445 20.0995 27.3385 20.1577 27.3385 20.1577C27.3385 20.1577 28.0086 19.3452 28.326 18.3228C28.3901 18.7626 28.5794 19.1501 28.2822 19.9569C28.0173 20.6849 27.6707 20.8627 27.6707 20.8627C27.6707 20.8627 27.8425 20.8335 28.0958 20.6821C28.1396 20.7898 28.1309 20.9125 28.2037 20.9558C28.2765 20.9992 28.3755 21.0724 28.3901 21.1423C28.4686 21.0257 28.591 20.8771 28.629 20.7665C28.5998 20.9969 28.5794 22.0044 28.6866 22.517C28.911 22.4966 29.141 22.4821 29.2983 22.0771C29.1906 22.4734 29.1906 22.7121 29.2633 23.05C29.3828 22.9686 29.4905 22.8229 29.4905 22.8229L29.4912 22.8234Z" fill="#C0993A"/>
<path fill-rule="evenodd" clip-rule="evenodd" d="M21.9232 6.76895C21.9232 6.76895 21.699 6.86207 21.3175 6.86207C20.9855 6.86207 21.0786 6.73401 20.5602 6.73401C19.7623 6.73401 16.9748 7.19481 16.4854 7.18828C16.1679 7.18252 17.5572 7.32518 17.5572 7.32518L21.1078 7.37471L21.8213 7.31711L22.0864 6.77759L21.9232 6.76895Z" fill="#A88F33"/>
<path fill-rule="evenodd" clip-rule="evenodd" d="M12.7164 13.7098C12.7164 13.7098 12.262 14.0563 12.0698 14.3215C11.8776 14.5866 11.7756 14.7612 11.5571 14.9768C11.6084 14.9787 11.6597 14.9718 11.7086 14.9564C11.7086 14.9564 11.7086 15.014 11.6737 15.0292C11.7348 15.0223 11.7958 15.0435 11.8396 15.0868C11.7754 15.1217 11.6007 15.2966 11.7376 15.5034C11.8396 15.6607 12.0552 15.6751 12.0552 15.6751C12.0552 15.6751 12.0056 15.8179 12.2124 15.8033C12.6581 15.783 13.1561 15.5877 13.3861 15.6372C13.6165 15.6948 13.7475 15.716 13.9105 15.9986C14.0833 16.2781 14.2338 16.3219 14.2338 16.3219C14.2338 16.3219 14.3358 16.0625 14.3125 15.6753C14.3961 15.4665 14.4424 15.2447 14.4494 15.02L14.2979 13.9044L13.6369 13.0685L12.7806 13.5433L12.7164 13.7092V13.7098Z" fill="#E3C571"/>
<path fill-rule="evenodd" clip-rule="evenodd" d="M13.5291 13.5437C13.5291 13.5437 13.5932 13.6952 13.8612 13.7096C13.832 13.7737 13.832 13.7825 13.8409 13.8319C13.8466 13.8814 13.8553 13.9542 13.8553 13.9542C13.8848 13.9399 13.9114 13.9204 13.934 13.8966C13.9486 13.9607 13.9194 14.0625 13.934 14.1354C13.943 14.1798 13.9576 14.2228 13.9776 14.2635C13.9818 14.2535 13.9867 14.2439 13.9922 14.2345C13.9979 14.2199 14.0498 14.3918 14.1932 14.5225C14.1931 14.5024 14.198 14.4826 14.2076 14.4649C14.2098 14.5014 14.2219 14.5367 14.2425 14.5669C14.2318 14.5617 14.222 14.5549 14.2135 14.5465C14.2135 14.5465 14.2279 15.0073 14.3067 15.2456C14.3198 15.2302 14.3315 15.2136 14.3416 15.196C14.3416 15.1816 14.3358 15.3243 14.3212 15.4264C14.3009 15.5284 14.3155 15.671 14.3155 15.671C14.368 15.6297 14.4257 15.5954 14.4871 15.5691C14.5745 15.534 14.7175 15.4262 14.8047 15.1874C14.8553 15.0521 14.8943 14.9128 14.9212 14.771C14.9494 14.8252 14.9688 14.8835 14.9788 14.9438C14.9848 15.0165 15.1217 14.9787 15.1217 14.9787L15.1509 14.6611L15.3237 13.9417L15.4809 13.4961L16.2382 12.3166L17.6064 11.2629L18.8006 11.5367L19.8082 10.1678L18.0723 9.125L16.4296 9.29684L14.9387 11.3618L13.7447 13.2348L13.5291 13.5435L13.5291 13.5437Z" fill="#D8B65B"/>
<path fill-rule="evenodd" clip-rule="evenodd" d="M22.133 10.5554C22.133 10.5554 22.031 10.5757 21.7369 10.7282C21.4427 10.8806 21.2388 10.929 21.1252 11.1533C21.0115 11.3775 21.0028 11.5553 21.0028 11.5553C21.0028 11.5553 21.2039 11.468 21.3204 11.4388C21.4427 11.4098 21.5796 11.4184 21.565 11.468C21.551 11.5019 21.5316 11.5334 21.5074 11.5611C21.5074 11.5611 21.7378 11.5553 21.7317 11.669C21.7255 11.7827 21.6881 11.9078 21.6445 11.9631C21.6007 12.0207 21.4203 12.106 21.3999 12.173C21.3504 12.3099 21.4203 12.3156 21.394 12.4262C21.3736 12.5341 21.2776 12.7438 20.9629 13.1107C20.6396 13.4778 20.5021 13.737 20.5021 13.737C20.5021 13.737 20.3449 13.4429 20.2633 13.1894C20.2057 13.2184 19.8964 13.3903 19.8964 13.3903L19.1798 10.8943L19.1942 10.7282C19.1942 10.7282 19.2583 10.6497 19.2729 10.5039C19.1652 10.469 19.1506 10.4398 19.0078 10.3031C18.8649 10.1664 18.7486 10.0001 18.5099 9.88646C18.475 9.82234 18.4312 9.73517 18.2565 9.70003C18.0818 9.6649 17.9769 9.6361 17.9769 9.6361C17.9769 9.6361 18.07 9.60096 18.1138 9.52819C18.0059 9.54278 17.9188 9.57773 17.6828 9.57197C17.4439 9.56602 17.4176 9.55738 17.2867 9.57773C17.1557 9.59808 16.9987 9.65645 16.9401 9.45542C16.876 9.40589 16.7391 9.44966 16.6226 9.62131C16.506 9.79296 16.4653 9.93005 16.2411 9.99706C16.2253 10.0959 16.1907 10.1908 16.1391 10.2766C16.075 10.3845 15.973 10.4922 15.8361 10.6524C15.6205 10.9058 15.6555 11.3222 15.3118 11.6398C14.9652 11.9572 15.3694 10.7601 15.3694 10.7601L15.9227 9.43526L17.4985 7.89446L19.9451 7.72858L20.184 8.99578L21.3782 9.40646L22.1326 10.5569L22.133 10.5554Z" fill="#D3AE4D"/>
<path fill-rule="evenodd" clip-rule="evenodd" d="M22.5205 10.8349L21.4924 9.35251L20.773 8.79898C20.773 8.79898 20.2603 7.85549 20.2254 7.8263C20.1962 7.80595 19.7127 7.75354 19.404 7.73318L19.4616 7.87584C19.529 7.89773 19.5889 7.93811 19.6344 7.99238C19.7713 8.14963 19.8587 8.44666 19.547 8.76422C19.6693 8.80781 19.7198 8.82182 19.8266 8.80781C19.7189 8.93606 19.4743 9.20986 19.4597 9.4487C19.4451 9.64378 19.5674 9.70195 19.5674 9.70195C19.5674 9.70195 19.381 9.91757 19.3723 10.278C19.4604 10.1787 19.5567 10.0871 19.6603 10.0042C19.8759 9.83136 20.173 9.63706 20.374 9.51475C20.3712 9.56608 20.3781 9.61746 20.3943 9.66624C20.3943 9.66624 20.7699 9.3575 21.0855 9.4944C21.2282 9.55853 21.1641 9.75955 21.1641 9.75955C21.1641 9.75955 21.3593 9.68678 21.4962 9.82368C21.6331 9.96058 21.8282 10.3129 21.9273 10.45C21.9708 10.5141 22.0845 10.6364 22.2009 10.8255C22.3599 11.0906 22.4926 11.3706 22.5971 11.6615C22.6029 11.545 22.6263 11.382 22.8275 11.382L22.5217 10.8344L22.5205 10.8349Z" fill="#CAA13E"/>
<path fill-rule="evenodd" clip-rule="evenodd" d="M7.10705 15.0467C7.10705 15.0467 7.03428 14.866 7.10705 14.5137C7.17982 14.1613 7.29348 13.9953 7.3313 13.4769C7.36913 12.9585 7.70705 12.3118 7.70705 12.3118L8.6419 11.8867L9.30314 12.0672L9.49822 12.9527L8.66225 13.4135C8.66225 13.4135 8.61866 13.6086 8.3827 13.7658C8.14673 13.9231 7.82052 14.0454 7.74199 14.2057C7.69505 14.3039 7.66079 14.4076 7.64004 14.5144C7.64004 14.5144 7.40119 14.4649 7.25854 14.6221C7.10705 14.7825 7.11281 14.9251 7.10705 15.0474V15.0467Z" fill="#F4EFC8"/>
<path fill-rule="evenodd" clip-rule="evenodd" d="M8.99418 14.8107C8.99418 14.8107 8.91546 14.8602 8.85728 14.9835C8.79968 14.8904 8.66202 14.3368 8.65626 13.8388C8.6505 13.3407 8.62074 13.2173 8.73594 13.0456C8.85114 12.874 9.30291 12.6931 9.23878 12.384C9.17466 12.0898 8.90662 11.9675 8.57754 12.052C8.34714 12.1096 8.17568 12.5996 7.93683 12.8442C7.75616 13.0306 7.54074 13.0015 7.48256 13.1034C7.40384 13.2403 7.47661 13.3772 7.45338 13.4646C7.44742 13.4937 7.37466 13.651 7.24352 13.8403C6.97856 14.2218 6.53005 14.7608 6.47168 15.2442C6.49203 14.9704 6.47763 14.9647 6.5504 14.6617L6.50662 14.5889L6.79462 13.6452L6.98106 12.8676L7.3977 11.5655L8.13152 10.2345L8.84518 9.4364L9.58784 9.48594L9.6752 10.6015L10.1005 12.6958L10.9946 13.7967L9.56154 14.7611L8.9936 14.8107H8.99418Z" fill="#EBCC73"/>
<path fill-rule="evenodd" clip-rule="evenodd" d="M9.43995 15.2064C9.43995 15.2064 9.31765 15.2356 9.27387 15.2124C9.23009 15.1891 9.1867 15.1628 9.2011 15.1336C9.2155 15.1045 9.29422 15.0551 9.29422 15.0317C9.29758 14.9877 9.26534 14.949 9.22145 14.9443C9.15445 14.9357 9.13409 14.9793 9.13409 14.9793C9.13409 14.9793 9.06997 14.9299 9.01774 14.9217C9.04864 14.9179 9.07973 14.9159 9.11086 14.9157C9.03037 14.8793 8.94499 14.8547 8.85742 14.843C8.93019 14.7994 9.07304 14.6711 9.16616 14.6711C9.25928 14.6711 9.31765 14.6567 9.30305 14.6072C9.28846 14.5576 9.21569 14.4849 9.13717 14.4557C9.16616 14.4207 9.1867 14.3683 9.11681 14.2253C9.04385 14.0826 9.07304 13.9864 9.09646 13.9517C9.11681 13.9079 9.18958 13.8294 9.22453 13.7798C9.25947 13.7303 9.28865 13.6633 9.34683 13.6284C9.37601 13.608 9.46913 13.5708 9.56245 13.5352C9.6644 13.5003 9.74888 13.4565 9.80705 13.5003C9.87118 13.5439 9.842 13.6022 9.842 13.6022C9.842 13.6022 10.043 13.5293 10.2235 13.6226C10.4042 13.7098 10.844 13.7653 10.844 13.7653L11.0017 14.0828L9.95893 14.977L9.52789 15.1926L9.44053 15.207L9.43995 15.2064Z" fill="#E5C66B"/>
<path fill-rule="evenodd" clip-rule="evenodd" d="M10.8873 13.7447C10.8873 13.7447 10.564 13.9603 10.4912 14.0388C10.5348 14.0448 10.6076 14.074 10.5784 14.1176C10.5435 14.1611 10.3338 14.3126 10.2173 14.4555C10.095 14.5981 9.97841 14.7788 9.9377 14.8662C9.89412 14.9447 9.56196 15.1749 9.44849 15.2039C9.68733 15.2039 10.1679 14.9098 10.3484 14.9098C10.3426 14.9971 10.3979 15.0962 10.4999 15.1048C10.6018 15.1135 10.896 15.169 11.2921 14.9243C11.6882 14.6855 11.5572 14.5077 11.7231 14.3914C12.0407 14.1815 12.1687 13.9951 12.3435 13.8787C12.5182 13.7624 12.6086 13.7359 12.6086 13.7359C12.6086 13.7359 12.6144 13.6485 12.6662 13.6573C12.6951 13.6607 12.7198 13.6797 12.7303 13.7069C12.7303 13.7069 13.0333 13.4913 13.4215 13.4331C13.4125 13.429 13.4052 13.4218 13.4012 13.4127C13.4012 13.4127 13.4302 13.3981 13.4361 13.3835C13.4361 13.3835 13.4565 13.3544 13.4711 13.369C13.4857 13.3835 13.506 13.4913 13.5352 13.535C13.5993 13.5058 13.7216 13.2321 13.7216 13.2321L14.016 12.3903V11.6214L13.7856 11.6651L12.0576 12.399L11.0089 13.4855L10.8866 13.7447H10.8873Z" fill="#E6BD62"/>
<path fill-rule="evenodd" clip-rule="evenodd" d="M15.8621 9.97286C15.9556 9.95018 16.0452 9.91382 16.128 9.86495C16.0931 9.95826 16.0931 10.0602 15.9416 10.2816C15.7901 10.503 15.7843 10.535 15.662 10.765C15.5397 11.0039 15.5251 11.3476 15.4086 11.4989C15.4608 11.4735 15.5169 11.4568 15.5745 11.4495C15.5745 11.4495 15.4581 11.5515 15.4086 11.6592C15.3591 11.7669 15.2717 11.9912 15.0563 12.1282C14.8409 12.2653 14.5669 12.3525 14.2727 12.6758C13.9784 12.9932 13.6756 13.3953 13.5239 13.5398C13.6026 13.4029 13.7104 13.1291 13.7395 12.9487C13.7687 12.7682 13.7336 12.5524 13.7831 12.3137C13.8327 12.0751 13.8327 11.903 14.0711 11.4864C14.3096 11.0698 14.7178 9.62226 14.7178 9.62226L15.5973 9.34271L15.8625 9.9719L15.8621 9.97286Z" fill="#B6933F"/>
<path fill-rule="evenodd" clip-rule="evenodd" d="M15.2271 9.43987C15.2271 9.43987 14.9622 9.82137 14.8894 10.1593C14.8166 10.4972 14.8834 10.468 14.8399 10.6341C14.8138 10.7354 14.8138 10.8416 14.8399 10.9428C14.9316 10.795 15.0573 10.6712 15.2064 10.5815C15.457 10.4302 15.6609 10.3223 15.7824 10.1942C15.9047 10.0573 16.0066 9.83308 16.2716 9.66124C16.1639 9.64665 16.0124 9.59712 15.9836 9.60364C16.0915 9.48134 16.4146 9.29491 16.7409 9.07065C17.0642 8.84025 17.0438 8.74732 17.5682 8.51731C17.3963 8.54649 17.3147 8.50272 17.1719 8.51731C17.2295 8.395 17.4311 8.33664 17.6327 8.1358C17.8343 7.93497 17.5046 7.63776 17.5046 7.63776L15.9686 8.56684L15.226 9.44064L15.2271 9.43987Z" fill="#C49937"/>
<path fill-rule="evenodd" clip-rule="evenodd" d="M11.0591 8.74656L11.094 8.46701L11.5339 7.76218L11.9941 6.52435V4.83207L11.9592 3.85344L12.0319 3.21255L12.0872 3.00883L12.1456 2.93011L12.5212 3.12519L13.0398 3.83002L13.0893 5.19034L12.5853 7.3369L11.1464 8.90688L11.0591 8.74656Z" fill="#DFC068"/>
<path fill-rule="evenodd" clip-rule="evenodd" d="M12.2038 2.8514C12.2038 2.8514 11.9734 2.85735 11.9243 3.81562C11.8751 4.77389 11.8513 5.2777 11.8164 5.75252C11.7814 6.22733 11.7 6.51552 11.6591 6.79527C11.6182 7.07501 11.595 7.45632 11.4641 7.68941C11.4065 7.79712 11.2834 8.13504 10.995 8.38848C10.6717 8.66804 10.1886 8.8633 10.1154 8.87789C9.98719 8.90688 9.33765 8.97101 9.07269 9.11674C8.97957 9.16628 8.81925 9.22445 8.64165 9.39053C8.28914 9.70791 7.82028 10.2758 7.48236 10.9603C6.96396 11.9827 6.44556 14.8691 6.44556 14.8691L6.5621 14.674C6.5621 14.674 6.57669 14.4148 6.83589 13.9603C7.08933 13.5061 7.01656 12.9963 7.36888 12.1254C7.50578 11.7934 7.67762 11.3624 7.88728 10.9953C8.21944 10.3981 8.6213 9.88551 9.02623 9.60596C9.68728 9.15168 10.4155 9.05261 10.4155 9.05261L11.1991 8.53421C11.1991 8.53421 11.336 8.26925 11.5167 7.96628C11.7699 7.54119 12.0927 7.06637 12.1631 6.37613C12.271 5.35373 12.0116 4.68384 12.0262 4.07808C12.0408 3.47232 12.0466 3.02669 12.1691 2.91879C12.2916 2.81088 12.204 2.85178 12.204 2.85178L12.2038 2.8514Z" fill="#A88F33"/>
<path fill-rule="evenodd" clip-rule="evenodd" d="M12.2037 7.42424C12.2037 7.42424 12.5493 6.57368 12.7076 5.81932C12.7367 5.66783 12.7949 5.51653 12.8095 5.39423C12.8823 4.68056 12.9026 4.38642 12.8095 3.99608C12.7367 3.70808 12.4572 3.4485 12.3115 3.24728C12.1688 3.03743 12.1018 2.95928 12.131 2.91512C12.1602 2.87096 12.2736 2.79877 12.3842 2.80741C12.6218 2.81433 12.8461 2.91844 13.0048 3.09541C13.229 3.35461 13.4066 4.23436 13.4066 4.23436L13.5934 5.39519L14.0683 6.85727L12.2041 7.4254L12.2037 7.42424Z" fill="#C99E3D"/>
<path fill-rule="evenodd" clip-rule="evenodd" d="M15.4513 6.53894C15.4513 6.53894 15.3872 6.56794 15.2709 6.53894C15.281 6.63589 15.236 6.73034 15.1543 6.78355C15.032 6.73402 13.8871 6.83309 13.8871 6.83309C13.8871 6.83309 13.3541 6.73978 13.188 6.03494C13.0717 5.56589 13.2754 4.91942 13.2084 4.49414C13.1064 3.86784 12.9638 3.74534 12.9492 3.55046C12.9346 3.35558 12.92 3.30586 12.92 3.18355C12.8559 3.16896 12.8181 3.14861 12.7541 3.14861C12.7395 3.09101 12.7685 3.0407 12.7046 2.93875C12.7395 2.95334 12.9784 2.98253 13.2579 3.24749C13.4883 3.4631 13.4883 3.54163 13.5231 3.58541C13.5667 3.62899 13.9192 3.93101 14.0707 4.23206C14.2222 4.53312 14.5163 5.49312 14.5833 5.65037C14.6037 5.7145 14.6474 5.77862 14.7561 5.92416C14.9251 6.13402 15.1726 6.48096 15.4521 6.53856L15.4513 6.53894Z" fill="#B58634"/>
<path fill-rule="evenodd" clip-rule="evenodd" d="M13.5642 3.60001C13.7407 3.88503 13.8992 4.18077 14.0388 4.48551C14.2107 4.87277 14.3126 5.19034 14.5282 5.44954C14.4117 5.11181 14.2049 4.44769 14.0826 4.21172C13.9457 3.96212 13.6662 3.69332 13.5642 3.6002V3.60001Z" fill="#A88F33"/>
<path fill-rule="evenodd" clip-rule="evenodd" d="M11.5834 8.3885C11.5834 8.3885 11.2893 8.46127 10.7417 8.74965C10.561 8.84277 10.3894 8.9213 10.2233 8.99426C9.79186 9.18933 9.32914 9.36962 8.96203 9.46907C8.99122 9.50402 9.00562 9.51842 9.00562 9.51842C9.00562 9.51842 9.00562 9.66127 9.08434 9.74267C9.04075 9.78645 8.45803 10.1825 8.63006 11.5077C8.74642 11.4641 8.88331 11.4058 8.90366 11.4058C8.9388 11.4117 8.94744 11.5077 8.99102 11.5077C9.03461 11.5077 9.17746 11.4501 9.32894 11.2543C9.32318 11.333 9.23582 12.1252 9.70469 12.6582C9.79205 12.5562 10.0134 12.2183 10.0134 12.2183L10.0192 12.1106C10.0192 12.1106 10.0395 11.7349 10.162 11.3912C10.2845 11.0475 10.5232 10.7941 10.5232 10.7941L11.7695 9.01442L11.583 8.38831L11.5834 8.3885Z" fill="#E6C367"/>
<path fill-rule="evenodd" clip-rule="evenodd" d="M10.4184 11.0016C10.3613 11.0419 10.2984 11.0733 10.2319 11.0947C10.2116 11.022 10.1824 10.7714 10.3542 10.5268C10.5553 10.2325 10.9949 9.85096 11.1172 9.5476C11.196 9.35233 11.161 8.86312 11.8601 8.23681C12.5592 7.61051 12.8328 7.39508 12.8328 7.39508L13.9629 6.82715L15.3522 7.37473L14.662 10.08L14.1261 11.3472L11.9949 10.9454L10.4182 11.0016H10.4184Z" fill="#DCBA5A"/>
<path fill-rule="evenodd" clip-rule="evenodd" d="M11.2319 10.267L11.4971 9.93505V9.69908C11.4971 9.69908 11.7912 9.62036 12.1086 9.29704C12.426 8.97371 12.8659 8.35336 13.2533 8.39118C13.6408 8.43496 13.6786 9.23291 13.6932 9.45736C13.7078 9.6818 13.7573 10.1912 13.8358 10.4652C13.9232 10.739 12.8922 11.7758 12.8922 11.7758L12.1919 12.3087L11.2319 10.267Z" fill="#E9CE77"/>
<path fill-rule="evenodd" clip-rule="evenodd" d="M12.0525 13.0311C12.0525 13.0311 12.2681 12.6931 12.1101 12.6204C12.2032 12.4107 12.3751 12.1893 12.3751 12.1893C12.3751 12.1893 12.4974 11.8865 12.8935 11.5137C13.2895 11.1408 13.5343 10.8931 13.5985 10.6428C13.638 10.4796 13.6595 10.3126 13.6626 10.1447C13.7054 10.1797 13.7512 10.2109 13.7995 10.2378C13.8636 10.267 14.1664 10.5174 14.1228 11.0214C14.0792 11.5254 13.8924 11.7351 13.8924 11.7351C13.8924 11.7351 13.7119 11.9155 13.5839 12.0088C13.4468 12.102 13.3975 12.2097 13.1672 12.2185C13.1909 12.1997 13.2175 12.1849 13.246 12.1747C13.246 12.1747 13.0071 12.1457 12.8789 12.2621C12.7506 12.3784 12.478 12.7369 12.3411 12.8448C12.2042 12.9322 12.0531 13.0312 12.0531 13.0312L12.0525 13.0311Z" fill="#CDAE50"/>
<path fill-rule="evenodd" clip-rule="evenodd" d="M21.7369 7.3659C21.3928 7.24048 21.0311 7.16974 20.6651 7.15623C20.0534 7.13588 19.1593 7.17083 18.2826 7.17659C17.3389 7.18235 16.4826 6.85326 15.2943 6.79508C15.0992 6.67854 14.6031 6.16878 13.0544 7.24935C13.1476 7.24359 14.1788 7.01051 14.5369 7.45921C14.898 7.90484 14.7961 8.66209 14.7467 8.84257C14.6534 9.24462 14.3504 9.83003 14.2283 10.2407C14.1062 10.6514 14.135 10.8672 14.0477 11.1552C13.9603 11.4432 13.7681 11.5862 13.8816 11.9182C14.0331 11.8251 14.112 11.8251 14.365 11.2572C14.6181 10.6892 14.5661 10.2843 14.9856 9.80372C15.3963 9.32027 16.08 8.65902 16.3399 8.49294C16.5999 8.32686 18.6641 7.25511 20.8255 8.27751C21.3467 8.22222 21.7371 7.36571 21.7371 7.36571L21.7369 7.3659Z" fill="#D2A83E"/>
<path fill-rule="evenodd" clip-rule="evenodd" d="M13.9252 6.9696C13.923 6.94771 13.9182 6.92618 13.9108 6.90547C13.8906 6.86288 13.864 6.82359 13.8321 6.78893C13.8321 6.78893 13.3194 6.69581 13.0602 6.7248C12.6058 6.77434 12.1951 7.33651 12.0029 7.6249C11.8107 7.91328 11.5718 8.35872 11.3126 8.58893C11.3155 8.5665 11.3103 8.54379 11.298 8.5248C11.298 8.5248 11.3126 8.54515 11.2836 8.57434C11.2546 8.60352 11.2545 8.61792 11.269 8.63194L11.3128 8.67552C11.3272 8.67552 11.7293 8.49485 12.2769 7.98432C12.8594 7.45133 13.305 7.17792 13.5381 7.08423C13.6624 7.0314 13.7923 6.99294 13.9254 6.9696H13.9252Z" fill="#C29637"/>
<path fill-rule="evenodd" clip-rule="evenodd" d="M23.8691 4.77966C23.8691 4.77966 23.7758 4.89602 23.6592 5.02427C23.4 5.29806 23.0621 5.60661 22.7737 5.92418C22.5001 6.22715 22.1914 6.46312 21.8446 6.85922C21.4979 7.25531 21.0958 7.69499 20.9941 7.82325C20.9009 7.9515 20.8282 8.16117 20.8282 8.26888C20.7786 8.23394 20.7205 8.19611 20.7205 8.19611C20.745 8.24184 20.7742 8.28483 20.8078 8.32437C20.8806 8.42632 20.9941 8.55477 21.0524 8.6331C21.124 8.73283 21.1754 8.8456 21.2037 8.96507C21.2387 8.97083 21.4629 9.01461 21.7427 8.55438C22.0224 8.09416 22.3891 7.59035 22.3891 7.59035L22.9717 6.7252L23.3388 5.99138L23.7996 5.17L23.8696 4.77966H23.8691Z" fill="#AC8132"/>
<path fill-rule="evenodd" clip-rule="evenodd" d="M24.4663 4.19138C24.4663 4.19138 24.1138 4.47938 23.9769 4.65218C23.84 4.82498 23.5161 5.27848 23.5161 5.27848L23.6327 5.26389L24.224 4.73973L24.4544 4.32904L24.4661 4.19214L24.4663 4.19138Z" fill="#A88F33"/>
<path fill-rule="evenodd" clip-rule="evenodd" d="M24.3582 27.3379C24.3582 27.3379 24.3525 27.0991 24.4865 26.9564C24.6234 26.8136 24.9699 26.6039 25.3079 25.8175C25.6458 25.031 25.6834 24.8534 25.6834 24.8534C25.6834 24.8534 25.0776 25.3718 24.7042 25.4941C24.7916 25.3135 24.8411 25.1854 24.8849 25.0921C24.8353 25.0485 24.6257 24.999 24.6053 24.9757C24.7217 24.8592 24.7858 24.5737 25.0218 24.3844C25.3248 24.154 25.8781 23.7581 26.3082 23.4052C26.7383 23.0523 27.5838 22.2315 27.6917 21.9926C27.7559 22.0858 27.7703 22.1439 27.7703 22.1439C27.7703 22.1439 27.3452 22.6975 27.1238 23.0498C26.9285 23.3528 26.9431 23.5246 26.9431 23.5246L27.3452 23.3518C27.3452 23.3518 27.4615 23.7829 26.9345 24.4383C27.1649 24.351 27.2578 24.4034 27.3888 24.3304C27.1731 24.4675 26.8761 24.654 26.5966 25.1664C26.3228 25.679 25.9499 26.2762 25.3209 26.6488C24.7092 27.0421 24.3567 27.3362 24.3567 27.3362L24.3582 27.3379Z" fill="#A67A2E"/>
<path fill-rule="evenodd" clip-rule="evenodd" d="M22.7798 7.66905C22.7798 7.66905 22.5409 8.16691 22.506 8.55436C22.5002 8.64767 22.4768 8.72044 22.4768 8.82815C22.471 9.17471 22.4971 9.56217 22.4192 9.74265C22.39 9.66988 22.3754 9.62035 22.3462 9.59135C22.3026 9.71366 22.2239 10.0952 22.1598 10.2378C22.1308 10.1447 22.0667 9.82137 22.0726 9.43987C22.0786 9.05836 22.087 8.9854 22.087 8.90687C22.0726 9.02323 21.9939 9.18067 21.9647 9.27379C21.9211 9.19526 21.8716 9.09331 21.8132 9.00883C21.7783 9.06643 21.7347 9.15148 21.6969 9.19526C21.6909 9.16031 21.6765 9.067 21.6677 8.93606C21.6619 8.78457 21.6531 8.5895 21.6619 8.5486C21.6763 8.47007 21.7988 8.16134 22.058 7.87871C22.3668 7.54079 22.6843 6.89145 22.7775 6.69043C22.8706 6.4894 23.2667 5.65363 23.2667 5.65363H23.5697L23.1298 6.65548C23.1298 6.65548 22.8648 7.20307 22.7279 7.40428C22.591 7.6055 22.3026 8.18207 22.1744 8.40633C22.2675 8.28403 22.3462 8.2199 22.4395 8.10335C22.5298 8.02175 22.7802 7.66943 22.7802 7.66943L22.7798 7.66905Z" fill="#8C6228"/>
<path fill-rule="evenodd" clip-rule="evenodd" d="M24.4719 4.15335C24.4224 4.30567 24.3442 4.4471 24.2415 4.56999C24.0608 4.78561 23.6734 5.0738 23.4843 5.30381C23.3115 5.52807 22.9659 6.13978 23.1229 6.86497C23.1805 6.70772 23.289 6.3961 23.5774 6.04359C23.8658 5.69108 24.1745 5.28634 24.3262 4.97185C24.4775 4.65428 24.4978 4.40391 24.4978 4.40391L24.5554 4.33114L24.5205 4.16506L24.4709 4.15335L24.4719 4.15335Z" fill="#CBA94C"/>
<path fill-rule="evenodd" clip-rule="evenodd" d="M30.37 23.4728C30.37 23.4728 30.2535 23.1554 30.2185 22.867C30.1836 22.5786 30.2761 22.5214 30.169 22.1914C30.1048 21.9903 29.9885 22.0186 29.9593 21.9903C29.9301 21.9621 29.9098 21.6584 29.9155 21.4923C29.9213 21.3262 29.9098 21.1108 29.8806 21.0175C29.837 20.9825 29.8078 20.9534 29.7437 20.7379C29.6709 20.5223 29.636 20.4146 29.601 20.3507C29.5661 20.2867 29.4639 20.2284 29.4639 20.1642C29.4639 20.036 29.5805 19.9692 29.5805 19.9338C29.5747 19.8611 29.4874 19.9194 29.4639 19.8989C29.435 19.8639 29.5369 19.6543 29.4991 19.6251C29.4845 19.6107 29.3825 19.733 29.3562 19.6981C29.3271 19.6629 29.2921 19.3164 29.2397 19.0863C29.1903 18.8621 29.1377 18.6991 29.132 18.6321C29.1262 18.5679 28.7299 17.4378 28.6339 17.164C28.5566 16.9327 28.4915 16.6974 28.4389 16.4592C28.4097 16.3223 28.3893 16.0426 28.3747 16.0718C28.3601 16.1009 28.369 16.2436 28.3455 16.2378C28.3252 16.2319 28.2524 15.734 28.2292 15.6553C28.2088 15.5766 28.0863 15.3097 28.0564 15.1166C28.0272 14.9213 27.9633 14.4115 27.9195 14.065C27.8757 13.7184 27.8554 13.5758 27.8554 13.489C27.8625 13.2767 27.8508 13.0642 27.8204 12.854C27.7628 12.4869 27.6476 12.0413 27.5466 11.7823C27.3516 11.2929 26.833 10.0405 26.7402 9.72884C26.7402 9.65012 26.8422 9.6939 26.8422 9.6939C26.8422 9.6939 27.0954 10.3288 27.2819 10.8181C27.4625 11.3075 27.6344 11.7385 27.6782 11.7823C27.7131 11.8259 27.9869 12.3064 28.1092 13.0929C28.2315 13.8793 28.2751 14.6045 28.348 15.0879C28.383 15.3183 28.4122 15.5628 28.4849 15.8074C28.5635 16.0725 28.6858 16.3463 28.8461 16.7656C28.983 17.1182 29.0849 17.4123 29.1402 17.6657C29.2044 17.9891 29.2044 18.2337 29.2422 18.394C29.2773 18.5309 29.3295 18.8045 29.452 19.2004C29.5745 19.5963 29.7548 20.1063 29.8771 20.4236C30.1162 21.0586 30.2227 21.5887 30.2588 21.8713C30.2907 22.1626 30.3986 23.1704 30.3694 23.4732L30.37 23.4728Z" fill="#A88F33"/>
<path fill-rule="evenodd" clip-rule="evenodd" d="M24.4865 4.1184L24.4719 4.15334C24.4719 4.15334 24.5155 4.16794 24.5069 4.2263C24.5075 4.30616 24.5026 4.38596 24.4923 4.46515C24.4779 4.5671 24.4487 4.64563 24.4429 4.70976C24.4429 4.84666 24.4633 5.0039 24.2701 5.39424C24.2125 5.50195 24.177 5.59507 24.1478 5.6592C24.0751 5.81645 24.0605 5.83987 23.9963 5.91264C24.0983 5.85504 24.4654 5.62464 24.6516 5.6592C24.5236 5.73197 24.3283 5.87482 24.206 6.06125C24.2352 6.06701 24.3575 6.09043 24.5516 6.06125C24.8749 6.01171 25.2361 5.89517 25.5535 5.9184C25.9002 5.93875 25.7633 5.50195 25.7633 5.50195L25.3632 4.6224L24.6059 4.0896L24.4865 4.11859V4.1184Z" fill="#BE9C44"/>
<path fill-rule="evenodd" clip-rule="evenodd" d="M26.4613 10.7069C26.4613 10.7069 26.1234 10.369 25.9865 9.20929C25.8496 8.04423 25.8788 6.32929 25.8788 6.32929L25.605 5.6594C25.605 5.6594 25.5474 5.21377 25.404 5.04788C25.2606 4.88199 24.9789 4.60225 24.8507 4.46535C24.7224 4.32846 24.5769 4.14202 24.4895 4.11284C24.5331 4.04007 24.7283 3.62938 25.4768 3.62362C26.2252 3.61786 26.456 4.03431 26.5341 4.1858C26.6123 4.33729 26.9652 4.9922 27.0961 6.2402C27.2184 7.48667 27.2244 7.57998 27.204 8.01102C27.1894 8.24987 27.1107 8.80321 26.9736 9.39438C26.8484 9.8955 26.7115 10.4548 26.461 10.708L26.4613 10.7069Z" fill="#A17C34"/>
<path fill-rule="evenodd" clip-rule="evenodd" d="M25.4016 11.7001C25.5142 11.7082 25.6267 11.6828 25.725 11.6271C25.8327 11.6214 26.223 11.6709 26.5229 11.2894C26.5433 11.3766 26.5959 11.6127 26.4588 11.8224C26.5317 11.7494 26.6395 11.7204 26.654 11.7001C26.6598 11.8078 26.7618 12.1398 26.3307 12.9465C26.4471 12.8185 26.584 12.8242 26.7063 12.8097C26.7122 12.9611 26.7936 13.4707 26.5782 13.7447C26.4355 13.9311 26.2025 13.8728 26.2025 13.8728C26.2059 13.8321 26.2059 13.7912 26.2025 13.7505C26.1967 13.6717 26.1675 13.5932 26.1881 13.5408C26.0754 13.4893 25.9728 13.4183 25.8851 13.3309C25.6316 13.0921 25.3026 12.6845 25.2793 12.3815C25.2501 12.0436 25.5531 11.9708 25.5531 11.9708C25.5277 11.9481 25.5061 11.9215 25.489 11.8921C25.4744 11.8427 25.4598 11.764 25.4016 11.7001Z" fill="#8C6228"/>
<path fill-rule="evenodd" clip-rule="evenodd" d="M23.1551 8.03596C23.1551 8.03596 23.1405 8.0156 23.062 8.10872C23.0766 8.0156 23.0912 7.92805 23.097 7.84357C23.1341 7.76536 23.1822 7.69283 23.2398 7.62815C23.196 7.71532 23.1668 7.79404 23.1668 7.79404C23.1668 7.79404 23.2747 7.59301 23.432 7.47071C23.5397 7.38335 23.6766 7.34264 23.7348 7.26104C23.7989 7.17368 23.7843 7.15909 23.7989 7.1445C23.7989 7.1445 23.9418 7.05138 24.1603 6.7774C24.1892 6.74245 24.233 6.70463 24.2622 6.66968C24.3115 6.64933 24.4281 6.59692 24.565 6.52684C24.7078 6.44831 24.868 6.3406 24.967 6.29644C25.1621 6.20908 25.3691 6.21791 25.4651 6.08082C25.5379 6.06047 25.6164 5.84197 25.602 5.65573C25.7097 5.69932 26.263 6.043 26.4525 6.79448C26.5894 7.32748 26.3446 8.14885 26.2427 8.54514C26.1407 8.94143 26.1263 9.23538 25.9835 9.41586C25.8028 9.6549 25.2205 9.99186 25.0776 10.1587C24.9553 10.2956 24.5884 10.6422 24.6028 10.8925C24.6174 11.079 24.8474 11.1805 24.8971 11.2159C24.9469 11.2512 24.9465 11.2946 25.0398 11.2735C25.1331 11.2523 25.1679 11.2093 25.2059 11.2093C25.2495 11.2151 25.2495 11.2239 25.2698 11.2239C25.2846 11.2235 25.2993 11.2215 25.3136 11.218C25.3136 11.218 25.299 11.4831 24.6787 11.5636C24.6349 11.5695 24.5913 11.5839 24.5358 11.5928C24.6088 11.5578 24.6523 11.5578 24.7311 11.4501C24.6437 11.4355 24.3931 11.4209 24.329 11.4006C24.3494 11.3656 24.4164 11.2723 24.4717 11.2287C24.5212 11.1851 24.4659 11.1711 24.4223 11.1938C24.3473 11.2448 24.2753 11.3002 24.2067 11.3597C24.1339 11.4238 24.0698 11.5112 23.9533 11.5901C23.9183 11.4735 23.9241 11.2521 24.0612 11.092C24.026 11.0978 23.959 11.1997 23.8951 11.1794C23.8835 11.0731 23.8904 10.9657 23.9155 10.8618C23.9504 10.7307 24.1397 10.5007 24.1397 10.5007L25.0542 8.86655L25.2493 7.62872L23.1551 8.03557V8.03596Z" fill="#92723A"/>
<path fill-rule="evenodd" clip-rule="evenodd" d="M23.106 8.10586C23.106 8.10586 23.0564 8.1408 23.1555 8.20781C23.1409 8.22816 23.106 8.30093 23.0622 8.35047C23.0129 8.40807 22.9603 8.44378 22.9399 8.49332C22.8963 8.59527 22.8614 8.66516 22.8614 8.70893C22.8614 8.75271 22.8468 9.03226 22.7245 9.21274C22.6807 9.27687 22.6312 9.38458 22.5962 9.45735C22.5235 9.58541 22.4593 9.68775 22.4447 9.74535C22.4157 9.8473 22.3954 10.1269 22.3954 10.1269C22.3954 10.1269 22.4595 10.0481 22.4827 10.0191C22.4476 10.0919 22.4098 10.1704 22.3545 10.2288C22.3894 10.1996 22.4914 10.1269 22.6632 9.97536C22.9021 9.77453 23.2749 9.43661 23.7294 9.16896C23.5923 9.2185 23.476 9.2185 23.3828 9.23309C23.4556 9.16032 24.1109 8.39136 24.4546 8.3186C24.4755 8.29214 24.4858 8.25892 24.4838 8.22528L24.1894 8.19629L23.5923 8.32436L23.5051 7.86356L23.106 8.10528V8.10586Z" fill="#B18E3E"/>
<path fill-rule="evenodd" clip-rule="evenodd" d="M24.0555 10.7272C24.0555 10.7272 23.9768 10.8058 23.904 11.001C23.848 10.9425 23.7999 10.8769 23.7611 10.8058C23.6534 10.6253 23.4875 10.3951 23.1001 10.5262C23.0943 10.4039 23.0855 10.3398 23.1001 10.2524C23.1642 10.238 23.3593 10.0808 23.5544 9.85055C23.6914 9.69331 23.8195 9.51263 23.9069 9.28262C23.9645 9.23884 24.0641 9.16607 24.1949 9.08159C24.3813 8.95353 24.6056 8.77862 24.6405 8.58355C24.5531 8.61849 24.3667 8.70585 24.087 8.69145C24.1949 8.64191 24.3608 8.5895 24.3404 8.37388C24.3842 8.3447 24.4191 8.32435 24.4191 8.32435C24.3863 8.3134 24.3518 8.30845 24.3172 8.30975C24.3112 8.2894 24.3026 8.26041 24.253 8.27481C24.2035 8.28921 24.1954 8.2894 24.1889 8.30975C24.1686 8.31571 24.1016 8.30975 24.052 8.34489C24.0025 8.38003 23.8656 8.49619 23.8132 8.51654C23.8335 8.48159 23.8625 8.42937 23.8625 8.42937C23.8625 8.42937 23.7199 8.44377 23.6179 8.48697C23.4315 8.5511 23.2161 8.66764 22.9976 8.78111C23.0179 8.74617 23.0267 8.72351 23.0411 8.71699C23.0555 8.71046 23.0907 8.70259 23.0907 8.69663C23.0907 8.69068 23.0763 8.63903 23.0849 8.61811C23.1502 8.47972 23.2273 8.3472 23.3153 8.22201C23.4173 8.08492 23.4376 7.88985 23.4376 7.88985L23.8833 7.66559L25.1357 7.37759L25.9484 7.42713L25.8465 7.98931L25.3665 8.97081L24.9558 9.86495L24.4867 10.4127L24.0557 10.7272H24.0555Z" fill="#543E26"/>
<path fill-rule="evenodd" clip-rule="evenodd" d="M26.0856 8.29439C26.0856 8.29439 25.5962 8.90015 25.4593 8.99346C25.5467 8.80703 26.0856 7.69727 26.2807 7.38853C26.2371 7.35359 26.1787 7.35359 26.3156 6.81253C26.1993 7.08613 26.1584 7.22898 26.0624 7.30175C25.9664 7.37451 25.9545 7.35128 25.8896 7.35128C25.9018 7.32912 25.9069 7.30368 25.904 7.27851C25.904 7.27851 25.4933 7.22898 25.2128 7.22898C24.9323 7.22898 24.377 7.38047 24.0681 7.50277C23.8235 7.60472 23.6866 7.60472 23.5992 7.66866C23.5118 7.74143 23.4623 7.82015 23.4185 7.8405C23.3836 7.86085 23.2177 7.91327 23.1797 7.96856C23.1447 8.02616 23.0866 8.09087 23.0866 8.10546C23.0866 8.12005 23.072 8.14059 23.1157 8.12581C23.1301 8.12005 23.2381 8.06168 23.3604 7.98891C23.5262 7.89579 23.7273 7.78808 23.873 7.72395C24.2894 7.55787 24.4206 7.58706 24.6068 7.55211C24.8019 7.51717 25.0816 7.43557 25.2679 7.43557C25.4543 7.42981 25.8068 7.43557 25.8884 7.45016C25.8535 7.47935 25.8243 7.51429 25.8389 7.63659C25.8389 7.67154 25.8097 7.70936 25.7813 7.79384C25.6941 8.03269 25.528 8.42879 25.4357 8.62981C25.3076 8.90341 25.1621 9.13362 25.0901 9.27627C25.0181 9.41893 24.8597 9.79467 24.7028 9.9957C24.546 10.1967 24.464 10.319 24.4148 10.3628C24.3657 10.4066 24.0128 10.6656 24.0391 10.7589C24.1032 10.7385 24.5081 10.5861 24.8021 10.2551C25.096 9.92408 25.1546 9.7221 25.3846 9.54143C25.6146 9.36075 25.7953 9.05797 25.903 8.8076C25.9933 8.57451 25.9729 8.50175 26.0864 8.29496L26.0856 8.29439Z" fill="#806031"/>
<path fill-rule="evenodd" clip-rule="evenodd" d="M15.539 12.8156C15.539 12.8156 15.4749 13.0806 15.3291 13.2117C15.1865 13.34 14.9331 13.4506 14.9041 13.6662C14.8691 13.8816 15.1575 13.9895 15.1575 13.9895C15.1575 13.9895 15.0001 14.2487 15.0001 14.4438C15.0001 14.6448 14.9943 14.6826 15.0147 14.8748C14.9916 14.8897 14.9719 14.9093 14.9571 14.9324C14.9571 14.9324 14.9715 15.1188 15.1143 15.2352C15.2571 15.3515 15.3793 15.4216 15.452 15.3924C15.4631 15.4162 15.4729 15.4405 15.4812 15.4654C15.4812 15.4654 15.5891 15.1916 15.6619 14.9528C15.7347 14.7082 15.7988 14.7429 15.8278 14.4138C15.8568 14.0847 16.1734 13.5197 16.1734 13.5197L16.3894 13.0368L16.0371 12.763L15.539 12.8154V12.8156Z" fill="#B6903C"/>
<path fill-rule="evenodd" clip-rule="evenodd" d="M16.1942 13.2903C16.1216 13.3648 16.0545 13.4447 15.9936 13.5291C15.9005 13.6574 15.8277 13.7737 15.6908 13.8234C15.5539 13.8732 15.4666 13.8728 15.4752 14.0099C15.4838 14.147 15.6121 14.2049 15.6849 14.2748C15.7636 14.3476 15.8277 14.4699 15.7928 14.607C15.8363 14.5866 15.9151 14.5632 15.9878 14.406C16.0606 14.2487 16.5696 13.2904 16.5696 13.2904H16.1942V13.2903Z" fill="#685026"/>
<path fill-rule="evenodd" clip-rule="evenodd" d="M18.2016 11.0795C18.2016 11.0795 18.2452 10.9632 18.2016 10.8787C18.1578 10.7914 17.8929 10.7622 17.7618 10.6631C17.6249 10.5611 17.4588 10.4903 17.3219 10.535C17.3422 10.4855 17.4238 10.3776 17.3568 10.3544C17.2927 10.334 17.054 10.4417 16.9899 10.4913C16.9258 10.5408 16.7801 10.599 16.7511 10.6341C16.7221 10.6692 16.6723 10.7361 16.6432 10.7069C16.614 10.6865 16.5996 10.6341 16.55 10.6631C16.5005 10.6921 16.262 10.8874 16.2181 11.001C16.1741 11.1147 16.0752 11.3681 15.7782 11.6563C15.4812 11.9445 15.3529 12.1311 15.4403 12.2388C15.5276 12.3466 15.5685 12.268 15.5831 12.3611C15.5944 12.4526 15.5894 12.5452 15.5685 12.6349C15.5336 12.7864 15.4754 12.9291 15.5539 12.9583C15.755 13.0224 15.9502 12.9007 15.9938 12.9379C16.0812 13.0164 15.9443 13.2991 16.1511 13.3544C16.3609 13.412 16.5677 13.3048 16.5677 13.3048L17.3307 12.8941L18.0647 12.5069L18.4403 11.764L18.2389 11.1437L18.2005 11.0795H18.2016Z" fill="#D4B968"/>
<path fill-rule="evenodd" clip-rule="evenodd" d="M17.4816 12.8535C17.4816 12.8535 17.3534 12.6584 17.5108 12.4863C17.6682 12.3143 17.8923 12.2417 17.9797 12.134C17.963 12.1135 17.9407 12.0984 17.9155 12.0904C17.9735 11.9867 18.062 11.9032 18.169 11.8514C18.1254 11.8078 18.067 11.7729 18.0031 11.7729C17.8602 11.7729 17.7727 11.8602 17.6417 11.8602C17.5137 11.8602 17.4991 11.7961 17.4991 11.7961C17.4991 11.7961 17.7147 11.7758 17.6942 11.6796C17.6738 11.5776 17.6366 11.5776 17.6366 11.5776C17.6366 11.5776 18.053 11.4048 18.1258 11.3127C18.1985 11.2205 18.1899 11.1116 18.2045 11.068C18.2538 11.068 18.5422 10.9166 18.6588 10.9807C18.7753 11.0448 18.6937 11.2195 18.6937 11.2195C18.6937 11.2195 19.0464 10.9544 19.2261 10.6944C19.3834 10.709 19.4565 10.5867 19.5717 10.5867C19.7146 10.5867 19.9388 10.7818 19.9824 11.1982C20.0116 11.4371 20.0552 11.574 20.0116 11.9964C19.9913 12.2352 19.997 12.7452 20.0692 12.9982C20.1186 13.1992 20.2351 13.1789 20.2351 13.1789C20.2172 13.2401 20.1818 13.2948 20.1331 13.3361C20.0544 13.4089 20.0458 13.6013 20.0544 13.6741C20.066 13.7273 20.0806 13.7798 20.0982 13.8313C20.0982 13.8313 20.0051 13.939 19.9817 14.012C19.9613 14.0847 19.8653 14.1343 19.7952 14.1343C19.7251 14.1343 19.7603 14.1283 19.6672 14.1343C19.574 14.1402 19.5449 14.1546 19.4865 14.1343C19.4281 14.1139 19.3845 14.0905 19.408 13.9039C19.4283 13.7175 18.6885 13.2835 18.6885 13.2835L17.4789 12.8525L17.4816 12.8535Z" fill="#CCA849"/>
<path fill-rule="evenodd" clip-rule="evenodd" d="M16.0923 14.6942C16.0923 14.6942 16.3572 15.0467 17.4466 15.0467C17.965 15.0467 18.1457 14.9971 18.253 14.9679C18.3696 14.9388 18.8064 14.7671 19.2463 14.2485C19.6423 13.7797 19.555 13.5875 19.555 13.5875L19.3246 13.5525L18.5758 13.6545L16.3601 14.5982L16.0913 14.6942H16.0923Z" fill="#585136"/>
<path fill-rule="evenodd" clip-rule="evenodd" d="M16.9049 14.7815C16.9049 14.7815 15.9612 14.9913 15.9612 14.3942C15.9612 13.8117 16.5437 13.2 16.6894 13.0923C16.8409 12.9844 17.2021 12.8619 17.2021 12.8619H18.073L18.2389 13.3017L18.1661 14.2512L16.9049 14.7813V14.7815Z" fill="#252211"/>
<path fill-rule="evenodd" clip-rule="evenodd" d="M17.7757 13.0399C17.7757 13.0399 17.5952 12.8738 17.1845 13.0975C16.7738 13.3211 16.4417 13.7887 16.4213 14.2132C16.401 14.5887 16.73 14.8685 17.2427 14.8831C17.6242 14.8975 17.8544 14.8539 17.9709 14.8255C17.9417 14.7905 17.7903 14.6012 17.7903 14.6012L17.7759 13.0401L17.7757 13.0399Z" fill="#C3B378"/>
<path fill-rule="evenodd" clip-rule="evenodd" d="M17.5982 13.1328C17.5982 13.1328 17.5546 13.0978 17.4254 13.1677C17.3177 13.2253 17.1605 13.3776 17.0381 13.4853C16.9594 13.5494 16.9099 13.5784 16.8653 13.628C16.6847 13.8436 16.5332 14.1961 16.6207 14.3708C16.7083 14.5455 16.9965 14.7466 17.7305 14.6097L17.5961 13.133L17.5982 13.1328Z" fill="#E6D89C"/>
<path fill-rule="evenodd" clip-rule="evenodd" d="M17.3594 13.4941C17.3594 13.4941 17.2428 13.6748 17.2428 13.9632C17.2428 14.2573 17.4089 14.7262 18.0206 14.7611C18.4895 14.7903 18.804 14.0855 19.1448 13.8117C19.404 13.602 19.5612 13.5961 19.5612 13.5961C19.5612 13.5961 19.2963 13.3081 18.5886 12.935C17.8895 12.5593 17.1059 12.5098 16.6807 13.0865C16.8817 13.0719 17.5312 12.9059 17.5312 12.9059L17.8488 13.0078L17.3594 13.4943V13.4941Z" fill="#252211"/>
<path fill-rule="evenodd" clip-rule="evenodd" d="M18.274 13.8757C18.2537 13.8321 18.2391 13.7737 18.3236 13.7593C18.4081 13.7449 18.4459 13.7534 18.4751 13.8169C18.5043 13.8805 18.5327 13.9335 18.4895 13.9598C18.4459 13.983 18.3322 13.9598 18.2739 13.8753L18.274 13.8757ZM18.1368 13.465C18.1368 13.465 18.1077 13.4853 18.1222 13.4446C18.128 13.3953 18.166 13.3077 18.2591 13.3283C18.3523 13.3488 18.3321 13.4506 18.3167 13.4798C18.3014 13.5089 18.2236 13.5583 18.1653 13.5374C18.1502 13.5335 18.138 13.5227 18.1322 13.5084C18.1264 13.494 18.1279 13.4777 18.1361 13.4646L18.1368 13.465Z" fill="#6F674D"/>
<path fill-rule="evenodd" clip-rule="evenodd" d="M10.2527 13.6512C10.2527 13.6512 10.4831 13.824 10.7507 13.8173C11.0157 13.8113 11.3565 13.5377 11.5137 13.3628C11.6069 13.2609 11.6865 13.1531 11.7729 13.0687C11.8459 12.9959 11.8952 12.9609 11.9302 12.9114C11.9797 12.8538 12.0321 12.7455 12.0584 12.7104C11.9943 12.7599 11.9012 12.8475 11.805 12.9057C11.7119 12.9633 11.5109 13.0715 11.4293 13.1007C11.3507 13.1299 10.5351 13.5615 10.5351 13.5615L10.2527 13.6512Z" fill="#AC924C"/>
<path fill-rule="evenodd" clip-rule="evenodd" d="M10.605 11.4991C10.605 11.4991 10.733 11.4117 10.9807 11.3562C11.2196 11.2986 11.7001 11.2543 11.7001 11.2543L12.0962 11.4271L12.2535 12.0242L11.9655 12.6447L11.5986 12.8751L11.1819 12.2052L10.6059 11.5002L10.605 11.4991Z" fill="#9F8E57"/>
<path fill-rule="evenodd" clip-rule="evenodd" d="M10.0866 12.0321L9.94946 12.1344C9.94946 12.1344 9.9846 12.0703 10.0136 11.8752C10.0426 11.6801 10.1943 11.2053 10.4156 10.9315C10.637 10.6577 10.6313 10.6723 10.6313 10.6723C10.59 10.6648 10.5476 10.6754 10.5147 10.7013C10.5439 10.6368 10.7303 10.4064 10.9168 10.2912C11.1032 10.176 11.176 10.1397 11.371 10.2336C11.5661 10.3275 11.6156 10.3763 11.7585 10.3705C11.9013 10.3647 12.0234 10.2133 12.0234 10.2133C12.0234 10.2133 12.0526 10.3064 11.9449 10.522C11.8372 10.7376 11.4119 11.1773 11.4119 11.1773L10.5264 11.783L10.0866 12.0326V12.0321Z" fill="#EAC970"/>
<path fill-rule="evenodd" clip-rule="evenodd" d="M10.7415 11.4263C10.7415 11.4263 11.3824 11.5137 11.5775 11.3332C11.5832 11.3535 11.6066 11.3535 11.6066 11.3681C11.6051 11.3791 11.5999 11.3893 11.5921 11.3971C11.6133 11.3937 11.6347 11.3918 11.6562 11.3913C11.6818 11.399 11.7082 11.4039 11.7349 11.4059C11.7564 11.4055 11.7778 11.4035 11.799 11.4C11.7949 11.4292 11.7791 11.4556 11.7553 11.4729C11.7844 11.4729 11.8129 11.4787 11.8129 11.5019C11.8129 11.5252 11.8186 11.5953 11.7837 11.6098C11.7547 11.6178 11.7239 11.6158 11.6963 11.6039C11.6986 11.659 11.7136 11.7129 11.7401 11.7613C11.7977 11.869 11.9206 11.9917 12.0857 11.9564C12.0857 11.9564 12.1729 12.1661 11.8059 12.6321C11.7566 12.6962 11.704 12.7835 11.6401 12.8563C11.6148 12.9114 11.5955 12.969 11.5825 13.0281C11.5825 13.0281 12.203 12.7893 12.3806 12.2446C12.5613 11.697 12.5962 11.1583 12.5613 10.6545C12.5553 10.5116 12.5321 10.4098 12.4971 10.3369C12.4098 10.1562 12.165 10.1854 12.0661 10.2873C11.9233 10.4302 11.6844 10.7854 11.3524 11.03C11.0145 11.2746 11.0001 11.318 10.7407 11.4263H10.7415Z" fill="#D7BC6B"/>
<path fill-rule="evenodd" clip-rule="evenodd" d="M9.97282 12.2127C9.97282 12.2127 9.85051 12.2855 9.78638 12.5583C9.72226 12.8379 9.84398 13.1787 9.91445 13.2864C9.98491 13.3941 10.1448 13.6884 10.4766 13.703C10.5587 13.7026 10.64 13.6858 10.7155 13.6535C10.8313 13.6004 10.9399 13.5328 11.0388 13.4525C11.1816 13.3448 11.298 13.2516 11.2834 13.2428C11.2485 13.2282 10.4039 12.5291 10.4039 12.5291L10.0863 12.1747L9.97262 12.2131L9.97282 12.2127Z" fill="#585136"/>
<path fill-rule="evenodd" clip-rule="evenodd" d="M10.7711 13.3718C10.7711 13.3718 10.9429 13.3574 11.0449 13.2933C11.1468 13.2292 10.4478 12.5361 10.4478 12.5361L10.4973 13.2849L10.7711 13.3718Z" fill="#453A25"/>
<path fill-rule="evenodd" clip-rule="evenodd" d="M10.0282 12.1601C10.0282 12.1601 9.94087 12.3262 9.94087 12.37C9.92628 12.5126 9.97006 12.9611 10.005 13.1038C10.0399 13.2553 10.2293 13.4853 10.4741 13.4853C10.6254 13.4853 10.8352 13.3922 10.8352 13.369C10.8352 13.3398 10.6196 13.3114 10.5614 13.2029C10.5265 13.1453 10.5119 13.002 10.5038 12.8573C10.4981 12.7642 10.4981 12.6622 10.533 12.6269C10.6117 12.5395 10.6261 12.289 10.6261 12.289L10.9057 11.7696H10.538L10.0981 12.0434L10.0282 12.1601Z" fill="#84754B"/>
<path fill-rule="evenodd" clip-rule="evenodd" d="M9.92041 12.3205C9.92041 12.3205 10.2084 11.939 10.468 11.8514C10.7276 11.7638 10.8437 11.8165 10.8437 11.8165L10.6923 12.2039L10.4766 12.4428L10.4912 12.5651C10.4912 12.5651 10.4561 12.8884 10.6717 13.1126C10.8873 13.3369 11.0475 13.3283 11.1408 13.3283C11.2341 13.3283 11.5019 13.2495 11.6388 12.9262C11.7611 12.6234 11.8631 12.235 11.6185 11.8456C11.3794 11.4582 10.9572 11.4432 10.8756 11.4432C10.794 11.4432 10.1533 11.4753 9.92041 12.3199V12.3205Z" fill="#252211"/>
<path fill-rule="evenodd" clip-rule="evenodd" d="M17.3154 13.6164C17.2077 13.5669 17.3096 13.2641 17.4173 13.1708C17.525 13.0775 17.6619 12.97 17.901 12.9552C17.9881 12.9494 18.0726 13.0047 18.0582 13.0631C18.0379 13.1708 17.8864 13.3223 17.7495 13.43C17.5602 13.5786 17.4377 13.6717 17.3154 13.6164Z" fill="#F7F7E7"/>
<path fill-rule="evenodd" clip-rule="evenodd" d="M11.4901 11.9651C11.5689 11.9593 11.6708 12.0227 11.6912 12.1079C11.7115 12.201 11.6416 12.3875 11.4901 12.3875C11.3678 12.3875 11.3037 12.236 11.3037 12.1924C11.3051 12.1565 11.3151 12.1216 11.3329 12.0904C11.3387 12.0816 11.3532 11.9796 11.4901 11.9651Z" fill="#F8F6DE"/>
<path fill-rule="evenodd" clip-rule="evenodd" d="M10.3544 12.0321C10.3544 12.0321 10.1534 12.1252 10.0603 12.3201C9.99376 12.464 9.97363 12.625 10.0027 12.7809C10.0173 12.8536 10.0901 13.0341 10.1396 13.0982C10.1891 13.1624 10.2561 13.2062 10.3057 13.2002C10.3552 13.1942 10.457 13.0633 10.457 12.9848C10.457 12.9062 10.4629 12.5741 10.5589 12.3934C10.6434 12.2129 10.355 12.0323 10.355 12.0323L10.3544 12.0321Z" fill="#D4C38B"/>
<path fill-rule="evenodd" clip-rule="evenodd" d="M10.3835 12.0175C10.3485 12.0378 10.2903 12.067 10.3047 12.1048C10.3193 12.1398 10.4416 12.1624 10.4854 12.2477C10.5349 12.335 10.5349 12.4282 10.5204 12.4719C10.5584 12.4539 10.5929 12.4292 10.6223 12.399C10.6864 12.3262 10.765 12.2273 10.832 12.2273C10.8757 12.2273 10.9193 12.2477 10.9602 12.2477C11.0244 12.2477 11.0883 12.2273 11.0971 12.1603C11.1115 12.073 10.9748 11.9942 10.8961 12.0088C10.9107 11.9512 10.931 11.8662 10.8669 11.8078C10.8028 11.7494 10.602 11.8516 10.5582 11.8808C10.5144 11.91 10.3835 12.0177 10.3835 12.0177V12.0175Z" fill="#E2D59D"/>
<path fill-rule="evenodd" clip-rule="evenodd" d="M15.0118 18.1369L15.4428 18.0096L15.5651 18.0969C15.5651 18.0969 15.6523 18.2834 15.7894 18.3066C15.7456 18.3997 15.6319 18.4794 15.6379 18.5455C15.6438 18.6115 15.702 18.662 15.702 18.662C15.702 18.662 15.3146 19.3027 16.0778 19.9484C15.8971 20.0212 15.6671 20.1212 15.5448 20.1788C15.6319 20.1992 15.8184 20.2364 15.8971 20.3071C15.9758 20.3777 15.9758 20.4002 16.0486 20.444C16.1213 20.4877 16.1649 20.5459 16.1505 20.572C16.101 20.5428 15.9349 20.4557 15.9059 20.5371C15.8769 20.6185 15.1865 20.5866 15.1865 20.5866L14.0214 20.8109C14.0214 20.8109 14.065 20.6943 13.9427 20.5866C13.8001 20.4585 13.6253 20.5924 13.4389 20.4497C13.1943 20.2633 13.1855 20.0477 13.1069 19.9663C13.1855 19.9167 13.3458 19.844 13.7273 19.7935C13.7127 19.7643 13.6632 19.6769 13.6923 19.5984C13.7273 19.4964 13.8728 19.4323 13.8292 19.3104C13.8934 19.2958 13.9224 19.2958 14.0827 19.0948C14.2342 18.8937 14.3273 18.8502 14.4438 18.8356C14.5604 18.821 14.6303 18.8356 14.8459 18.6345C14.9972 18.4919 14.9478 18.3696 14.9478 18.3696C14.9478 18.3696 15.0467 18.3375 15.012 18.1365L15.0118 18.1369Z" fill="#CBAC5A"/>
<path fill-rule="evenodd" clip-rule="evenodd" d="M13.739 18.2016C13.7447 18.1724 13.7681 18.1578 13.9254 18.1724C14.0826 18.187 15.0787 18.0793 15.3496 18.0647C15.6234 18.0443 16.5875 18.0587 17.0565 18.1578C17.5256 18.2569 18.0002 18.3734 18.2302 18.4316C18.4606 18.4957 18.5332 18.5188 18.5244 18.548C18.5186 18.5771 18.4668 18.6056 18.437 18.5975C18.408 18.5917 17.6448 18.3587 17.409 18.3095C17.1733 18.2603 16.3575 18.1288 15.9114 18.1367C15.495 18.1427 15.3289 18.1309 14.9766 18.1716C14.6241 18.2154 14.0415 18.2736 13.8668 18.2504C13.694 18.23 13.7297 18.23 13.7386 18.2008L13.739 18.2016Z" fill="#D6BC6F"/>
<path fill-rule="evenodd" clip-rule="evenodd" d="M16.0834 20.4845C16.0834 20.4845 16.6805 20.8078 16.8961 21.2039C17.0533 21.4981 16.803 21.6438 16.803 21.6438C16.803 21.6438 17.1409 21.6438 17.0971 21.8302C17.0768 21.9466 16.5146 22.2611 16.1389 22.4271C15.7573 22.5932 15.7719 22.5846 15.5855 22.6136C15.4048 22.6428 14.9097 22.556 14.8077 22.7009C14.7058 22.8459 14.7501 22.9953 14.7785 23.0185C14.8077 23.0389 15.0437 23.068 15.0437 23.068C15.0437 23.068 14.9941 23.2049 14.5049 23.2195C14.0157 23.2341 13.8932 23.2689 13.864 23.3215C13.8349 23.3708 13.9572 23.3418 14.1816 23.3791C14.4059 23.414 14.7204 23.4367 14.7204 23.4367C14.7204 23.4367 14.6184 23.524 14.3534 23.5939C14.0505 23.6725 13.5757 23.7454 13.433 23.8328C13.5058 23.8823 13.6137 23.9551 13.6634 23.9608C13.5411 23.99 13.3691 24.0542 13.3401 24.0774C13.3837 24.1066 13.442 24.1415 13.442 24.1415C13.442 24.1415 13.1972 24.4357 13.0546 24.5086C12.9119 24.5816 12.0905 24.9629 11.8079 24.8901C11.1031 24.7037 11.0157 23.9319 10.8439 23.8737C10.5847 23.7863 10.4624 23.9608 10.2322 23.8385C10.3341 23.7658 10.3896 23.7222 10.4973 23.6727C10.3808 23.6151 9.77789 23.2328 9.77789 23.2328C9.71485 23.0954 9.64487 22.9612 9.56823 22.8309C9.45168 22.6299 9.28023 22.3619 9.15159 22.1259C8.87204 21.6075 8.85744 21.3687 8.604 21.0745C8.64778 21.0169 8.79908 21.025 8.79908 21.025L10.9226 21.724L14.6879 21.8331L15.6671 20.4352L16.0836 20.4847L16.0834 20.4845Z" fill="#DFC677"/>
<path fill-rule="evenodd" clip-rule="evenodd" d="M10.5059 22.6165C10.5286 22.6418 10.5551 22.6634 10.5844 22.6806C10.6573 22.7301 10.7651 22.7885 10.8378 22.8757C10.867 22.8321 10.9398 22.7534 11.0682 22.8757C11.1967 22.998 11.3562 22.9108 11.4555 22.9398C11.5574 22.9749 11.5632 22.9893 11.5632 22.9893C11.5632 22.9893 11.6208 22.9398 11.7496 22.8874C11.8284 22.8582 11.9215 22.8378 12.0234 22.8088C12.1165 22.7885 12.2185 22.7593 12.2886 22.7593C12.3527 22.8029 12.5827 23.0473 13.5061 22.6865C14.377 22.3486 14.5778 22.3108 14.7235 22.363C14.7381 22.3281 14.7527 22.2611 14.977 22.2699C14.977 22.1768 14.7905 21.8592 14.7905 21.8592L13.7624 21.5069H13.2L11.5137 21.8156L10.5792 22.3488L10.5064 22.6176L10.5059 22.6165Z" fill="#C4A859"/>
<path fill-rule="evenodd" clip-rule="evenodd" d="M9.9436 22.0253C9.9436 22.0253 9.96396 22.1825 10.197 22.3486C10.4274 22.5145 10.4998 22.6136 10.4998 22.6136C10.4998 22.6136 10.5436 22.556 10.5785 22.4972C10.6135 22.4331 10.6427 22.3603 10.7009 22.34C10.8174 22.2904 11.0824 22.3836 11.1407 22.369C11.1903 22.3546 11.1757 22.2526 11.2281 22.2526C11.3504 22.2467 11.4289 22.3311 11.4727 22.3311C11.5165 22.3311 11.624 22.3254 11.6386 22.3022C11.6532 22.2789 11.6589 22.037 11.825 21.9205C12.0057 21.7924 12.2271 21.8477 12.2858 21.8769C12.2858 21.9205 12.2916 22.0284 12.4081 22.0341C12.5247 22.0399 12.5362 22.0195 12.6385 22.0545C12.7409 22.0894 12.8628 22.0487 12.9181 22.2204C12.9676 22.206 13.0841 22.1914 13.055 22.0253C13.1126 21.9817 13.1629 21.9525 13.2854 21.7807C13.3145 21.7371 13.3639 21.6876 13.4019 21.6234C13.5039 21.6234 13.6262 21.6031 13.7892 21.7457C13.7396 21.7807 13.7105 21.8033 13.6961 21.8389C13.7387 21.8811 13.7776 21.9269 13.8124 21.9758C13.8562 22.0334 13.8854 22.104 13.9407 22.1186C14.063 22.1535 14.264 22.104 14.4882 22.1186C14.7039 22.1332 14.8843 22.2117 14.9631 22.2613C14.9922 22.2469 14.9922 22.2409 15.065 22.2555C15.1378 22.2701 15.1931 22.2759 15.1145 22.1827C15.1581 22.2031 15.2077 22.2469 15.2514 22.2031C15.2952 22.1593 15.33 22.0954 15.4523 22.0808C15.5746 22.0662 15.6184 22.0865 15.6679 21.9585C15.732 21.8012 15.5106 21.8012 15.5106 21.8012C15.5106 21.8012 15.6126 21.7079 15.7263 21.5856C15.8632 21.4575 16.0204 21.2915 16.0582 21.0876C16.1224 20.7118 15.7554 20.6625 15.7554 20.6625L13.9758 21.2101L11.8001 21.1022L9.94476 22.0255L9.9436 22.0253Z" fill="#927D49"/>
<path fill-rule="evenodd" clip-rule="evenodd" d="M8.34464 16.8845C8.34464 16.8845 8.28704 16.9572 8.25152 17.1291C8.216 17.3009 8.23117 17.2806 8.20199 17.4029C8.1728 17.5252 7.81434 18.7427 7.94874 19.1533C8.08314 19.564 8.31584 19.7155 8.46138 20.0475C8.49056 20.1203 8.51898 20.164 8.53415 20.2282C8.58368 20.4436 8.5401 20.6097 8.59828 20.8253C8.61863 20.898 8.67124 20.9825 8.74976 21.0699C8.92256 21.2504 9.20423 21.4222 9.32576 21.5445C9.49741 21.7252 9.74221 22.0923 10.0538 22.127C10.2199 22.1474 10.4559 22.0775 10.6509 21.9612C10.8237 21.8532 10.9305 21.702 11.1117 21.6156C11.2398 21.5514 11.3767 21.5282 11.499 21.499C11.7525 21.4495 11.9827 21.4414 12.1196 21.4698C12.3292 21.5136 12.8244 21.6651 13.0988 21.6651C13.3131 21.6616 13.5263 21.6323 13.7337 21.5777C14.1501 21.4554 14.654 21.2456 14.9861 21.1524C15.1812 21.0948 15.3384 21.0797 15.4988 21.0447C15.7725 20.9806 16.0026 20.8932 16.1337 20.7272C16.0463 20.6252 15.9386 20.468 15.3559 20.4737C14.6949 20.4883 13.9317 20.8552 13.5559 20.9136C13.1802 20.972 13.0172 21.0213 12.5976 20.8698C12.1864 20.7168 12.1727 20.6156 12.1727 20.6156C12.1727 20.6156 11.7409 20.3136 11.5603 19.5437C11.3796 18.7738 11.5603 18.2127 12.0293 17.6796C12.1516 17.5427 12.1224 17.4204 12.1224 17.4204C12.1224 17.4204 12.4312 17.0039 12.3467 16.614C12.2536 16.2265 11.6565 16.3052 11.6565 16.3052L8.34484 16.8845H8.34464Z" fill="#6E6342"/>
<path fill-rule="evenodd" clip-rule="evenodd" d="M8.84272 18.1807C8.81704 18.2289 8.80496 18.2833 8.80777 18.3379C8.81353 18.4164 8.83696 18.5184 9.07273 18.7486C9.27376 18.9494 9.22998 19.1737 9.22998 19.1737C9.22998 19.1737 9.33116 19.194 9.60572 19.0656C9.82134 18.9636 9.89372 19.1443 9.89372 19.1443C9.95649 19.1114 10.0245 19.0897 10.0947 19.0802C10.1584 19.0743 10.22 19.0547 10.2752 19.0226C10.2752 19.0226 10.5287 19.2818 10.75 19.4041C10.9511 19.512 11.0676 19.5848 11.1667 19.512C11.2598 19.4479 11.2598 19.3167 11.2539 19.2586C11.2307 19.2049 11.2015 19.154 11.1667 19.1071C11.1026 19.0139 11.0006 18.906 10.9939 18.8191C10.9793 18.6182 11.1454 18.3792 11.1102 18.321C11.0751 18.2628 10.9443 18.2482 10.621 18.3648C10.2862 18.4754 8.84137 18.1812 8.84137 18.1812L8.84272 18.1807Z" fill="#39331F"/>
<path fill-rule="evenodd" clip-rule="evenodd" d="M9.60592 19.4826C9.60592 19.4826 9.44004 19.3254 9.49821 18.5622C9.56864 18.5611 9.63896 18.568 9.70787 18.5825C9.70787 18.5825 9.79831 19.1739 9.60592 19.4826Z" fill="#292311"/>
<path fill-rule="evenodd" clip-rule="evenodd" d="M8.42341 16.3019C8.44656 16.2848 8.46803 16.2655 8.48754 16.2443C8.42994 16.3521 8.16402 16.7831 8.37963 17.4618C8.59525 18.1375 9.13688 18.6413 9.80389 18.6647C10.4709 18.6881 10.8215 18.3617 11.2224 17.8725C11.3796 17.6774 11.5603 17.4326 11.7204 17.2667C11.9593 17.0074 12.1457 16.9346 12.1457 16.6842C12.1457 16.1716 11.6214 15.9414 10.8495 15.7114C10.0777 15.4813 9.38149 15.5098 9.02034 15.6672C8.66802 15.8388 8.51653 16.0195 8.42322 16.3021L8.42341 16.3019Z" fill="#252211"/>
<path fill-rule="evenodd" clip-rule="evenodd" d="M10.9019 19.7126L10.9595 19.6835C10.9595 19.6835 10.9739 19.4531 11.0673 19.4592C11.1604 19.4738 11.2042 19.5963 11.1953 19.6399C11.1896 19.6835 11.1663 19.7564 11.073 19.7476C10.9507 19.7505 10.9014 19.7126 10.9014 19.7126H10.9019Z" fill="#3F3824"/>
<path fill-rule="evenodd" clip-rule="evenodd" d="M10.6428 18.734C10.6428 18.734 10.7004 18.7137 10.7709 18.7836C10.8285 18.7836 11.0796 18.7544 11.1583 18.8039C11.2371 18.8534 11.2603 18.897 11.2603 18.897C11.2603 18.897 10.9662 18.9612 10.8058 18.897C10.6428 18.8417 10.6428 18.734 10.6428 18.734H10.6428Z" fill="#2D2815"/>
<path fill-rule="evenodd" clip-rule="evenodd" d="M11.9389 18.7776C11.9389 18.763 11.7817 18.6553 11.6156 18.6201C11.5864 18.6144 11.5804 18.6347 11.558 18.6347C11.5434 18.629 11.5376 18.5852 11.5376 18.5852L11.4432 18.6349C11.4432 18.6349 11.4286 18.6553 11.4781 18.6925C11.5217 18.7275 11.5947 18.7567 11.615 18.8148C11.6354 18.873 11.6354 18.8934 11.6442 18.9022C11.65 18.908 11.7519 18.9022 11.8014 18.873C11.851 18.8438 11.9443 18.7962 11.9383 18.777L11.9389 18.7776Z" fill="#82764F"/>
<path fill-rule="evenodd" clip-rule="evenodd" d="M10.468 19.369C10.468 19.369 10.497 19.1681 10.6923 19.1593C10.8931 19.1447 10.9311 19.3398 10.9311 19.3398L10.8146 19.4563C10.8146 19.4534 10.7272 19.3311 10.469 19.369H10.468Z" fill="#2D2816"/>
<path fill-rule="evenodd" clip-rule="evenodd" d="M11.7351 18.5038C11.7351 18.5038 11.6272 18.6204 11.3886 18.6553C11.3682 18.6261 11.3244 18.5679 11.3886 18.4748C11.4527 18.3817 11.5255 18.3525 11.5982 18.3815C11.6638 18.3921 11.7172 18.4399 11.7351 18.5038Z" fill="#574F35"/>
<path fill-rule="evenodd" clip-rule="evenodd" d="M12.1748 18.6466C12.1808 18.6174 12.1604 18.6117 12.1748 18.5971C12.1892 18.5825 12.2681 18.5535 12.2827 18.5679C12.2885 18.5739 12.2827 18.5971 12.2827 18.6255C12.2827 18.6539 12.2827 18.6831 12.2681 18.704C12.2478 18.7332 12.1896 18.7478 12.1604 18.7392C12.1312 18.7305 12.1255 18.6896 12.1255 18.6816C12.1399 18.6758 12.1748 18.6612 12.1748 18.6466ZM12.6722 18.3321C12.6722 18.3175 12.7217 18.2884 12.7509 18.2884C12.7945 18.2884 12.7945 18.3233 12.8004 18.3321C12.8148 18.3379 12.8148 18.3262 12.8294 18.3525C12.844 18.3788 12.8646 18.4253 12.8498 18.4544C12.835 18.4836 12.777 18.5038 12.7626 18.498C12.7422 18.4834 12.6781 18.3525 12.6722 18.3321Z" fill="#82764F"/>
<path fill-rule="evenodd" clip-rule="evenodd" d="M11.6709 18.7137C11.6709 18.7137 11.735 18.7281 11.8224 18.801C11.7932 18.8214 11.7494 18.8446 11.7494 18.8446C11.7494 18.8446 11.7437 18.7776 11.6709 18.7135V18.7137Z" fill="#6E6342"/>
<path fill-rule="evenodd" clip-rule="evenodd" d="M11.5282 18.0728C11.5136 18.0584 11.5718 18.0234 11.6067 18.0292C11.6417 18.0349 11.6562 18.0584 11.6941 18.0641C11.7319 18.0699 11.7378 18.0495 11.7517 18.0349C11.7655 18.0204 11.8158 18.0292 11.8244 18.0349C11.8298 18.0413 11.8347 18.0481 11.839 18.0553C11.8403 18.0329 11.8508 18.012 11.868 17.9977C11.8907 17.9811 11.9196 17.9757 11.9467 17.9831C11.9525 18.0035 11.9817 18.0762 11.9759 18.0908C11.9702 18.1054 11.8828 18.126 11.868 18.1112C11.8826 18.1463 11.9467 18.2191 11.9554 18.2335C11.964 18.2479 11.8913 18.283 11.8623 18.2772C11.8216 18.2744 11.571 18.1286 11.5274 18.0733L11.5282 18.0728ZM11.9098 17.5893C11.9044 17.5746 11.894 17.5623 11.8806 17.5544C11.8602 17.5486 11.7932 17.5544 11.7932 17.5893C11.7932 17.6243 11.8508 17.8197 11.9155 17.9215C11.9885 18.0234 12.0378 18.1077 12.0874 18.1311C12.1196 18.1458 12.1578 18.1331 12.1747 18.102C12.1805 18.0874 12.1951 17.9796 12.1893 17.7262C12.1835 17.4728 12.1747 17.2282 12.1601 17.2136C12.1455 17.199 12.0874 17.1992 12.067 17.2282C12.0467 17.2572 11.9155 17.5457 11.9096 17.5893H11.9098Z" fill="#585136"/>
<path fill-rule="evenodd" clip-rule="evenodd" d="M11.6505 19.0806C11.6505 19.0806 11.5486 19.0164 11.4495 19.0602C11.3564 19.104 11.3621 19.2758 11.3621 19.2758C11.4047 19.2925 11.4527 19.287 11.4904 19.2612C11.5545 19.2177 11.6359 19.1449 11.6505 19.0808V19.0806Z" fill="#574F35"/>
<path fill-rule="evenodd" clip-rule="evenodd" d="M11.8425 19.3108C11.8368 19.2532 11.7849 19.2532 11.7849 19.2234C11.7923 19.1941 11.8187 19.1737 11.8488 19.1739C11.878 19.1739 11.9064 19.2088 11.9422 19.2315C11.9771 19.2518 12.0295 19.2891 12.0353 19.3334C12.041 19.3778 11.9777 19.4993 11.9072 19.4993C11.8368 19.4993 11.8577 19.3682 11.8431 19.31L11.8425 19.3108ZM12.4047 19.2321C12.4047 19.2321 12.2881 19.267 12.2967 19.2321C12.3054 19.1971 12.3319 19.1885 12.3697 19.1885C12.3889 19.1684 12.4148 19.1559 12.4425 19.1533C12.4583 19.1526 12.4739 19.1578 12.4861 19.1679C12.4861 19.1679 12.5648 19.133 12.588 19.1533C12.6112 19.1737 12.594 19.1737 12.6084 19.1971C12.6267 19.2231 12.6387 19.253 12.6435 19.2845C12.6435 19.3077 12.5561 19.3572 12.4861 19.3486C12.4047 19.3311 12.4191 19.2467 12.4047 19.2321ZM13.0833 19.1009C13.0833 19.1009 13.1182 19.1213 13.0892 19.1447C13.0689 19.1651 12.9669 19.2023 12.8794 19.2088C12.792 19.2088 12.7135 19.2232 12.7135 19.1942C12.7135 19.1652 12.7862 19.1069 12.8298 19.0923C12.8475 19.0701 12.8744 19.0572 12.9028 19.0573C12.9377 19.0573 13.0744 19.0428 13.1125 19.037C13.1474 19.031 13.1766 19.0514 13.156 19.0806C13.1474 19.1009 13.0833 19.1009 13.0833 19.1009ZM13.2842 18.2016C13.2842 18.2016 13.2405 18.2947 13.1911 18.2947C13.1416 18.289 13.1416 18.2744 13.1416 18.2598C13.1416 18.2394 13.1911 18.187 13.1852 18.1724C13.1708 18.1724 13.1356 18.1724 13.1416 18.1375C13.1416 18.1083 13.1911 18.0733 13.2347 18.0799C13.2676 18.0528 13.3086 18.0375 13.3513 18.0363C13.4008 18.0363 13.4444 18.0507 13.4444 18.0799C13.4444 18.1091 13.3868 18.173 13.3657 18.1878C13.3424 18.211 13.3132 18.2262 13.2842 18.2022V18.2016ZM12.6201 19.9229C12.6201 19.9229 12.5625 19.9288 12.5625 19.9578C12.5625 19.9724 12.5769 19.9724 12.5974 19.9638C12.6092 19.9631 12.621 19.9611 12.6323 19.9578C12.6381 19.9638 12.6381 19.9928 12.6819 19.9928C12.7178 19.9879 12.7525 19.976 12.7838 19.9578C12.8188 19.9434 12.848 19.9286 12.848 19.9002C12.8334 19.8507 12.8042 19.8273 12.7606 19.8273C12.7383 19.8258 12.716 19.8309 12.6965 19.8419C12.6965 19.8419 12.6819 19.8127 12.6323 19.8419C12.5828 19.871 12.5886 19.871 12.6032 19.8856C12.6293 19.9089 12.6206 19.924 12.6206 19.924L12.6201 19.9229ZM12.2911 20.2259C12.2911 20.2113 12.3638 20.1821 12.3842 20.1909C12.4045 20.1967 12.4627 20.3073 12.4627 20.319C12.4627 20.3336 12.3899 20.3685 12.3608 20.3685C12.3316 20.3685 12.2822 20.319 12.2822 20.3109C12.2822 20.3051 12.3172 20.2965 12.3172 20.2906C12.3258 20.2762 12.2911 20.241 12.2911 20.2264V20.2259ZM12.0606 19.8006C12.0752 19.7948 12.0752 19.7802 12.0956 19.7656C12.1085 19.757 12.1247 19.7549 12.1394 19.7599C12.1498 19.7413 12.1679 19.7284 12.1889 19.7247C12.2238 19.719 12.253 19.7247 12.2465 19.7393C12.2465 19.7831 12.2757 19.8121 12.2757 19.847C12.2757 19.882 12.2553 19.9258 12.1826 19.9549C12.1098 19.9753 12.0107 19.9753 11.9961 19.9695C11.9815 19.9638 11.9669 19.9054 11.9815 19.8762C11.9961 19.847 12.0368 19.8152 12.0603 19.8006H12.0606Z" fill="#82764F"/>
<path fill-rule="evenodd" clip-rule="evenodd" d="M12.1535 19.8203C12.1535 19.8203 12.104 19.8495 12.104 19.8641C12.0996 19.8782 12.0977 19.893 12.0982 19.9077C12.0982 19.9163 12.1624 19.9019 12.171 19.8931C12.1739 19.8874 12.1535 19.8355 12.1535 19.8203Z" fill="#6E6342"/>
<path fill-rule="evenodd" clip-rule="evenodd" d="M11.7204 19.6834C11.7494 19.6894 11.7989 19.6834 11.8367 19.698C11.8659 19.7126 11.8862 19.7418 11.8571 19.7768C11.8279 19.8117 11.7995 19.8641 11.7348 19.8553C11.662 19.8495 11.5921 19.8117 11.5921 19.7825C11.5896 19.7452 11.6022 19.7085 11.627 19.6806C11.6562 19.6573 11.6706 19.6719 11.7202 19.6834H11.7204Z" fill="#585136"/>
<path fill-rule="evenodd" clip-rule="evenodd" d="M11.6853 19.7126C11.6853 19.7126 11.5922 19.7854 11.5688 19.8206C11.5396 19.8555 11.397 20.036 11.3534 20.0738C11.3678 20.0483 11.3844 20.0239 11.4027 20.001C11.3451 20.0379 11.3019 20.0934 11.2804 20.1583C11.2455 20.2662 11.4757 20.3244 11.627 20.3681C11.7783 20.4119 11.8368 20.4257 11.8368 20.4257C11.7811 20.342 11.7333 20.2533 11.694 20.1608C11.6364 20.0239 11.6066 20.0093 11.6444 19.9452C11.6736 19.881 11.7174 19.8374 11.7174 19.7879C11.6999 19.7418 11.6853 19.7126 11.6853 19.7126Z" fill="#574F35"/>
<path fill-rule="evenodd" clip-rule="evenodd" d="M8.36513 19.9428C8.38633 19.9467 8.40806 19.9467 8.42926 19.9428C8.47284 19.9369 8.92731 19.77 9.40212 19.8C9.75758 19.8215 10.1099 19.8794 10.4535 19.9728C11.0506 20.13 11.7933 20.4416 12.2739 20.6194C12.4019 20.6688 12.5273 20.7563 12.6195 20.7911C12.9866 20.9339 13.001 20.9339 13.2166 20.9718C13.47 21.0067 13.7292 20.9222 14.0001 20.864C14.3321 20.7911 14.9 20.7561 15.3981 20.6834C15.5591 20.6611 15.718 20.625 15.8729 20.5757C15.8729 20.5757 15.4768 20.9718 14.5272 21.1144C14.1433 21.1727 13.7533 21.1776 13.3681 21.129C13.0651 21.0998 12.8643 21.056 12.7128 21.0125C12.5409 20.9629 12.1884 20.8318 11.7545 20.7245C11.4515 20.6457 11.1136 20.5876 10.7263 20.5148C9.77095 20.3399 8.73415 20.1391 8.36475 19.944L8.36513 19.9428Z" fill="#252211"/>
<path fill-rule="evenodd" clip-rule="evenodd" d="M7.29301 18.1429C7.06261 18.3379 6.81819 18.5244 6.57954 18.7048L5.86011 19.2576C5.6155 19.4381 5.37666 19.6245 5.13186 19.8052C4.88706 19.9859 4.64264 20.1575 4.38306 20.3236C4.61346 20.1285 4.85787 19.9478 5.10248 19.7702C5.34709 19.5926 5.60072 19.4185 5.83669 19.2384L6.55611 18.6849C6.8036 18.5044 7.04245 18.318 7.29301 18.1432V18.1429ZM6.0205 20.1817C6.0205 20.1817 6.2797 19.9661 6.60303 19.6633C7.00489 19.2878 7.49718 18.807 7.65442 18.7198L6.02031 20.1819L6.0205 20.1817Z" fill="#CFB66C"/>
<path fill-rule="evenodd" clip-rule="evenodd" d="M6.02026 20.1815C6.14852 20.0534 6.28542 19.9283 6.42231 19.8058L6.63198 19.6253C6.6961 19.5677 6.76906 19.503 6.833 19.4388C6.96106 19.3108 7.08644 19.1737 7.2145 19.0428C7.27798 18.9769 7.34509 18.9147 7.41553 18.8563C7.45074 18.8252 7.48985 18.7987 7.53188 18.7776C7.56702 18.7572 7.60484 18.72 7.65418 18.7135C7.62519 18.7572 7.59025 18.7776 7.56106 18.8154C7.52612 18.8446 7.49694 18.8796 7.46794 18.9085C7.40382 18.9727 7.33105 19.0308 7.26692 19.0892C7.13002 19.2058 6.98737 19.3196 6.85047 19.4415C6.71358 19.5635 6.58551 19.695 6.44842 19.8173C6.30001 19.9427 6.16311 20.065 6.02026 20.1821V20.1815ZM7.76189 19.0164C7.76189 19.0164 6.81245 19.9457 6.61719 20.097L7.76189 19.0164Z" fill="#CFB66C"/>
<path fill-rule="evenodd" clip-rule="evenodd" d="M7.76214 19.0164C7.67673 19.1153 7.58515 19.2087 7.48796 19.296L7.19996 19.5698C7.10684 19.6629 7.01929 19.7562 6.92041 19.8493C6.81846 19.9367 6.72534 20.0221 6.61743 20.1028L6.89698 19.829C6.9903 19.7359 7.09225 19.6573 7.19132 19.564L7.47087 19.2902C7.56687 19.1942 7.66018 19.1009 7.76214 19.0164ZM7.80567 19.5203C7.71816 19.7645 7.61503 20.0029 7.49694 20.2339C7.25233 20.7233 6.88542 21.3349 6.7251 21.6467L7.80567 19.5203Z" fill="#CFB66C"/>
<path fill-rule="evenodd" clip-rule="evenodd" d="M7.80572 19.5204C7.80572 19.6282 7.77654 19.7215 7.7416 19.8146C7.70753 19.9078 7.6687 19.9992 7.62524 20.0884C7.58147 20.1757 7.53193 20.2691 7.4824 20.3535C7.43286 20.438 7.37468 20.5252 7.33091 20.6127L7.03676 21.1311C6.93481 21.3039 6.83574 21.4777 6.72803 21.6438C6.8008 21.4573 6.89987 21.2826 6.99318 21.1108C7.09513 20.938 7.18825 20.7652 7.28118 20.5864C7.32655 20.4974 7.36737 20.406 7.40348 20.3128C7.44707 20.2195 7.49065 20.1322 7.52579 20.0477C7.56937 19.9546 7.60432 19.867 7.64809 19.7827C7.69744 19.6923 7.73833 19.6049 7.80534 19.5204L7.80572 19.5204Z" fill="#CFB66C"/>
<path fill-rule="evenodd" clip-rule="evenodd" d="M8.84277 21.9088C8.84277 21.9088 8.55477 22.2903 8.58357 22.7737C8.6621 22.5205 8.76117 22.133 8.84277 21.9088ZM9.11631 22.2912C9.11631 22.2912 9.01436 23.328 8.92988 23.8378C9.04931 23.2485 9.07254 23.2981 9.11631 22.2912ZM11.024 23.899C11.024 23.899 10.593 25.1662 10.5841 25.5184C10.6774 25.1562 10.8579 24.4165 11.024 23.8981V23.899Z" fill="#DEC270"/>
<path fill-rule="evenodd" clip-rule="evenodd" d="M12.032 21.8304C12.032 21.8304 12.7311 22.9837 13.2554 23.9681C13.1135 23.4728 12.7871 22.5642 12.032 21.8304Z" fill="#CBAF59"/>
<path fill-rule="evenodd" clip-rule="evenodd" d="M13.9106 23.5283C14.2945 24.2067 14.6406 24.9058 14.9474 25.6224C14.8893 25.1272 14.7318 24.2797 13.9106 23.5283Z" fill="#E3C677"/>
<path fill-rule="evenodd" clip-rule="evenodd" d="M19.4331 25.2288C19.5495 25.156 19.7797 24.7598 19.9807 24.6609C20.1815 24.5589 20.333 24.5386 20.5137 24.3376C20.6942 24.1277 20.7441 23.9996 21.1398 23.8337C21.6933 23.5947 21.3126 23.286 21.3126 23.286C21.3736 23.2261 21.4388 23.1706 21.5077 23.1201C21.6505 23.0124 21.8164 22.8812 21.802 22.651C21.7817 22.2638 21.7089 21.7016 21.3913 21.3754C21.7001 21.3112 22.2912 21.2677 22.6585 21.1745C23.0836 21.0666 23.2789 20.9152 23.2789 20.9152C23.2789 20.9152 23.0343 20.4987 23.4304 20.0794C23.8265 19.66 24.1498 19.4095 24.3886 18.9404C24.1148 18.9055 23.6974 18.76 22.6322 19.1647C22.6897 19.1917 22.7452 19.2229 22.7983 19.2578C22.7983 19.2578 22.143 19.4385 21.9041 19.6395C21.4875 19.9918 21.4351 20.2802 20.9837 20.4958C20.5323 20.7114 20.0778 20.6531 19.7023 20.8278C19.3267 21.0025 19.2713 21.1511 19.1342 21.2152C19.1633 21.2502 19.1284 21.3084 19.1837 21.3579C19.1488 21.4074 18.9449 21.7394 18.7381 21.7394C18.7584 21.8181 18.9331 21.8763 18.9331 21.8763C18.9331 21.8763 18.8051 21.9696 18.4789 21.9928C18.6448 22.1656 18.8022 22.354 19.2361 22.6278C19.2012 22.7006 19.0554 22.8085 19.1138 22.9454C19.1779 23.0823 19.3442 23.2687 20.008 23.4202C19.67 23.4346 19.2741 23.5133 18.7408 23.4405C18.2078 23.3764 18.1204 23.3386 17.7913 23.4202C17.8263 23.4551 17.9194 23.4551 18.001 23.5482C17.9136 23.554 17.366 23.4841 17.1796 23.7289C16.9845 23.9822 16.9001 24.3988 16.9146 24.6784C16.8127 24.7279 16.7136 24.8152 16.7632 24.9959C16.8127 25.1766 17.0719 25.2348 17.238 25.3482C17.4039 25.4705 17.4185 25.5141 17.5759 25.4851C17.7418 25.4502 17.9864 25.2843 18.1292 25.2843C18.2721 25.2843 18.3738 25.392 18.3738 25.392C18.3738 25.392 18.7613 25.2056 18.7991 25.2405C18.8341 25.2755 18.8049 25.4997 18.8427 25.5347C18.8811 25.561 19.3175 25.3018 19.4341 25.2288H19.4331Z" fill="#ECD592"/>
<path fill-rule="evenodd" clip-rule="evenodd" d="M27.9 13.5729C26.0796 8.87195 21.5795 8.00104 21.5795 8.00104H8.74067L8.79021 12.7893H11.3471V23.4816H8.74048V28.2613H21.2241C24.2328 28.2613 26.6445 25.2378 26.6445 25.2378C30.5066 19.7564 27.8998 13.5729 27.8998 13.5729H27.9ZM21.2911 22.0165C21.2911 22.0165 20.3119 23.4292 19.2464 23.4292H17.1152L17.0647 12.801H19.7998C19.7998 12.801 21.067 13.066 21.9523 15.5737C21.9523 15.5737 23.126 19.1641 21.2911 22.0165Z" fill="white" fill-opacity="0.8"/>
</svg>
