<svg width="24" height="24" viewBox="0 0 24 24" fill="none" xmlns="http://www.w3.org/2000/svg">
<path d="M20.9578 12.0094C18.8344 9.5625 15.9 6.75 12 6.75C10.425 6.75 8.98125 7.19531 7.45781 8.14688C6.17344 8.95313 4.85625 10.0875 3.04688 11.9531L3 12L3.31406 12.3234C5.89687 14.9672 8.12813 17.25 12 17.25C13.7109 17.25 15.3703 16.6922 17.0719 15.5438C18.5203 14.5641 19.7531 13.3219 20.7422 12.3187L21 12.0609L20.9578 12.0094ZM12 15.75C9.93281 15.75 8.25 14.0672 8.25 12C8.25 9.93281 9.93281 8.25 12 8.25C14.0672 8.25 15.75 9.93281 15.75 12C15.75 14.0672 14.0672 15.75 12 15.75Z" fill="white"/>
<path d="M11.7375 10.6313C11.7375 10.3078 11.8312 10.0031 11.9953 9.75C10.7531 9.75 9.75 10.7625 9.75 12.0094C9.75 13.2563 10.7578 14.2641 11.9953 14.2641C13.2328 14.2641 14.2453 13.2563 14.2453 12.0094C13.9922 12.1734 13.6875 12.2672 13.3641 12.2672C12.4688 12.2625 11.7375 11.5313 11.7375 10.6313Z" fill="white"/>
</svg>
