<svg width="20" height="20" viewBox="0 0 20 20" fill="none" xmlns="http://www.w3.org/2000/svg">
<path d="M10.0002 13.9333C11.6284 13.9333 12.9483 12.6134 12.9483 10.9852C12.9483 9.35698 11.6284 8.03705 10.0002 8.03705C8.37193 8.03705 7.052 9.35698 7.052 10.9852C7.052 12.6134 8.37193 13.9333 10.0002 13.9333Z" stroke="#25DEB0" stroke-width="1.5" stroke-miterlimit="10"/>
<path d="M18.1481 14.3555C18.1481 15.2501 17.7932 16.1081 17.1614 16.7413C16.5295 17.3746 15.6723 17.7313 14.7777 17.7333H5.22218C4.32762 17.7313 3.47037 17.3746 2.83851 16.7413C2.20666 16.1081 1.8518 15.2501 1.85181 14.3555V10.4148C1.85399 9.52113 2.2079 8.66428 2.83699 8.02958L7.61477 3.25921C7.92781 2.94565 8.2996 2.6969 8.70888 2.52717C9.11816 2.35744 9.55688 2.27008 9.99995 2.27008C10.443 2.27008 10.8818 2.35744 11.291 2.52717C11.7003 2.6969 12.0721 2.94565 12.3851 3.25921L17.1629 8.02958C17.792 8.66428 18.1459 9.52113 18.1481 10.4148V14.3555Z" stroke="#25DEB0" stroke-width="1.5" stroke-miterlimit="10"/>
</svg>
