<svg width="140" height="67" viewBox="0 0 140 67" fill="none" xmlns="http://www.w3.org/2000/svg">
<path opacity="0.5" d="M1.30014 39.0086L0 39.8035V66.0716H140.415V0.513428L139.115 2.92268L139.115 2.92275C137.815 5.33202 135.214 10.1505 132.614 11.7877C130.014 13.425 127.414 11.881 124.813 11.4875C122.213 11.0941 119.613 11.8513 117.012 12.5067C114.412 13.1622 111.812 13.7161 109.212 13.876C106.611 14.0359 104.011 13.8019 101.411 15.488C98.8105 17.1742 96.2102 20.7805 93.6099 23.2397C91.0097 25.6989 88.4094 27.011 85.8091 27.3914C83.2088 27.7717 80.6086 27.2203 78.0083 25.2775C75.408 23.3347 72.8077 20.0005 70.2075 21.5337C67.6072 23.067 65.0069 29.4677 62.4066 29.2451C59.8064 29.0224 57.2061 22.1763 54.6058 18.671C52.0055 15.1658 49.4053 15.0013 46.805 15.6692C44.2047 16.3372 41.6044 17.8377 39.0041 18.0008C36.4039 18.1639 33.8036 16.9895 31.2033 18.6165C28.603 20.2434 26.0028 24.6716 23.4025 29.0248C20.8022 33.3781 18.2019 37.6564 15.6017 38.6455C13.0014 39.6346 10.4011 37.3344 7.80083 36.9792C5.20055 36.624 2.60028 38.2137 1.30014 39.0086Z" fill="url(#paint0_linear_273_1993)"/>
<path d="M0 39.8035L1.30014 39.0086C2.60028 38.2137 5.20055 36.624 7.80083 36.9792C10.4011 37.3344 13.0014 39.6346 15.6017 38.6455C18.2019 37.6564 20.8022 33.3781 23.4025 29.0248C26.0028 24.6716 28.603 20.2434 31.2033 18.6165C33.8036 16.9895 36.4039 18.1639 39.0041 18.0008C41.6044 17.8377 44.2047 16.3372 46.805 15.6693C49.4052 15.0013 52.0055 15.1658 54.6058 18.6711C57.2061 22.1763 59.8064 29.0224 62.4066 29.2451C65.0069 29.4678 67.6072 23.067 70.2075 21.5337C72.8077 20.0005 75.408 23.3347 78.0083 25.2775C80.6086 27.2203 83.2088 27.7717 85.8091 27.3914C88.4094 27.011 91.0097 25.6989 93.6099 23.2397C96.2102 20.7805 98.8105 17.1742 101.411 15.488C104.011 13.8019 106.611 14.0359 109.212 13.876C111.812 13.7161 114.412 13.1622 117.012 12.5067C119.613 11.8513 122.213 11.0941 124.813 11.4875C127.414 11.881 130.014 13.425 132.614 11.7877C135.214 10.1504 137.815 5.33194 139.115 2.92268L140.415 0.513428" stroke="url(#paint1_linear_273_1993)" stroke-width="0.829851" stroke-linecap="round"/>
<defs>
<linearGradient id="paint0_linear_273_1993" x1="70.2075" y1="-122.304" x2="70.2075" y2="66.0716" gradientUnits="userSpaceOnUse">
<stop/>
<stop offset="1" stop-opacity="0.17"/>
</linearGradient>
<linearGradient id="paint1_linear_273_1993" x1="70.2075" y1="0.513428" x2="70.2075" y2="39.8035" gradientUnits="userSpaceOnUse">
<stop stop-color="white"/>
<stop offset="1" stop-color="white"/>
</linearGradient>
</defs>
</svg>
