<svg width="20" height="20" viewBox="0 0 20 20" fill="none" xmlns="http://www.w3.org/2000/svg">
<path d="M8.31104 7.53338V16.5408C8.31104 17.4285 9.0307 18.1482 9.91844 18.1482H10.074C10.9617 18.1482 11.6814 17.4285 11.6814 16.5408V7.53338C11.6814 6.64563 10.9617 5.92597 10.074 5.92597H9.91844C9.0307 5.92597 8.31104 6.64563 8.31104 7.53338Z" stroke="#787A8D" stroke-width="1.5" stroke-linecap="round" stroke-linejoin="round"/>
<path d="M14.7705 3.4593L14.7705 16.5408C14.7705 17.4285 15.4902 18.1482 16.3779 18.1482H16.5335C17.4212 18.1482 18.1409 17.4285 18.1409 16.5408V3.4593C18.1409 2.57156 17.4212 1.8519 16.5335 1.8519H16.3779C15.4902 1.8519 14.7705 2.57156 14.7705 3.4593Z" stroke="#787A8D" stroke-width="1.5" stroke-linecap="round" stroke-linejoin="round"/>
<path d="M1.85181 12.4519L1.85181 16.5408C1.85181 17.4285 2.57147 18.1482 3.45921 18.1482H3.61477C4.50252 18.1482 5.22218 17.4285 5.22218 16.5408V12.4519C5.22218 11.5642 4.50252 10.8445 3.61477 10.8445H3.45921C2.57147 10.8445 1.85181 11.5642 1.85181 12.4519Z" stroke="#787A8D" stroke-width="1.5" stroke-linecap="round" stroke-linejoin="round"/>
</svg>
