<svg width="28" height="28" viewBox="0 0 28 28" fill="none" xmlns="http://www.w3.org/2000/svg">
<path fill-rule="evenodd" clip-rule="evenodd" d="M24.5 7.95849L24.4995 7.94147L24.4995 7.93987C24.4995 7.93454 24.4995 7.92919 24.5 7.92364C24.4994 7.89599 24.4975 7.8684 24.4938 7.84151C24.4927 7.83264 24.4916 7.82381 24.4904 7.81491C24.4897 7.80966 24.489 7.80438 24.4883 7.79905C24.4843 7.77529 24.4794 7.7516 24.4728 7.72819C24.4702 7.71767 24.4673 7.70722 24.4644 7.69692C24.4634 7.69299 24.4623 7.68909 24.4612 7.68521C24.4541 7.66215 24.4459 7.63926 24.4362 7.61702C24.4291 7.59947 24.4214 7.58222 24.4137 7.56521C24.4054 7.54795 24.3964 7.53094 24.3862 7.51421C24.3759 7.4962 24.3649 7.47854 24.3542 7.46158C24.3216 7.41297 24.2835 7.36685 24.24 7.32416L19.4156 2.58708L19.3164 2.50294C18.97 2.25066 18.4794 2.27989 18.1665 2.58992L18.0813 2.68783C17.8255 3.0295 17.8551 3.51346 18.1694 3.82206L21.4782 7.06946L7.57936 7.07021L7.45948 7.07817C7.0284 7.13591 6.69613 7.50038 6.69613 7.94147C6.69613 8.4227 7.09158 8.81273 7.57936 8.81273L21.4794 8.81197L18.1694 12.0612L18.0837 12.1587C17.8263 12.4992 17.8537 12.9833 18.1665 13.2933C18.5106 13.6344 19.0699 13.6357 19.4156 13.2962L24.24 8.55914L24.326 8.46126C24.3375 8.44605 24.3484 8.43054 24.3578 8.41503C24.3656 8.40314 24.3731 8.39104 24.3807 8.37883C24.3828 8.37559 24.3848 8.37234 24.3868 8.36909C24.3972 8.35096 24.4068 8.33249 24.415 8.31379C24.4212 8.30092 24.4271 8.2879 24.4329 8.27494C24.4342 8.27205 24.4355 8.26916 24.4368 8.26628C24.4457 8.24444 24.4536 8.22225 24.4602 8.19936C24.4633 8.18925 24.4663 8.17905 24.4693 8.16892C24.4706 8.16439 24.472 8.15988 24.4733 8.15539C24.4796 8.13071 24.4848 8.10579 24.4883 8.08093C24.4908 8.06509 24.493 8.04912 24.4947 8.03301L24.4941 8.04347C24.4975 8.01524 24.4994 7.98684 24.5 7.95849ZM20.5405 20.3384C20.9716 20.2807 21.3039 19.9162 21.3039 19.4751C21.3039 18.9939 20.9085 18.6039 20.4206 18.6039L6.52207 18.6037L9.83061 15.3555L9.91634 15.2579C10.1737 14.9174 10.1463 14.4333 9.83349 14.1233C9.48939 13.7823 8.93012 13.781 8.58442 14.1204L3.76002 18.8575L3.7592 18.8591C3.73158 18.8863 3.70573 18.9154 3.68195 18.946L3.674 18.9554C3.66416 18.9683 3.6548 18.9816 3.64662 18.995C3.63513 19.0121 3.62418 19.0297 3.61323 19.0476C3.60192 19.0673 3.59144 19.0875 3.58273 19.1075C3.57672 19.1202 3.57101 19.1332 3.56477 19.1465C3.5547 19.171 3.54581 19.1958 3.53874 19.2208C3.53468 19.2339 3.53097 19.2471 3.52697 19.2604C3.52055 19.2854 3.51525 19.3106 3.51178 19.3357C3.50919 19.3515 3.50705 19.3674 3.50535 19.3835L3.50589 19.3732C3.50253 19.4014 3.50059 19.4297 3.5 19.4582L3.50053 19.4751L3.50053 19.4765C3.50053 19.4816 3.50054 19.4867 3.5 19.4918C3.50059 19.5202 3.50253 19.5486 3.50653 19.5772C3.50736 19.5843 3.50828 19.5913 3.50916 19.5981C3.50986 19.6035 3.51053 19.6088 3.51113 19.614C3.51525 19.6394 3.52055 19.6646 3.5275 19.6897C3.52949 19.6975 3.53158 19.7051 3.53367 19.7127C3.53539 19.719 3.53712 19.7252 3.5388 19.7314C3.54599 19.7545 3.55417 19.7773 3.56383 19.7996C3.57084 19.8169 3.57842 19.8339 3.5859 19.8506L3.58626 19.8514C3.59462 19.8687 3.60363 19.8857 3.61388 19.9024C3.62418 19.9204 3.63507 19.9381 3.64579 19.9551C3.67841 20.0037 3.71645 20.0497 3.76002 20.0925L8.58442 24.8296L8.6837 24.9137C9.03005 25.166 9.52065 25.1367 9.83349 24.8267C10.1776 24.4857 10.1763 23.934 9.83061 23.5946L6.52443 20.3463L20.4206 20.3464L20.5405 20.3384Z" fill="white"/>
</svg>
