<svg width="36" height="36" viewBox="0 0 36 36" fill="none" xmlns="http://www.w3.org/2000/svg">
<path d="M35.4614 22.3543C33.0571 31.9972 23.2893 37.8658 13.6441 35.4611C4.00295 33.0571 -1.86622 23.2897 0.539134 13.6476C2.94238 4.00354 12.7102 -1.86541 22.3524 0.538622C31.9969 2.94265 37.8657 12.7111 35.4612 22.3545L35.4613 22.3543H35.4614Z" fill="#23292F"/>
<path d="M26.8537 7.5H30.4865L22.9263 14.9846C20.1885 17.6937 15.7496 17.6937 13.0098 14.9846L5.44678 7.5H9.0825L14.8262 13.1856C16.5675 14.9017 19.3642 14.9017 21.1055 13.1856L26.8537 7.5Z" fill="white"/>
<path d="M9.03587 28.3125H5.40063L13.0098 20.7817C15.7477 18.0726 20.1865 18.0726 22.9263 20.7817L30.5355 28.3125H26.9028L21.11 22.5807C19.3686 20.8647 16.572 20.8647 14.8306 22.5807L9.03587 28.3125Z" fill="white"/>
</svg>
